GeoramaExtended-Bold.ufo
<glyph name="exclam" format="2">
  <advance width="313.91999999999996"/>
  <unicode hex="0021"/>
  <outline>
    <contour>
      <point x="78.00999999999999" y="260.5" type="line"/>
      <point x="238.92" y="260.5" type="line"/>
      <point x="252.07999999999998" y="740.0" type="line"/>
      <point x="65.47999999999999" y="740.0" type="line"/>
    </contour>
    <contour>
      <point x="52.73" y="78.04" type="curve" smooth="yes"/>
      <point x="52.73" y="20.11"/>
      <point x="81.17" y="-7.49"/>
      <point x="156.95999999999998" y="-7.49" type="curve" smooth="yes"/>
      <point x="233.05" y="-7.49"/>
      <point x="261.19" y="20.11"/>
      <point x="261.19" y="78.04" type="curve" smooth="yes"/>
      <point x="261.19" y="136.67"/>
      <point x="233.05" y="164.26999999999998"/>
      <point x="156.95999999999998" y="164.26999999999998" type="curve" smooth="yes"/>
      <point x="80.86999999999999" y="164.26999999999998"/>
      <point x="52.73" y="136.67"/>
    </contour>
  </outline>
</glyph>
<glyph name="numbersign" format="2">
  <advance width="842.3399999999999"/>
  <unicode hex="0023"/>
  <outline>
    <contour>
      <point x="99.47999999999999" y="429.72999999999996" type="line"/>
      <point x="193.74" y="429.72999999999996" type="line"/>
      <point x="160.26999999999998" y="268.68" type="line"/>
      <point x="69.16" y="268.68" type="line"/>
      <point x="69.16" y="150.33" type="line"/>
      <point x="138.53" y="150.33" type="line"/>
      <point x="109.77000000000001" y="0.0" type="line"/>
      <point x="293.92" y="0.0" type="line"/>
      <point x="322.67999999999995" y="150.33" type="line"/>
      <point x="444.73999999999995" y="150.33" type="line"/>
      <point x="415.98" y="0.0" type="line"/>
      <point x="600.1299999999999" y="0.0" type="line"/>
      <point x="628.89" y="150.33" type="line"/>
      <point x="743.3499999999999" y="150.33" type="line"/>
      <point x="743.3499999999999" y="268.68" type="line"/>
      <point x="650.63" y="268.68" type="line"/>
      <point x="684.1" y="429.72999999999996" type="line"/>
      <point x="773.67" y="429.72999999999996" type="line"/>
      <point x="773.67" y="547.52" type="line"/>
      <point x="705.23" y="547.52" type="line"/>
      <point x="734.9699999999999" y="700.0" type="line"/>
      <point x="550.82" y="700.0" type="line"/>
      <point x="521.08" y="547.52" type="line"/>
      <point x="399.02" y="547.52" type="line"/>
      <point x="428.76" y="700.0" type="line"/>
      <point x="244.61" y="700.0" type="line"/>
      <point x="214.87" y="547.52" type="line"/>
      <point x="99.47999999999999" y="547.52" type="line"/>
    </contour>
    <contour>
      <point x="377.89" y="429.72999999999996" type="line"/>
      <point x="499.95000000000005" y="429.72999999999996" type="line"/>
      <point x="466.47999999999996" y="268.68" type="line"/>
      <point x="344.41999999999996" y="268.68" type="line"/>
    </contour>
  </outline>
</glyph>
<glyph name="dollar" format="2">
  <advance width="842.3399999999999"/>
  <unicode hex="0024"/>
  <outline>
    <contour>
      <point x="385.31" y="-10.0" type="curve" smooth="yes"/>
      <point x="628.61" y="-15.600000000000001"/>
      <point x="785.81" y="46.8"/>
      <point x="785.81" y="207.16" type="curve" smooth="yes"/>
      <point x="785.81" y="336.69999999999993"/>
      <point x="681.5799999999999" y="391.04999999999995"/>
      <point x="514.21" y="420.71" type="curve" smooth="yes"/>
      <point x="360.37" y="446.90000000000003"/>
      <point x="284.22999999999996" y="452.53"/>
      <point x="284.22999999999996" y="506.93" type="curve" smooth="yes"/>
      <point x="284.22999999999996" y="549.8399999999999"/>
      <point x="333.19" y="567.4"/>
      <point x="435.6499999999999" y="567.4" type="curve" smooth="yes"/>
      <point x="527.12" y="567.4"/>
      <point x="638.05" y="552.4599999999999"/>
      <point x="709.9000000000001" y="530.27" type="curve"/>
      <point x="741.5600000000001" y="671.5" type="line"/>
      <point x="659.29" y="693.87"/>
      <point x="548.87" y="710.0"/>
      <point x="444.82" y="710.0" type="curve" smooth="yes"/>
      <point x="222.91" y="709.58"/>
      <point x="86.36" y="645.96"/>
      <point x="86.36" y="491.11" type="curve" smooth="yes"/>
      <point x="86.36" y="367.17"/>
      <point x="178.57" y="313.88000000000005"/>
      <point x="313.81" y="284.40999999999997" type="curve" smooth="yes"/>
      <point x="486.8299999999999" y="250.50000000000003"/>
      <point x="585.2800000000001" y="246.5"/>
      <point x="585.2800000000001" y="190.44" type="curve" smooth="yes"/>
      <point x="585.2800000000001" y="146.13999999999996"/>
      <point x="537.11" y="128.07"/>
      <point x="428.73999999999995" y="128.07" type="curve" smooth="yes"/>
      <point x="326.43" y="128.07"/>
      <point x="196.01000000000002" y="149.29000000000002"/>
      <point x="90.55" y="183.34999999999997" type="curve"/>
      <point x="57.23" y="42.71" type="line"/>
      <point x="149.88" y="12.779999999999996"/>
      <point x="275.10999999999996" y="-7.760000000000001"/>
    </contour>
    <contour>
      <point x="366.89" y="-105.0" type="line"/>
      <point x="505.40000000000003" y="-105.0" type="line"/>
      <point x="505.40000000000003" y="10.17" type="line"/>
      <point x="366.89" y="4.539999999999999" type="line"/>
    </contour>
    <contour>
      <point x="366.89" y="691.24" type="line"/>
      <point x="505.40000000000003" y="695.48" type="line"/>
      <point x="505.40000000000003" y="804.58" type="line"/>
      <point x="366.89" y="804.58" type="line"/>
    </contour>
  </outline>
</glyph>
<glyph name="ampersand" format="2">
  <advance width="906.62"/>
  <unicode hex="0026"/>
  <outline>
    <contour>
      <point x="671.4599999999999" y="-3.3000000000000007" type="line"/>
      <point x="901.34" y="1.4999999999999987" type="line"/>
      <point x="411.7" y="427.14000000000004" type="line" smooth="yes"/>
      <point x="362.88" y="469.21999999999997"/>
      <point x="344.9399999999999" y="492.64"/>
      <point x="344.9399999999999" y="521.1800000000001" type="curve" smooth="yes"/>
      <point x="344.9399999999999" y="561.52"/>
      <point x="380.5999999999999" y="583.08"/>
      <point x="446.59999999999997" y="583.08" type="curve" smooth="yes"/>
      <point x="504.81999999999994" y="583.08"/>
      <point x="541.92" y="560.7400000000002"/>
      <point x="541.92" y="517.84" type="curve" smooth="yes"/>
      <point x="541.92" y="484.76"/>
      <point x="522.48" y="462.34000000000003"/>
      <point x="484.43999999999994" y="447.36000000000007" type="curve"/>
      <point x="569.3" y="372.64000000000004" type="line"/>
      <point x="675.6600000000001" y="407.58"/>
      <point x="717.26" y="464.0600000000001"/>
      <point x="717.26" y="540.04" type="curve" smooth="yes"/>
      <point x="717.26" y="651.0799999999999"/>
      <point x="620.8" y="710.0"/>
      <point x="440.02" y="710.0" type="curve" smooth="yes"/>
      <point x="232.61999999999998" y="710.0"/>
      <point x="149.45999999999998" y="632.5799999999999"/>
      <point x="149.45999999999998" y="520.5400000000001" type="curve" smooth="yes"/>
      <point x="149.45999999999998" y="463.08"/>
      <point x="167.36" y="416.22"/>
      <point x="225.72" y="365.14" type="curve" smooth="yes"/>
    </contour>
    <contour>
      <point x="365.62" y="-10.0" type="curve" smooth="yes"/>
      <point x="473.14" y="-10.0"/>
      <point x="556.3" y="14.059999999999997"/>
      <point x="623.24" y="59.54000000000002" type="curve"/>
      <point x="527.06" y="155.38" type="line"/>
      <point x="499.12" y="131.72"/>
      <point x="457.5" y="117.25999999999999"/>
      <point x="392.7" y="117.25999999999999" type="curve" smooth="yes"/>
      <point x="290.38" y="117.25999999999999"/>
      <point x="221.0" y="161.17999999999998"/>
      <point x="221.0" y="225.94000000000003" type="curve" smooth="yes"/>
      <point x="221.0" y="271.02"/>
      <point x="248.66" y="298.64000000000004"/>
      <point x="301.53999999999996" y="318.15999999999997" type="curve"/>
      <point x="211.71999999999997" y="402.87999999999994" type="line"/>
      <point x="94.79999999999998" y="366.56"/>
      <point x="41.46" y="300.38"/>
      <point x="41.46" y="207.07999999999998" type="curve" smooth="yes"/>
      <point x="41.46" y="72.72000000000001"/>
      <point x="157.17999999999998" y="-10.0"/>
    </contour>
    <contour>
      <point x="735.86" y="115.40000000000002" type="line"/>
      <point x="793.4799999999999" y="170.17999999999995"/>
      <point x="830.3199999999999" y="237.51999999999998"/>
      <point x="830.3199999999999" y="314.72" type="curve" smooth="yes"/>
      <point x="830.3199999999999" y="336.02"/>
      <point x="828.42" y="348.34"/>
      <point x="825.8" y="364.6" type="curve"/>
      <point x="678.14" y="363.09999999999997" type="line"/>
      <point x="680.3599999999999" y="347.90000000000003"/>
      <point x="680.7999999999998" y="333.66"/>
      <point x="678.78" y="319.73999999999995" type="curve" smooth="yes"/>
      <point x="674.14" y="281.34000000000003"/>
      <point x="661.6999999999999" y="250.04"/>
      <point x="624.42" y="218.63999999999996" type="curve"/>
    </contour>
  </outline>
</glyph>
<glyph name="quotesingle" format="2">
  <advance width="242.82999999999998"/>
  <unicode hex="0027"/>
  <outline>
    <contour>
      <point x="47.2" y="427.0" type="line"/>
      <point x="195.0" y="427.0" type="line"/>
      <point x="203.29" y="700.0" type="line"/>
      <point x="39.54" y="700.0" type="line"/>
    </contour>
  </outline>
</glyph>
<glyph name="parenleft" format="2">
  <advance width="408.44000000000005"/>
  <unicode hex="0028"/>
  <outline>
    <contour>
      <point x="59.45" y="265.0" type="curve" smooth="yes"/>
      <point x="59.45" y="16.139999999999993"/>
      <point x="151.81" y="-193.25"/>
      <point x="380.55" y="-220.09000000000003" type="curve"/>
      <point x="380.55" y="-98.14" type="line"/>
      <point x="256.34999999999997" y="-59.940000000000005"/>
      <point x="213.61" y="55.529999999999994"/>
      <point x="213.61" y="265.0" type="curve" smooth="yes"/>
      <point x="213.61" y="474.47"/>
      <point x="256.34999999999997" y="589.94"/>
      <point x="380.55" y="628.14" type="curve"/>
      <point x="380.55" y="750.0899999999999" type="line"/>
      <point x="151.81" y="723.25"/>
      <point x="59.45" y="513.86"/>
    </contour>
  </outline>
</glyph>
<glyph name="parenright" format="2">
  <advance width="408.44000000000005"/>
  <unicode hex="0029"/>
  <outline>
    <contour>
      <point x="27.889999999999997" y="-98.14" type="curve"/>
      <point x="27.889999999999997" y="-220.09000000000003" type="line"/>
      <point x="256.63" y="-193.25"/>
      <point x="348.99" y="16.139999999999993"/>
      <point x="348.99" y="265.0" type="curve" smooth="yes"/>
      <point x="348.99" y="513.86"/>
      <point x="256.63" y="723.25"/>
      <point x="27.889999999999997" y="750.0899999999999" type="curve"/>
      <point x="27.889999999999997" y="628.14" type="line"/>
      <point x="152.08999999999997" y="589.94"/>
      <point x="194.83" y="474.47"/>
      <point x="194.83" y="265.0" type="curve" smooth="yes"/>
      <point x="194.83" y="55.529999999999994"/>
      <point x="152.08999999999997" y="-59.940000000000005"/>
    </contour>
  </outline>
</glyph>
<glyph name="asterisk" format="2">
  <advance width="430.64"/>
  <unicode hex="002A"/>
  <outline>
    <contour>
      <point x="127.76999999999998" y="329.19000000000005" type="line"/>
      <point x="215.53" y="432.71000000000004" type="line"/>
      <point x="302.44999999999993" y="328.97999999999996" type="line"/>
      <point x="366.94000000000005" y="373.77" type="line"/>
      <point x="296.78" y="491.51000000000005" type="line"/>
      <point x="419.78999999999996" y="544.45" type="line"/>
      <point x="395.21999999999997" y="618.13" type="line"/>
      <point x="265.62" y="588.26" type="line"/>
      <point x="255.96" y="723.0100000000001" type="line"/>
      <point x="175.10000000000002" y="723.0100000000001" type="line"/>
      <point x="165.44" y="588.26" type="line"/>
      <point x="35.419999999999995" y="618.13" type="line"/>
      <point x="10.85" y="544.45" type="line"/>
      <point x="134.28000000000003" y="491.51000000000005" type="line"/>
      <point x="63.06999999999999" y="374.19" type="line"/>
    </contour>
  </outline>
</glyph>
<glyph name="plus" format="2">
  <advance width="622.28"/>
  <unicode hex="002B"/>
  <outline>
    <contour>
      <point x="231.07" y="98.46" type="line"/>
      <point x="390.71999999999997" y="98.46" type="line"/>
      <point x="390.71999999999997" y="242.24999999999997" type="line"/>
      <point x="567.3199999999999" y="242.24999999999997" type="line"/>
      <point x="567.3199999999999" y="382.29999999999995" type="line"/>
      <point x="390.71999999999997" y="382.29999999999995" type="line"/>
      <point x="390.71999999999997" y="525.6" type="line"/>
      <point x="231.07" y="525.6" type="line"/>
      <point x="231.07" y="382.29999999999995" type="line"/>
      <point x="54.96" y="382.29999999999995" type="line"/>
      <point x="54.96" y="242.24999999999997" type="line"/>
      <point x="231.07" y="242.24999999999997" type="line"/>
    </contour>
  </outline>
</glyph>
<glyph name="comma" format="2">
  <advance width="287.61"/>
  <unicode hex="002C"/>
  <outline>
    <contour>
      <point x="58.18000000000001" y="86.64" type="line"/>
      <point x="63.15" y="61.25"/>
      <point x="65.26" y="36.14999999999999"/>
      <point x="65.26" y="16.279999999999994" type="curve" smooth="yes"/>
      <point x="65.26" y="-48.1"/>
      <point x="45.46" y="-116.8"/>
      <point x="-4.770000000000003" y="-171.69" type="curve"/>
      <point x="139.08999999999997" y="-195.52999999999997" type="line"/>
      <point x="209.75" y="-132.87"/>
      <point x="243.88" y="-61.35"/>
      <point x="243.88" y="14.319999999999997" type="curve" smooth="yes"/>
      <point x="243.88" y="43.37"/>
      <point x="239.13" y="68.88999999999999"/>
      <point x="231.22" y="89.85999999999999" type="curve"/>
    </contour>
  </outline>
</glyph>
<glyph name="hyphen" format="2">
  <advance width="411.63"/>
  <unicode hex="002D"/>
  <outline>
    <contour>
      <point x="45.919999999999995" y="240.3" type="line"/>
      <point x="365.71000000000004" y="240.3" type="line"/>
      <point x="365.71000000000004" y="384.76" type="line"/>
      <point x="45.919999999999995" y="384.76" type="line"/>
    </contour>
  </outline>
</glyph>
<glyph name="period" format="2">
  <advance width="295.45"/>
  <unicode hex="002E"/>
  <outline>
    <contour>
      <point x="43.6" y="78.66999999999999" type="curve" smooth="yes"/>
      <point x="43.6" y="20.74"/>
      <point x="72.04" y="-6.859999999999999"/>
      <point x="147.82999999999998" y="-6.859999999999999" type="curve" smooth="yes"/>
      <point x="223.92" y="-6.859999999999999"/>
      <point x="252.06" y="20.74"/>
      <point x="252.06" y="78.66999999999999" type="curve" smooth="yes"/>
      <point x="252.06" y="137.29999999999998"/>
      <point x="223.92" y="164.89999999999998"/>
      <point x="147.82999999999998" y="164.89999999999998" type="curve" smooth="yes"/>
      <point x="71.74" y="164.89999999999998"/>
      <point x="43.6" y="137.29999999999998"/>
    </contour>
  </outline>
</glyph>
<glyph name="slash" format="2">
  <advance width="507.87"/>
  <unicode hex="002F"/>
  <outline>
    <contour>
      <point x="5.08" y="-210.0" type="line"/>
      <point x="152.95" y="-210.0" type="line"/>
      <point x="502.7899999999999" y="740.0" type="line"/>
      <point x="354.71" y="740.0" type="line"/>
    </contour>
  </outline>
</glyph>
<glyph name="zero" format="2">
  <advance width="842.3399999999999"/>
  <unicode hex="0030"/>
  <outline>
    <contour>
      <point x="35.72" y="350.0" type="curve" smooth="yes"/>
      <point x="35.72" y="72.24"/>
      <point x="207.39000000000001" y="-10.0"/>
      <point x="421.16999999999996" y="-10.0" type="curve" smooth="yes"/>
      <point x="634.74" y="-10.0"/>
      <point x="806.6199999999999" y="73.08"/>
      <point x="806.6199999999999" y="350.0" type="curve" smooth="yes"/>
      <point x="806.6199999999999" y="627.22"/>
      <point x="637.89" y="710.0"/>
      <point x="421.16999999999996" y="710.0" type="curve" smooth="yes"/>
      <point x="206.76000000000002" y="710.0"/>
      <point x="35.72" y="628.9"/>
    </contour>
    <contour>
      <point x="233.44999999999996" y="347.27" type="curve" smooth="yes"/>
      <point x="233.44999999999996" y="534.01"/>
      <point x="319.80999999999995" y="576.4599999999999"/>
      <point x="421.16999999999996" y="576.4599999999999" type="curve" smooth="yes"/>
      <point x="522.95" y="576.4599999999999"/>
      <point x="609.31" y="534.22"/>
      <point x="609.31" y="347.27" type="curve" smooth="yes"/>
      <point x="609.31" y="167.34"/>
      <point x="523.5799999999999" y="123.53999999999998"/>
      <point x="421.16999999999996" y="123.53999999999998" type="curve" smooth="yes"/>
      <point x="319.17999999999995" y="123.53999999999998"/>
      <point x="233.44999999999996" y="167.13000000000002"/>
    </contour>
  </outline>
</glyph>
<glyph name="one" format="2">
  <advance width="842.3399999999999"/>
  <unicode hex="0031"/>
  <outline>
    <contour>
      <point x="117.42999999999999" y="0.0" type="line"/>
      <point x="782.47" y="0.0" type="line"/>
      <point x="782.47" y="142.5" type="line"/>
      <point x="567.57" y="142.5" type="line"/>
      <point x="567.57" y="702.1" type="line"/>
      <point x="470.79999999999995" y="702.1" type="line"/>
      <point x="100.35" y="561.03" type="line"/>
      <point x="143.57" y="416.69" type="line"/>
      <point x="373.69" y="506.87" type="line"/>
      <point x="373.69" y="142.5" type="line"/>
      <point x="117.42999999999999" y="142.5" type="line"/>
    </contour>
  </outline>
</glyph>
<glyph name="two" format="2">
  <advance width="842.7799999999999"/>
  <unicode hex="0032"/>
  <outline>
    <contour>
      <point x="72.24" y="113.54" type="curve"/>
      <point x="74.41999999999999" y="0.0" type="line"/>
      <point x="778.42" y="0.0" type="line"/>
      <point x="778.42" y="142.8" type="line"/>
      <point x="394.78" y="142.8" type="line"/>
      <point x="635.4599999999999" y="291.5"/>
      <point x="704.64" y="360.96000000000004"/>
      <point x="704.64" y="482.46000000000004" type="curve" smooth="yes"/>
      <point x="704.64" y="619.52"/>
      <point x="592.5999999999999" y="710.0"/>
      <point x="391.73999999999995" y="710.0" type="curve" smooth="yes"/>
      <point x="285.21999999999997" y="710.0"/>
      <point x="161.16" y="680.42"/>
      <point x="79.08" y="634.9599999999999" type="curve"/>
      <point x="131.93999999999997" y="494.12" type="line"/>
      <point x="207.95999999999998" y="528.9999999999999"/>
      <point x="284.84" y="546.8999999999999"/>
      <point x="354.1599999999999" y="546.8999999999999" type="curve" smooth="yes"/>
      <point x="459.19999999999993" y="546.8999999999999"/>
      <point x="503.07999999999987" y="507.66"/>
      <point x="503.07999999999987" y="446.35999999999996" type="curve" smooth="yes"/>
      <point x="503.07999999999987" y="358.44"/>
      <point x="408.24" y="291.08"/>
    </contour>
  </outline>
</glyph>
<glyph name="three" format="2">
  <advance width="842.6999999999998"/>
  <unicode hex="0033"/>
  <outline>
    <contour>
      <point x="42.39999999999999" y="50.20000000000001" type="line"/>
      <point x="137.2" y="9.0"/>
      <point x="239.7" y="-9.5"/>
      <point x="380.3" y="-9.5" type="curve" smooth="yes"/>
      <point x="639.8" y="-9.5"/>
      <point x="773.6" y="68.89999999999999"/>
      <point x="773.6" y="207.7" type="curve" smooth="yes"/>
      <point x="773.6" y="289.59999999999997"/>
      <point x="716.7" y="347.09999999999997"/>
      <point x="610.6999999999999" y="367.7" type="curve"/>
      <point x="696.1999999999999" y="390.40000000000003"/>
      <point x="743.5000000000001" y="444.20000000000005"/>
      <point x="743.5000000000001" y="521.6000000000001" type="curve" smooth="yes"/>
      <point x="743.5000000000001" y="641.8"/>
      <point x="636.6" y="710.0"/>
      <point x="395.29999999999995" y="710.0" type="curve" smooth="yes"/>
      <point x="264.90000000000003" y="710.0"/>
      <point x="141.49999999999997" y="691.3999999999999"/>
      <point x="71.5" y="660.2" type="curve"/>
      <point x="105.8" y="523.7" type="line"/>
      <point x="181.89999999999998" y="548.5999999999999"/>
      <point x="272.70000000000005" y="560.8999999999999"/>
      <point x="361.2" y="560.8999999999999" type="curve" smooth="yes"/>
      <point x="491.80000000000007" y="560.8999999999999"/>
      <point x="554.3" y="535.4"/>
      <point x="554.3" y="489.09999999999997" type="curve" smooth="yes"/>
      <point x="554.3" y="442.1"/>
      <point x="504.0" y="417.99999999999994"/>
      <point x="375.6" y="417.99999999999994" type="curve" smooth="yes"/>
      <point x="220.89999999999998" y="417.99999999999994" type="line"/>
      <point x="220.89999999999998" y="292.19999999999993" type="line"/>
      <point x="360.2" y="292.19999999999993" type="line" smooth="yes"/>
      <point x="506.30000000000007" y="292.19999999999993"/>
      <point x="578.5" y="269.40000000000003"/>
      <point x="578.5" y="218.9" type="curve" smooth="yes"/>
      <point x="578.5" y="162.9"/>
      <point x="518.7" y="135.20000000000002"/>
      <point x="368.8" y="135.20000000000002" type="curve" smooth="yes"/>
      <point x="262.40000000000003" y="135.20000000000002"/>
      <point x="156.7" y="151.3"/>
      <point x="82.8" y="179.9" type="curve"/>
    </contour>
  </outline>
</glyph>
<glyph name="four" format="2">
  <advance width="842.6999999999999"/>
  <unicode hex="0034"/>
  <outline>
    <contour>
      <point x="21.900000000000006" y="120.29999999999998" type="line"/>
      <point x="470.4" y="120.29999999999998" type="line"/>
      <point x="470.4" y="0.0" type="line"/>
      <point x="665.6999999999998" y="0.0" type="line"/>
      <point x="665.6999999999998" y="120.29999999999998" type="line"/>
      <point x="801.5999999999999" y="120.29999999999998" type="line"/>
      <point x="801.5999999999999" y="249.1" type="line"/>
      <point x="665.6999999999998" y="249.1" type="line"/>
      <point x="665.6999999999998" y="699.9999999999999" type="line"/>
      <point x="525.3" y="702.4" type="line"/>
      <point x="20.700000000000003" y="237.80000000000004" type="line"/>
    </contour>
    <contour>
      <point x="209.8" y="249.1" type="line"/>
      <point x="472.5" y="489.8999999999999" type="line"/>
      <point x="472.5" y="249.1" type="line"/>
    </contour>
  </outline>
</glyph>
<glyph name="five" format="2">
  <advance width="842.6999999999999"/>
  <unicode hex="0035"/>
  <outline>
    <contour>
      <point x="51.21" y="46.89" type="line"/>
      <point x="148.56" y="6.9399999999999995"/>
      <point x="250.49999999999997" y="-9.850000000000001"/>
      <point x="380.18" y="-9.850000000000001" type="curve" smooth="yes"/>
      <point x="624.7900000000001" y="-9.850000000000001"/>
      <point x="777.92" y="65.35000000000001"/>
      <point x="777.92" y="230.2" type="curve" smooth="yes"/>
      <point x="777.92" y="383.78999999999996"/>
      <point x="661.36" y="430.25"/>
      <point x="439.4800000000001" y="431.09" type="curve" smooth="yes"/>
      <point x="270.79999999999995" y="431.33000000000004" type="line"/>
      <point x="288.84999999999997" y="553.9599999999999" type="line"/>
      <point x="726.43" y="553.9599999999999" type="line"/>
      <point x="726.43" y="700.0" type="line"/>
      <point x="153.18" y="700.0" type="line"/>
      <point x="96.95" y="312.47" type="line"/>
      <point x="107.14" y="302.95" type="line"/>
      <point x="367.16" y="302.95" type="line" smooth="yes"/>
      <point x="547.66" y="302.95"/>
      <point x="586.4599999999999" y="274.87999999999994"/>
      <point x="586.4599999999999" y="222.45" type="curve" smooth="yes"/>
      <point x="586.4599999999999" y="165.23999999999998"/>
      <point x="527.26" y="134.68"/>
      <point x="369.32" y="134.68" type="curve" smooth="yes"/>
      <point x="253.73999999999998" y="134.68"/>
      <point x="157.6" y="152.58999999999997"/>
      <point x="89.53" y="177.81" type="curve"/>
    </contour>
  </outline>
</glyph>
<glyph name="six" format="2">
  <advance width="842.6999999999999"/>
  <unicode hex="0036"/>
  <outline>
    <contour>
      <point x="436.09999999999997" y="-10.0" type="curve" smooth="yes"/>
      <point x="676.2" y="-10.0"/>
      <point x="802.7999999999998" y="73.0"/>
      <point x="802.7999999999998" y="232.0" type="curve" smooth="yes"/>
      <point x="802.7999999999998" y="373.4"/>
      <point x="699.5" y="448.5"/>
      <point x="501.9" y="448.5" type="curve" smooth="yes"/>
      <point x="386.6" y="448.5"/>
      <point x="282.3999999999999" y="423.9"/>
      <point x="211.4" y="379.49999999999994" type="curve"/>
      <point x="213.8" y="258.00000000000006" type="line"/>
      <point x="284.5" y="290.40000000000003"/>
      <point x="363.19999999999993" y="316.3"/>
      <point x="445.49999999999994" y="316.3" type="curve" smooth="yes"/>
      <point x="555.7" y="316.3"/>
      <point x="613.9000000000001" y="287.1"/>
      <point x="613.9000000000001" y="226.00000000000003" type="curve" smooth="yes"/>
      <point x="613.9000000000001" y="160.79999999999998"/>
      <point x="556.8" y="127.4"/>
      <point x="453.90000000000003" y="127.4" type="curve" smooth="yes"/>
      <point x="300.9" y="127.4"/>
      <point x="231.29999999999998" y="185.79999999999995"/>
      <point x="231.29999999999998" y="344.5" type="curve" smooth="yes"/>
      <point x="231.29999999999998" y="494.7"/>
      <point x="311.5" y="563.7"/>
      <point x="499.00000000000006" y="563.7" type="curve" smooth="yes"/>
      <point x="590.5" y="563.7"/>
      <point x="653.4" y="552.6"/>
      <point x="738.9" y="532.0" type="curve"/>
      <point x="773.8999999999999" y="670.4000000000001" type="line"/>
      <point x="702.8" y="694.8999999999999"/>
      <point x="602.5" y="710.0"/>
      <point x="475.3999999999999" y="710.0" type="curve" smooth="yes"/>
      <point x="189.60000000000002" y="710.0"/>
      <point x="40.199999999999996" y="578.8999999999999"/>
      <point x="40.199999999999996" y="331.6" type="curve" smooth="yes"/>
      <point x="40.199999999999996" y="101.20000000000002"/>
      <point x="174.1" y="-10.0"/>
    </contour>
  </outline>
</glyph>
<glyph name="seven" format="2">
  <advance width="842.6999999999999"/>
  <unicode hex="0037"/>
  <outline>
    <contour>
      <point x="239.82000000000002" y="0.0" type="curve"/>
      <point x="440.58000000000004" y="0.0" type="line"/>
      <point x="444.61999999999995" y="114.3"/>
      <point x="489.26" y="208.29999999999998"/>
      <point x="586.48" y="335.86" type="curve" smooth="yes"/>
      <point x="775.7199999999999" y="582.82" type="line"/>
      <point x="775.7199999999999" y="700.0" type="line"/>
      <point x="78.8" y="700.0" type="line"/>
      <point x="78.8" y="550.3000000000001" type="line"/>
      <point x="544.44" y="550.3000000000001" type="line"/>
      <point x="386.62" y="356.12" type="line" smooth="yes"/>
      <point x="277.8399999999999" y="222.56000000000003"/>
      <point x="239.82000000000002" y="127.86"/>
    </contour>
  </outline>
</glyph>
<glyph name="eight" format="2">
  <advance width="842.7799999999999"/>
  <unicode hex="0038"/>
  <outline>
    <contour>
      <point x="497.87999999999994" y="399.9" type="curve"/>
      <point x="636.5999999999999" y="361.04" type="line"/>
      <point x="731.94" y="401.0"/>
      <point x="769.6199999999999" y="465.14"/>
      <point x="769.6199999999999" y="526.66" type="curve" smooth="yes"/>
      <point x="769.6199999999999" y="643.88"/>
      <point x="646.14" y="710.0"/>
      <point x="422.2199999999999" y="710.0" type="curve" smooth="yes"/>
      <point x="198.67999999999995" y="710.0"/>
      <point x="74.46000000000001" y="638.58"/>
      <point x="74.46000000000001" y="506.02000000000004" type="curve" smooth="yes"/>
      <point x="74.46000000000001" y="222.98"/>
      <point x="607.6800000000001" y="336.6"/>
      <point x="607.6800000000001" y="190.41999999999996" type="curve" smooth="yes"/>
      <point x="607.6800000000001" y="140.30000000000004"/>
      <point x="548.88" y="116.41999999999999"/>
      <point x="434.15999999999997" y="116.41999999999999" type="curve" smooth="yes"/>
      <point x="297.08" y="116.41999999999999"/>
      <point x="223.84" y="149.55999999999997"/>
      <point x="223.84" y="209.70000000000002" type="curve" smooth="yes"/>
      <point x="223.84" y="255.17999999999995"/>
      <point x="254.01999999999998" y="285.68"/>
      <point x="317.6" y="314.74" type="curve"/>
      <point x="189.45999999999998" y="373.84000000000003" type="line"/>
      <point x="80.16" y="341.94"/>
      <point x="29.259999999999998" y="272.21999999999997"/>
      <point x="29.259999999999998" y="196.96" type="curve" smooth="yes"/>
      <point x="29.259999999999998" y="63.3"/>
      <point x="163.7" y="-10.0"/>
      <point x="419.76" y="-10.0" type="curve" smooth="yes"/>
      <point x="686.58" y="-10.0"/>
      <point x="813.9" y="59.059999999999995"/>
      <point x="813.9" y="207.28000000000003" type="curve" smooth="yes"/>
      <point x="813.9" y="475.75999999999993"/>
      <point x="259.56" y="380.21999999999997"/>
      <point x="259.56" y="511.38" type="curve" smooth="yes"/>
      <point x="259.56" y="554.9599999999999"/>
      <point x="305.7" y="580.4599999999999"/>
      <point x="417.97999999999996" y="580.4599999999999" type="curve" smooth="yes"/>
      <point x="532.8" y="580.4599999999999"/>
      <point x="588.9000000000001" y="552.1999999999999"/>
      <point x="588.9000000000001" y="501.66" type="curve" smooth="yes"/>
      <point x="588.9000000000001" y="460.7799999999999"/>
      <point x="566.0400000000001" y="433.20000000000005"/>
    </contour>
  </outline>
</glyph>
<glyph name="nine" format="2">
  <advance width="842.6999999999999"/>
  <unicode hex="0039"/>
  <outline>
    <contour>
      <point x="369.09999999999997" y="-10.0" type="curve" smooth="yes"/>
      <point x="654.9000000000001" y="-10.0"/>
      <point x="800.8" y="118.10000000000002"/>
      <point x="800.8" y="360.99999999999994" type="curve" smooth="yes"/>
      <point x="800.8" y="595.8000000000001"/>
      <point x="671.4" y="710.0"/>
      <point x="413.09999999999997" y="710.0" type="curve" smooth="yes"/>
      <point x="170.29999999999998" y="710.0"/>
      <point x="37.8" y="626.7"/>
      <point x="37.8" y="469.0999999999999" type="curve" smooth="yes"/>
      <point x="37.8" y="325.5"/>
      <point x="145.4" y="251.69999999999996"/>
      <point x="340.2" y="251.69999999999996" type="curve" smooth="yes"/>
      <point x="456.69999999999993" y="251.69999999999996"/>
      <point x="560.8000000000001" y="274.0"/>
      <point x="629.6" y="318.1" type="curve"/>
      <point x="629.0" y="440.79999999999995" type="line"/>
      <point x="558.9" y="406.4"/>
      <point x="479.5" y="382.29999999999995"/>
      <point x="397.1" y="382.29999999999995" type="curve" smooth="yes"/>
      <point x="288.99999999999994" y="382.29999999999995"/>
      <point x="226.79999999999995" y="413.00000000000006"/>
      <point x="226.79999999999995" y="475.20000000000005" type="curve" smooth="yes"/>
      <point x="226.79999999999995" y="540.6999999999999"/>
      <point x="291.49999999999994" y="572.9"/>
      <point x="396.29999999999995" y="572.9" type="curve" smooth="yes"/>
      <point x="538.4000000000001" y="572.9"/>
      <point x="610.3000000000001" y="514.3"/>
      <point x="610.3000000000001" y="356.1" type="curve" smooth="yes"/>
      <point x="610.3000000000001" y="205.9"/>
      <point x="533.4999999999999" y="134.5"/>
      <point x="342.3" y="134.5" type="curve" smooth="yes"/>
      <point x="260.5" y="134.5"/>
      <point x="192.60000000000002" y="146.8"/>
      <point x="101.49999999999999" y="167.3" type="curve"/>
      <point x="66.89999999999999" y="30.499999999999996" type="line"/>
      <point x="144.0" y="5.699999999999998"/>
      <point x="248.00000000000003" y="-10.0"/>
    </contour>
  </outline>
</glyph>
<glyph name="less" format="2">
  <advance width="622.28"/>
  <unicode hex="003C"/>
  <outline>
    <contour>
      <point x="571.64" y="55.47" type="line"/>
      <point x="571.64" y="196.43999999999997" type="line"/>
      <point x="212.04" y="308.13" type="line"/>
      <point x="571.64" y="420.04999999999995" type="line"/>
      <point x="571.64" y="561.4000000000001" type="line"/>
      <point x="50.63999999999999" y="377.21" type="line"/>
      <point x="50.63999999999999" y="237.58" type="line"/>
    </contour>
  </outline>
</glyph>
<glyph name="equal" format="2">
  <advance width="618.0799999999999"/>
  <unicode hex="003D"/>
  <outline>
    <contour>
      <point x="563.1199999999999" y="262.66" type="line"/>
      <point x="54.96" y="262.66" type="line"/>
      <point x="54.96" y="122.61000000000001" type="line"/>
      <point x="563.1199999999999" y="122.61000000000001" type="line"/>
    </contour>
    <contour>
      <point x="563.1199999999999" y="495.07" type="line"/>
      <point x="54.96" y="495.07" type="line"/>
      <point x="54.96" y="355.02" type="line"/>
      <point x="563.1199999999999" y="355.02" type="line"/>
    </contour>
  </outline>
</glyph>
<glyph name="greater" format="2">
  <advance width="622.28"/>
  <unicode hex="003E"/>
  <outline>
    <contour>
      <point x="571.64" y="237.49" type="line"/>
      <point x="571.64" y="377.12" type="line"/>
      <point x="50.63999999999999" y="561.4000000000001" type="line"/>
      <point x="50.63999999999999" y="419.65999999999997" type="line"/>
      <point x="410.24" y="308.04" type="line"/>
      <point x="50.63999999999999" y="196.26000000000002" type="line"/>
      <point x="50.63999999999999" y="55.47" type="line"/>
    </contour>
  </outline>
</glyph>
<glyph name="question" format="2">
  <advance width="607.7199999999999"/>
  <unicode hex="003F"/>
  <outline>
    <contour>
      <point x="202.97000000000003" y="259.87" type="line"/>
      <point x="364.09" y="259.87" type="line"/>
      <point x="365.07" y="317.64" type="line"/>
      <point x="526.24" y="362.30999999999995"/>
      <point x="586.93" y="429.25"/>
      <point x="586.93" y="534.6" type="curve" smooth="yes"/>
      <point x="586.93" y="689.7"/>
      <point x="449.09" y="749.79"/>
      <point x="302.45" y="749.79" type="curve" smooth="yes"/>
      <point x="209.12" y="749.79"/>
      <point x="90.0" y="720.53"/>
      <point x="15.279999999999998" y="674.04" type="curve"/>
      <point x="64.52" y="538.6800000000001" type="line"/>
      <point x="135.73000000000002" y="575.81"/>
      <point x="208.2" y="596.3199999999999"/>
      <point x="271.37" y="596.3199999999999" type="curve" smooth="yes"/>
      <point x="338.41999999999996" y="596.3199999999999"/>
      <point x="389.74" y="574.98"/>
      <point x="389.74" y="520.4300000000001" type="curve" smooth="yes"/>
      <point x="389.74" y="476.38"/>
      <point x="363.92" y="441.33000000000004"/>
      <point x="198.7" y="402.87" type="curve"/>
    </contour>
    <contour>
      <point x="180.05" y="78.04" type="curve" smooth="yes"/>
      <point x="180.05" y="20.11"/>
      <point x="208.45999999999998" y="-7.49"/>
      <point x="284.36999999999995" y="-7.49" type="curve" smooth="yes"/>
      <point x="360.15999999999997" y="-7.49"/>
      <point x="388.6" y="20.11"/>
      <point x="388.6" y="78.04" type="curve" smooth="yes"/>
      <point x="388.6" y="136.67"/>
      <point x="360.15999999999997" y="164.26999999999998"/>
      <point x="284.36999999999995" y="164.26999999999998" type="curve" smooth="yes"/>
      <point x="208.07000000000002" y="164.26999999999998"/>
      <point x="180.05" y="136.67"/>
    </contour>
  </outline>
</glyph>
<glyph name="at" format="2">
  <advance width="1000.6999999999999"/>
  <unicode hex="0040"/>
  <outline>
    <contour>
      <point x="467.5000000000001" y="-124.11999999999999" type="curve" smooth="yes"/>
      <point x="550.8199999999999" y="-124.11999999999999"/>
      <point x="642.3999999999999" y="-108.36"/>
      <point x="713.4" y="-85.32" type="curve"/>
      <point x="691.14" y="-5.0400000000000045" type="line"/>
      <point x="629.88" y="-25.260000000000012"/>
      <point x="553.1800000000001" y="-38.52000000000002"/>
      <point x="479.55999999999995" y="-38.52000000000002" type="curve" smooth="yes"/>
      <point x="284.71999999999997" y="-38.52000000000002"/>
      <point x="136.84" y="37.260000000000005"/>
      <point x="136.84" y="263.66" type="curve" smooth="yes"/>
      <point x="136.84" y="469.08"/>
      <point x="271.81999999999994" y="627.9200000000001"/>
      <point x="512.8799999999999" y="627.9200000000001" type="curve" smooth="yes"/>
      <point x="750.58" y="627.9200000000001"/>
      <point x="868.76" y="521.9200000000001"/>
      <point x="868.76" y="331.34" type="curve" smooth="yes"/>
      <point x="868.76" y="208.95999999999998"/>
      <point x="827.02" y="144.1"/>
      <point x="779.82" y="145.5" type="curve" smooth="yes"/>
      <point x="745.88" y="145.5"/>
      <point x="724.3399999999999" y="169.78"/>
      <point x="729.54" y="239.92000000000002" type="curve" smooth="yes"/>
      <point x="748.26" y="489.6800000000001" type="line"/>
      <point x="680.98" y="512.88"/>
      <point x="596.84" y="528.12"/>
      <point x="530.14" y="528.12" type="curve" smooth="yes"/>
      <point x="348.84" y="528.12"/>
      <point x="245.18" y="414.7999999999999"/>
      <point x="245.18" y="259.3" type="curve" smooth="yes"/>
      <point x="245.18" y="129.04"/>
      <point x="314.05999999999995" y="59.04"/>
      <point x="420.78000000000003" y="59.04" type="curve" smooth="yes"/>
      <point x="503.4599999999999" y="59.04"/>
      <point x="567.78" y="106.74"/>
      <point x="605.86" y="175.5" type="curve"/>
      <point x="622.24" y="101.1"/>
      <point x="662.3800000000001" y="51.06"/>
      <point x="753.2199999999999" y="51.06" type="curve" smooth="yes"/>
      <point x="895.8000000000001" y="48.26"/>
      <point x="962.1200000000002" y="182.46"/>
      <point x="962.1200000000002" y="335.40000000000003" type="curve" smooth="yes"/>
      <point x="962.1200000000002" y="574.3000000000001"/>
      <point x="798.86" y="709.9999999999999"/>
      <point x="527.02" y="709.9999999999999" type="curve" smooth="yes"/>
      <point x="217.40000000000003" y="709.9999999999999"/>
      <point x="39.41999999999999" y="519.1"/>
      <point x="39.41999999999999" y="265.2" type="curve" smooth="yes"/>
      <point x="39.41999999999999" y="-16.040000000000003"/>
      <point x="219.14" y="-124.11999999999999"/>
    </contour>
    <contour>
      <point x="474.59999999999997" y="178.72" type="curve" smooth="yes"/>
      <point x="433.59999999999997" y="178.72"/>
      <point x="403.21999999999997" y="208.79999999999998"/>
      <point x="403.21999999999997" y="272.17999999999995" type="curve" smooth="yes"/>
      <point x="403.21999999999997" y="357.56000000000006"/>
      <point x="452.25999999999993" y="423.16"/>
      <point x="518.0799999999999" y="423.16" type="curve" smooth="yes"/>
      <point x="545.0799999999999" y="423.16"/>
      <point x="569.86" y="420.00000000000006"/>
      <point x="597.92" y="410.46" type="curve"/>
      <point x="586.54" y="289.08" type="line" smooth="yes"/>
      <point x="562.8799999999999" y="208.54000000000002"/>
      <point x="521.0999999999999" y="178.72"/>
    </contour>
  </outline>
</glyph>
<glyph name="A" format="2">
  <advance width="867.87"/>
  <unicode hex="0041"/>
  <anchor x="861.31" y="0.0" name="ogonek"/>
  <anchor x="426.35999999999996" y="0.0" name="bottom"/>
  <anchor x="434.8999999999999" y="700.0" name="top"/>
  <outline>
    <contour>
      <point x="6.9799999999999995" y="0.0" type="line"/>
      <point x="219.2" y="0.0" type="line"/>
      <point x="272.96" y="129.99999999999997" type="line"/>
      <point x="581.0" y="129.99999999999997" type="line"/>
      <point x="635.51" y="0.0" type="line"/>
      <point x="861.31" y="0.0" type="line"/>
      <point x="542.7900000000001" y="703.0" type="line"/>
      <point x="324.21" y="703.0" type="line"/>
    </contour>
    <contour>
      <point x="321.32" y="273.10999999999996" type="line"/>
      <point x="427.34" y="551.12" type="line"/>
      <point x="532.64" y="273.10999999999996" type="line"/>
    </contour>
  </outline>
</glyph>
<glyph name="B" format="2">
  <advance width="867.62"/>
  <unicode hex="0042"/>
  <anchor x="431.97999999999996" y="700.0" name="top"/>
  <anchor x="431.97999999999996" y="0.0" name="bottom"/>
  <outline>
    <contour>
      <point x="75.24" y="4.099999999999999" type="line"/>
      <point x="280.32" y="-8.0"/>
      <point x="306.08" y="-10.0"/>
      <point x="444.53999999999996" y="-10.0" type="curve" smooth="yes"/>
      <point x="744.0600000000001" y="-10.0"/>
      <point x="838.34" y="45.50000000000001"/>
      <point x="838.34" y="204.38000000000002" type="curve" smooth="yes"/>
      <point x="838.34" y="299.11999999999995"/>
      <point x="770.5199999999999" y="364.82000000000005"/>
      <point x="657.06" y="384.26" type="curve"/>
      <point x="657.06" y="386.26" type="line"/>
      <point x="747.8" y="414.48"/>
      <point x="788.08" y="464.49999999999994"/>
      <point x="788.08" y="543.52" type="curve" smooth="yes"/>
      <point x="788.08" y="664.36"/>
      <point x="696.62" y="710.0"/>
      <point x="440.04" y="710.0" type="curve" smooth="yes"/>
      <point x="345.09999999999997" y="710.0"/>
      <point x="233.39999999999998" y="705.6"/>
      <point x="75.24" y="695.6" type="curve"/>
    </contour>
    <contour>
      <point x="275.35999999999996" y="417.78" type="line"/>
      <point x="275.35999999999996" y="561.6799999999998" type="line"/>
      <point x="358.42" y="566.78"/>
      <point x="367.67999999999995" y="567.78"/>
      <point x="428.26" y="567.78" type="curve" smooth="yes"/>
      <point x="556.2599999999999" y="567.78"/>
      <point x="595.46" y="546.64"/>
      <point x="595.46" y="492.08000000000004" type="curve" smooth="yes"/>
      <point x="595.46" y="446.36"/>
      <point x="555.8000000000001" y="417.78"/>
      <point x="491.58" y="417.78" type="curve" smooth="yes"/>
    </contour>
    <contour>
      <point x="275.35999999999996" y="138.08" type="curve"/>
      <point x="275.35999999999996" y="290.42" type="line"/>
      <point x="490.74" y="290.42" type="line" smooth="yes"/>
      <point x="589.6600000000001" y="290.42"/>
      <point x="629.3600000000001" y="266.02000000000004"/>
      <point x="629.3600000000001" y="214.18" type="curve" smooth="yes"/>
      <point x="629.3600000000001" y="153.33999999999997"/>
      <point x="586.06" y="132.09999999999997"/>
      <point x="428.35999999999996" y="132.09999999999997" type="curve" smooth="yes"/>
      <point x="389.96" y="132.09999999999997"/>
      <point x="342.47999999999996" y="133.98000000000002"/>
    </contour>
  </outline>
</glyph>
<glyph name="C" format="2">
  <advance width="844.5899999999999"/>
  <unicode hex="0043"/>
  <anchor x="464.48" y="700.0" name="top"/>
  <anchor x="456.47999999999996" y="0.0" name="bottom"/>
  <outline>
    <contour>
      <point x="41.370000000000005" y="334.74" type="curve" smooth="yes"/>
      <point x="41.370000000000005" y="87.67"/>
      <point x="189.8" y="-10.0"/>
      <point x="466.55" y="-10.0" type="curve" smooth="yes"/>
      <point x="623.6899999999999" y="-10.0"/>
      <point x="717.6199999999999" y="8.309999999999997"/>
      <point x="806.6" y="33.63" type="curve"/>
      <point x="771.24" y="173.1" type="line"/>
      <point x="685.9099999999999" y="153.39999999999998"/>
      <point x="586.3900000000001" y="140.72"/>
      <point x="497.02" y="140.72" type="curve" smooth="yes"/>
      <point x="322.2699999999999" y="140.72"/>
      <point x="245.74999999999997" y="199.25"/>
      <point x="245.74999999999997" y="339.08" type="curve" smooth="yes"/>
      <point x="245.74999999999997" y="492.61000000000007"/>
      <point x="322.06" y="556.95"/>
      <point x="504.09999999999997" y="556.95" type="curve" smooth="yes"/>
      <point x="581.4899999999999" y="556.95"/>
      <point x="658.32" y="548.02"/>
      <point x="746.27" y="530.5400000000001" type="curve"/>
      <point x="785.62" y="674.4" type="line"/>
      <point x="692.66" y="699.8100000000001"/>
      <point x="621.16" y="710.0"/>
      <point x="490.98999999999995" y="710.0" type="curve" smooth="yes"/>
      <point x="196.64" y="710.0"/>
      <point x="41.370000000000005" y="595.68"/>
    </contour>
  </outline>
</glyph>
<glyph name="D" format="2">
  <advance width="917.72"/>
  <unicode hex="0044"/>
  <anchor x="454.55999999999995" y="700.0" name="top"/>
  <outline>
    <contour>
      <point x="444.9" y="-10.0" type="curve" smooth="yes"/>
      <point x="725.96" y="-10.0"/>
      <point x="876.26" y="106.96"/>
      <point x="876.26" y="346.4" type="curve" smooth="yes"/>
      <point x="876.26" y="598.86"/>
      <point x="739.68" y="710.0"/>
      <point x="426.4999999999999" y="710.0" type="curve" smooth="yes"/>
      <point x="304.97999999999996" y="710.0"/>
      <point x="204.36" y="706.9999999999999"/>
      <point x="75.24" y="699.7600000000001" type="curve"/>
      <point x="75.24" y="-0.600000000000001" type="line"/>
      <point x="190.42" y="-4.959999999999999"/>
      <point x="301.79999999999995" y="-10.0"/>
    </contour>
    <contour>
      <point x="456.67999999999995" y="129.3" type="curve" smooth="yes"/>
      <point x="393.97999999999996" y="129.3"/>
      <point x="332.58" y="132.06"/>
      <point x="275.24" y="134.54" type="curve"/>
      <point x="275.24" y="565.96" type="line"/>
      <point x="322.4" y="569.1400000000001"/>
      <point x="387.69999999999993" y="570.74"/>
      <point x="447.29999999999995" y="570.74" type="curve" smooth="yes"/>
      <point x="595.8199999999999" y="570.74"/>
      <point x="671.92" y="503.9000000000001"/>
      <point x="671.92" y="347.06" type="curve" smooth="yes"/>
      <point x="671.92" y="200.36"/>
      <point x="591.4000000000001" y="129.3"/>
    </contour>
  </outline>
</glyph>
<glyph name="E" format="2">
  <advance width="805.7399999999999"/>
  <unicode hex="0045"/>
  <anchor x="769.76" y="0.0" name="ogonek"/>
  <anchor x="422.52" y="0.0" name="bottom"/>
  <anchor x="426.74" y="700.0" name="top"/>
  <outline>
    <contour>
      <point x="75.24" y="0.0" type="line"/>
      <point x="770.06" y="0.0" type="line"/>
      <point x="770.06" y="151.35999999999999" type="line"/>
      <point x="272.86" y="151.35999999999999" type="line"/>
      <point x="272.86" y="287.76" type="line"/>
      <point x="718.0000000000001" y="287.76" type="line"/>
      <point x="718.0000000000001" y="429.12" type="line"/>
      <point x="272.86" y="429.12" type="line"/>
      <point x="272.86" y="548.04" type="line"/>
      <point x="746.52" y="548.04" type="line"/>
      <point x="746.52" y="700.0" type="line"/>
      <point x="75.24" y="700.0" type="line"/>
    </contour>
  </outline>
</glyph>
<glyph name="F" format="2">
  <advance width="764.34"/>
  <unicode hex="0046"/>
  <outline>
    <contour>
      <point x="75.24" y="0.0" type="line"/>
      <point x="275.78" y="0.0" type="line"/>
      <point x="275.78" y="223.04000000000002" type="line"/>
      <point x="682.72" y="223.04000000000002" type="line"/>
      <point x="682.72" y="374.29999999999995" type="line"/>
      <point x="275.24" y="374.29999999999995" type="line"/>
      <point x="275.24" y="543.2399999999999" type="line"/>
      <point x="741.1999999999999" y="543.2399999999999" type="line"/>
      <point x="741.1999999999999" y="700.0" type="line"/>
      <point x="75.24" y="700.0" type="line"/>
    </contour>
  </outline>
</glyph>
<glyph name="G" format="2">
  <advance width="880.0799999999999"/>
  <unicode hex="0047"/>
  <anchor x="460.35" y="700.0" name="top"/>
  <anchor x="455.35" y="0.0" name="bottom"/>
  <outline>
    <contour>
      <point x="41.370000000000005" y="335.15999999999997" type="curve" smooth="yes"/>
      <point x="41.370000000000005" y="103.26"/>
      <point x="177.49" y="-10.0"/>
      <point x="449.19000000000005" y="-10.0" type="curve" smooth="yes"/>
      <point x="595.56" y="-10.0"/>
      <point x="721.14" y="9.870000000000001"/>
      <point x="822.4399999999999" y="50.5" type="curve"/>
      <point x="822.4399999999999" y="395.41999999999996" type="line"/>
      <point x="470.15" y="395.41999999999996" type="line"/>
      <point x="470.15" y="260.5" type="line"/>
      <point x="645.43" y="260.5" type="line"/>
      <point x="645.43" y="149.27" type="line"/>
      <point x="602.44" y="137.17"/>
      <point x="545.6700000000001" y="130.78"/>
      <point x="481.68999999999994" y="130.78" type="curve" smooth="yes"/>
      <point x="326.02000000000004" y="130.78"/>
      <point x="245.32999999999998" y="191.51"/>
      <point x="245.32999999999998" y="337.60999999999996" type="curve" smooth="yes"/>
      <point x="245.32999999999998" y="487.12"/>
      <point x="325.25" y="557.37"/>
      <point x="496.74999999999994" y="557.37" type="curve" smooth="yes"/>
      <point x="572.53" y="557.37"/>
      <point x="660.2800000000001" y="547.32"/>
      <point x="752.7800000000001" y="527.6" type="curve"/>
      <point x="789.82" y="671.46" type="line"/>
      <point x="691.74" y="698.5999999999999"/>
      <point x="607.2199999999999" y="710.0"/>
      <point x="484.68999999999994" y="710.0" type="curve" smooth="yes"/>
      <point x="189.85" y="710.0"/>
      <point x="41.370000000000005" y="584.31"/>
    </contour>
  </outline>
</glyph>
<glyph name="H" format="2">
  <advance width="934.78"/>
  <unicode hex="0048"/>
  <anchor x="467.59999999999997" y="700.0" name="top"/>
  <outline>
    <contour>
      <point x="75.06" y="0.0" type="line"/>
      <point x="274.61" y="0.0" type="line"/>
      <point x="274.61" y="238.36" type="line"/>
      <point x="660.17" y="238.36" type="line"/>
      <point x="660.17" y="0.0" type="line"/>
      <point x="859.7199999999999" y="0.0" type="line"/>
      <point x="859.7199999999999" y="700.0" type="line"/>
      <point x="660.17" y="700.0" type="line"/>
      <point x="660.17" y="400.72" type="line"/>
      <point x="274.61" y="400.72" type="line"/>
      <point x="274.61" y="700.0" type="line"/>
      <point x="75.06" y="700.0" type="line"/>
    </contour>
  </outline>
</glyph>
<glyph name="I" format="2">
  <advance width="349.66999999999996"/>
  <unicode hex="0049"/>
  <anchor x="274.61" y="0.0" name="ogonek"/>
  <anchor x="174.94" y="0.0" name="bottom"/>
  <anchor x="174.94" y="700.0" name="top"/>
  <outline>
    <contour>
      <point x="75.06" y="0.0" type="line"/>
      <point x="274.61" y="0.0" type="line"/>
      <point x="274.61" y="700.0" type="line"/>
      <point x="75.06" y="700.0" type="line"/>
    </contour>
  </outline>
</glyph>
<glyph name="J" format="2">
  <advance width="694.38"/>
  <unicode hex="004A"/>
  <anchor x="351.41" y="700.0" name="top"/>
  <outline>
    <contour>
      <point x="12.419999999999998" y="33.260000000000005" type="line"/>
      <point x="119.06" y="3.6899999999999995"/>
      <point x="229.84999999999997" y="-10.209999999999999"/>
      <point x="325.21" y="-10.209999999999999" type="curve" smooth="yes"/>
      <point x="538.34" y="-10.209999999999999"/>
      <point x="629.92" y="76.04"/>
      <point x="629.92" y="260.46000000000004" type="curve" smooth="yes"/>
      <point x="629.92" y="700.0" type="line"/>
      <point x="76.03999999999999" y="700.0" type="line"/>
      <point x="76.03999999999999" y="541.6999999999999" type="line"/>
      <point x="430.37" y="541.6999999999999" type="line"/>
      <point x="430.37" y="291.69" type="line" smooth="yes"/>
      <point x="430.37" y="182.56"/>
      <point x="380.48" y="142.42"/>
      <point x="275.93" y="142.42" type="curve" smooth="yes"/>
      <point x="218.09" y="142.42"/>
      <point x="139.07" y="155.39"/>
      <point x="51.089999999999996" y="176.35" type="curve"/>
    </contour>
  </outline>
</glyph>
<glyph name="K" format="2">
  <advance width="888.3"/>
  <unicode hex="004B"/>
  <anchor x="442.49999999999994" y="700.0" name="top"/>
  <anchor x="439.8999999999999" y="0.0" name="bottom"/>
  <outline>
    <contour>
      <point x="832.5" y="-10.0" type="curve" smooth="yes"/>
      <point x="840.6999999999998" y="-10.0"/>
      <point x="850.2" y="-9.8"/>
      <point x="860.1999999999999" y="-8.3" type="curve"/>
      <point x="860.1999999999999" y="169.29999999999998" type="line"/>
      <point x="852.5999999999999" y="168.79999999999998"/>
      <point x="845.1999999999999" y="168.79999999999998"/>
      <point x="838.5999999999999" y="168.79999999999998" type="curve" smooth="yes"/>
      <point x="777.1999999999999" y="169.0"/>
      <point x="718.3999999999999" y="189.8"/>
      <point x="611.5999999999999" y="256.29999999999995" type="curve" smooth="yes"/>
      <point x="267.1" y="470.8999999999999" type="line"/>
      <point x="267.1" y="700.0" type="line"/>
      <point x="79.0" y="700.0" type="line"/>
      <point x="79.0" y="0.0" type="line"/>
      <point x="267.1" y="0.0" type="line"/>
      <point x="267.1" y="269.6" type="line"/>
      <point x="578.0000000000001" y="73.0" type="line" smooth="yes"/>
      <point x="674.4000000000001" y="12.200000000000003"/>
      <point x="755.1999999999999" y="-10.0"/>
    </contour>
    <contour>
      <point x="437.1999999999999" y="303.1" type="line"/>
      <point x="607.9" y="376.7"/>
      <point x="766.6999999999999" y="486.29999999999995"/>
      <point x="851.0999999999999" y="626.5999999999999" type="curve"/>
      <point x="707.9000000000001" y="710.1" type="line"/>
      <point x="606.9000000000001" y="563.8"/>
      <point x="438.20000000000005" y="451.3999999999999"/>
      <point x="310.5" y="388.7" type="curve"/>
    </contour>
  </outline>
</glyph>
<glyph name="L" format="2">
  <advance width="746.9999999999999"/>
  <unicode hex="004C"/>
  <anchor x="373.71" y="350.0" name="center"/>
  <anchor x="174.94" y="700.0" name="top"/>
  <anchor x="450.25" y="700.0" name="topright"/>
  <anchor x="397.10999999999996" y="0.0" name="bottom"/>
  <outline>
    <contour>
      <point x="75.06" y="0.0" type="line"/>
      <point x="721.3" y="0.0" type="line"/>
      <point x="721.3" y="160.89" type="line"/>
      <point x="274.82" y="160.89" type="line"/>
      <point x="274.82" y="700.0" type="line"/>
      <point x="75.06" y="700.0" type="line"/>
    </contour>
  </outline>
</glyph>
<glyph name="M" format="2">
  <advance width="1031.7299999999998"/>
  <unicode hex="004D"/>
  <outline>
    <contour>
      <point x="75.25999999999999" y="0.0" type="line"/>
      <point x="258.78" y="0.0" type="line"/>
      <point x="258.78" y="452.86000000000007" type="line"/>
      <point x="468.72" y="158.15000000000003" type="line"/>
      <point x="557.8899999999999" y="158.15000000000003" type="line"/>
      <point x="772.9499999999999" y="459.44" type="line"/>
      <point x="772.9499999999999" y="0.0" type="line"/>
      <point x="956.47" y="0.0" type="line"/>
      <point x="956.47" y="700.0" type="line"/>
      <point x="763.8" y="700.0" type="line"/>
      <point x="519.5799999999999" y="353.21000000000004" type="line"/>
      <point x="278.78" y="700.0" type="line"/>
      <point x="75.25999999999999" y="700.0" type="line"/>
    </contour>
  </outline>
</glyph>
<glyph name="N" format="2">
  <advance width="893.9"/>
  <unicode hex="004E"/>
  <anchor x="447.3" y="700.0" name="top"/>
  <anchor x="447.3" y="0.0" name="bottom"/>
  <outline>
    <contour>
      <point x="75.04999999999998" y="0.0" type="line"/>
      <point x="254.95" y="0.0" type="line"/>
      <point x="254.95" y="427.5" type="line"/>
      <point x="641.3" y="-0.6000000000000002" type="line"/>
      <point x="818.8499999999998" y="-0.6000000000000002" type="line"/>
      <point x="818.8499999999998" y="700.0" type="line"/>
      <point x="639.15" y="700.0" type="line"/>
      <point x="639.15" y="258.25000000000006" type="line"/>
      <point x="253.14999999999998" y="702.1" type="line"/>
      <point x="75.04999999999998" y="702.1" type="line"/>
    </contour>
  </outline>
</glyph>
<glyph name="O" format="2">
  <advance width="940.15"/>
  <unicode hex="004F"/>
  <anchor x="570.75" y="1.0499999999999998" name="ogonek"/>
  <anchor x="469.84999999999985" y="700.0" name="top"/>
  <anchor x="736.4499999999998" y="683.9499999999999" name="topright"/>
  <anchor x="470.5" y="0.0" name="bottom"/>
  <outline>
    <contour>
      <point x="470.1999999999998" y="129.5" type="curve" smooth="yes"/>
      <point x="343.84999999999997" y="129.5"/>
      <point x="244.85" y="181.79999999999998"/>
      <point x="244.85" y="350.55" type="curve" smooth="yes"/>
      <point x="244.85" y="520.3"/>
      <point x="341.79999999999995" y="571.1"/>
      <point x="470.1999999999998" y="571.1" type="curve" smooth="yes"/>
      <point x="602.05" y="571.1"/>
      <point x="695.0499999999998" y="516.4"/>
      <point x="695.0499999999998" y="350.90000000000003" type="curve" smooth="yes"/>
      <point x="695.0499999999998" y="185.09999999999997"/>
      <point x="601.3" y="129.5"/>
    </contour>
    <contour>
      <point x="470.5" y="-10.0" type="curve" smooth="yes"/>
      <point x="738.0500000000001" y="-10.0"/>
      <point x="898.3499999999999" y="88.04999999999998"/>
      <point x="898.3499999999999" y="353.65" type="curve" smooth="yes"/>
      <point x="898.3499999999999" y="608.8"/>
      <point x="746.6500000000001" y="710.0"/>
      <point x="470.1999999999998" y="710.0" type="curve" smooth="yes"/>
      <point x="192.25" y="710.0"/>
      <point x="41.800000000000004" y="607.7"/>
      <point x="41.800000000000004" y="351.55" type="curve" smooth="yes"/>
      <point x="41.800000000000004" y="91.3"/>
      <point x="203.39999999999998" y="-10.0"/>
    </contour>
  </outline>
</glyph>
<glyph name="P" format="2">
  <advance width="886.0500000000001"/>
  <unicode hex="0050"/>
  <outline>
    <contour>
      <point x="75.06" y="0.0" type="line"/>
      <point x="274.82" y="0.0" type="line"/>
      <point x="274.82" y="193.85" type="line"/>
      <point x="394.50999999999993" y="190.12"/>
      <point x="382.21" y="189.91"/>
      <point x="497.04999999999995" y="189.91" type="curve" smooth="yes"/>
      <point x="766.83" y="189.91"/>
      <point x="855.21" y="263.39"/>
      <point x="855.21" y="454.10999999999996" type="curve" smooth="yes"/>
      <point x="855.21" y="641.2299999999999"/>
      <point x="775.02" y="710.0"/>
      <point x="440.05999999999995" y="710.0" type="curve" smooth="yes"/>
      <point x="388.78999999999996" y="710.0"/>
      <point x="268.81" y="707.72"/>
      <point x="75.06" y="700.7800000000001" type="curve"/>
    </contour>
    <contour>
      <point x="275.03" y="563.4" type="line"/>
      <point x="376.92" y="567.94"/>
      <point x="402.2099999999999" y="568.45"/>
      <point x="455.9" y="568.45" type="curve" smooth="yes"/>
      <point x="613.14" y="568.45"/>
      <point x="652.0200000000001" y="533.62"/>
      <point x="652.0200000000001" y="455.87" type="curve" smooth="yes"/>
      <point x="652.0200000000001" y="366.04"/>
      <point x="621.41" y="332.48"/>
      <point x="421.12" y="332.48" type="curve" smooth="yes"/>
      <point x="371.94" y="332.48"/>
      <point x="343.40000000000003" y="333.6"/>
      <point x="275.03" y="336.7" type="curve"/>
    </contour>
  </outline>
</glyph>
<glyph name="Q" format="2">
  <advance width="940.36"/>
  <unicode hex="0051"/>
  <outline>
    <contour>
      <point x="657.24" y="33.879999999999995" type="curve"/>
      <point x="479.4000000000001" y="5.44" type="line"/>
      <point x="537.22" y="-129.6"/>
      <point x="615.98" y="-199.47"/>
      <point x="734.55" y="-199.47" type="curve" smooth="yes"/>
      <point x="773.4299999999998" y="-199.47"/>
      <point x="816.1199999999999" y="-192.51999999999998"/>
      <point x="860.1299999999999" y="-177.41" type="curve"/>
      <point x="838.3499999999999" y="-33.19000000000001" type="line"/>
      <point x="815.6899999999999" y="-42.040000000000006"/>
      <point x="793.1499999999999" y="-46.220000000000006"/>
      <point x="771.9499999999998" y="-46.220000000000006" type="curve" smooth="yes"/>
      <point x="723.49" y="-46.220000000000006"/>
      <point x="687.45" y="-17.97000000000002"/>
    </contour>
    <component base="O"/>
  </outline>
</glyph>
<glyph name="R" format="2">
  <advance width="923.5999999999999"/>
  <unicode hex="0052"/>
  <anchor x="455.8999999999999" y="700.0" name="top"/>
  <anchor x="463.79999999999995" y="0.0" name="bottom"/>
  <outline>
    <contour>
      <point x="861.4999999999999" y="-10.0" type="curve" smooth="yes"/>
      <point x="876.0999999999999" y="-10.0"/>
      <point x="888.8" y="-9.0"/>
      <point x="897.8" y="-7.8" type="curve"/>
      <point x="897.9" y="160.70000000000002" type="line"/>
      <point x="891.9999999999999" y="160.4"/>
      <point x="883.7999999999998" y="159.9"/>
      <point x="878.4999999999999" y="159.9" type="curve" smooth="yes"/>
      <point x="815.1999999999999" y="159.9"/>
      <point x="729.0999999999999" y="217.29999999999998"/>
      <point x="640.0999999999999" y="280.0" type="curve"/>
      <point x="766.6999999999999" y="304.2"/>
      <point x="847.0999999999999" y="361.6"/>
      <point x="847.0999999999999" y="492.0" type="curve" smooth="yes"/>
      <point x="847.0999999999999" y="647.9999999999999"/>
      <point x="738.8" y="709.8"/>
      <point x="437.09999999999997" y="709.8" type="curve" smooth="yes"/>
      <point x="349.40000000000003" y="709.8"/>
      <point x="238.29999999999998" y="706.8999999999999"/>
      <point x="79.0" y="700.1999999999999" type="curve"/>
      <point x="79.0" y="0.0" type="line"/>
      <point x="267.2" y="0.0" type="line"/>
      <point x="267.2" y="234.8" type="line"/>
      <point x="307.49999999999994" y="233.7"/>
      <point x="349.6000000000001" y="233.19999999999996"/>
      <point x="384.79999999999995" y="233.19999999999996" type="curve" smooth="yes"/>
      <point x="397.2999999999999" y="233.19999999999996"/>
      <point x="419.5" y="232.90000000000003"/>
      <point x="432.2" y="233.00000000000003" type="curve"/>
      <point x="580.9" y="90.60000000000001"/>
      <point x="733.4999999999999" y="-10.0"/>
    </contour>
    <contour>
      <point x="441.49999999999994" y="362.5" type="curve" smooth="yes"/>
      <point x="377.5" y="362.5"/>
      <point x="333.69999999999993" y="364.0"/>
      <point x="267.2" y="366.7" type="curve"/>
      <point x="267.2" y="570.4" type="line"/>
      <point x="350.99999999999994" y="574.7"/>
      <point x="373.5" y="574.9000000000001"/>
      <point x="444.29999999999995" y="574.9000000000001" type="curve" smooth="yes"/>
      <point x="604.8" y="574.9000000000001"/>
      <point x="654.0" y="547.6000000000001"/>
      <point x="654.0" y="469.70000000000005" type="curve" smooth="yes"/>
      <point x="654.0" y="389.90000000000003"/>
      <point x="601.6" y="362.5"/>
    </contour>
  </outline>
</glyph>
<glyph name="S" format="2">
  <advance width="820.1999999999999"/>
  <unicode hex="0053"/>
  <anchor x="416.1" y="700.0" name="top"/>
  <anchor x="403.78" y="0.0" name="bottom"/>
  <outline>
    <contour>
      <point x="748.18" y="671.38" type="line"/>
      <point x="684.6800000000002" y="687.1999999999999"/>
      <point x="562.9399999999999" y="710.0"/>
      <point x="427.3" y="710.0" type="curve" smooth="yes"/>
      <point x="164.49999999999997" y="710.0"/>
      <point x="42.03999999999999" y="633.22"/>
      <point x="42.03999999999999" y="488.68" type="curve" smooth="yes"/>
      <point x="42.03999999999999" y="372.40000000000003"/>
      <point x="122.99999999999997" y="316.64"/>
      <point x="284.24" y="285.23999999999995" type="curve" smooth="yes"/>
      <point x="486.91999999999996" y="249.80000000000004"/>
      <point x="582.8599999999999" y="244.64"/>
      <point x="582.8599999999999" y="195.06" type="curve" smooth="yes"/>
      <point x="582.8599999999999" y="151.02"/>
      <point x="534.02" y="128.14"/>
      <point x="411.14" y="128.14" type="curve" smooth="yes"/>
      <point x="295.03999999999996" y="128.14"/>
      <point x="150.32" y="153.07999999999998"/>
      <point x="50.739999999999995" y="184.70000000000002" type="curve"/>
      <point x="14.580000000000002" y="42.83999999999999" type="line"/>
      <point x="112.85999999999999" y="12.559999999999999"/>
      <point x="262.58000000000004" y="-10.0"/>
      <point x="389.48" y="-10.0" type="curve" smooth="yes"/>
      <point x="649.8000000000001" y="-10.0"/>
      <point x="794.6200000000001" y="60.63999999999999"/>
      <point x="794.6200000000001" y="212.7" type="curve" smooth="yes"/>
      <point x="794.6200000000001" y="337.22"/>
      <point x="703.54" y="388.25999999999993"/>
      <point x="505.36" y="419.0" type="curve" smooth="yes"/>
      <point x="320.34" y="447.3"/>
      <point x="253.70000000000005" y="454.65999999999997"/>
      <point x="253.70000000000005" y="502.82000000000005" type="curve" smooth="yes"/>
      <point x="253.70000000000005" y="547.12"/>
      <point x="308.92" y="569.42"/>
      <point x="417.7799999999999" y="569.42" type="curve" smooth="yes"/>
      <point x="527.8399999999999" y="569.42"/>
      <point x="656.14" y="548.72"/>
      <point x="714.12" y="530.3" type="curve"/>
    </contour>
  </outline>
</glyph>
<glyph name="T" format="2">
  <advance width="810.9399999999999"/>
  <unicode hex="0054"/>
  <anchor x="405.46999999999997" y="700.0" name="top"/>
  <anchor x="405.46999999999997" y="0.0" name="bottom"/>
  <outline>
    <contour>
      <point x="789.9799999999999" y="538.48" type="line"/>
      <point x="789.9799999999999" y="700.0" type="line"/>
      <point x="20.959999999999997" y="700.0" type="line"/>
      <point x="20.959999999999997" y="538.48" type="line"/>
      <point x="305.8" y="538.48" type="line"/>
      <point x="305.8" y="0.0" type="line"/>
      <point x="505.35" y="0.0" type="line"/>
      <point x="505.35" y="538.48" type="line"/>
    </contour>
  </outline>
</glyph>
<glyph name="U" format="2">
  <advance width="908.8"/>
  <unicode hex="0055"/>
  <anchor x="553.04" y="0.42000000000000004" name="ogonek"/>
  <anchor x="454.54999999999995" y="700.0" name="top"/>
  <anchor x="844.3399999999999" y="700.0" name="topright"/>
  <anchor x="454.54999999999995" y="0.0" name="bottom"/>
  <outline>
    <contour>
      <point x="64.46" y="259.47999999999996" type="line"/>
      <point x="64.46" y="66.39999999999999"/>
      <point x="207.84" y="-10.0"/>
      <point x="454.13" y="-10.0" type="curve" smooth="yes"/>
      <point x="701.89" y="-10.0"/>
      <point x="844.3399999999999" y="66.39999999999999"/>
      <point x="844.3399999999999" y="259.47999999999996" type="curve" smooth="yes"/>
      <point x="844.3399999999999" y="700.0" type="line"/>
      <point x="648.29" y="700.0" type="line"/>
      <point x="648.29" y="269.90999999999997" type="line" smooth="yes"/>
      <point x="648.29" y="173.69"/>
      <point x="568.69" y="137.19"/>
      <point x="455.6" y="137.19" type="curve" smooth="yes"/>
      <point x="346.15" y="137.19"/>
      <point x="260.09" y="169.28"/>
      <point x="260.09" y="269.90999999999997" type="curve" smooth="yes"/>
      <point x="260.09" y="700.0" type="line"/>
      <point x="64.46" y="700.0" type="line"/>
    </contour>
  </outline>
</glyph>
<glyph name="V" format="2">
  <advance width="852.6699999999998"/>
  <unicode hex="0056"/>
  <outline>
    <contour>
      <point x="317.89" y="0.0" type="line"/>
      <point x="536.5500000000001" y="0.0" type="line"/>
      <point x="852.9699999999999" y="698.95" type="line"/>
      <point x="635.04" y="701.64" type="line"/>
      <point x="428.19999999999993" y="162.7" type="line"/>
      <point x="219.5" y="701.64" type="line"/>
      <point x="-0.2999999999999998" y="698.95" type="line"/>
    </contour>
  </outline>
</glyph>
<glyph name="W" format="2">
  <advance width="1065.4"/>
  <unicode hex="0057"/>
  <anchor x="532.6499999999999" y="700.0" name="top"/>
  <anchor x="532.6499999999999" y="0.0" name="bottom"/>
  <outline>
    <contour>
      <point x="865.8799999999999" y="0.0" type="line"/>
      <point x="1063.2399999999998" y="699.47" type="line"/>
      <point x="850.3300000000002" y="701.12" type="line"/>
      <point x="767.84" y="194.76999999999998" type="line"/>
      <point x="630.5899999999999" y="661.74" type="line"/>
      <point x="442.5999999999999" y="661.74" type="line"/>
      <point x="297.02" y="193.20999999999998" type="line"/>
      <point x="212.13" y="701.12" type="line"/>
      <point x="2.160000000000002" y="699.47" type="line"/>
      <point x="193.62" y="0.0" type="line"/>
      <point x="385.4" y="0.0" type="line"/>
      <point x="528.5300000000001" y="425.74999999999994" type="line"/>
      <point x="661.31" y="0.0" type="line"/>
    </contour>
  </outline>
</glyph>
<glyph name="X" format="2">
  <advance width="812.6599999999999"/>
  <unicode hex="0058"/>
  <outline>
    <contour>
      <point x="3.1599999999999993" y="1.7200000000000002" type="line"/>
      <point x="243.53999999999996" y="-2.1799999999999993" type="line"/>
      <point x="408.91999999999996" y="249.16000000000003" type="line"/>
      <point x="571.4000000000001" y="-2.1799999999999993" type="line"/>
      <point x="808.42" y="1.7200000000000002" type="line"/>
      <point x="538.0999999999999" y="361.81999999999994" type="line"/>
      <point x="793.8199999999998" y="698.2800000000001" type="line"/>
      <point x="571.2199999999999" y="701.2799999999999" type="line"/>
      <point x="414.36000000000007" y="469.29999999999995" type="line"/>
      <point x="264.96000000000004" y="701.8799999999999" type="line"/>
      <point x="25.439999999999998" y="698.2800000000001" type="line"/>
      <point x="285.05999999999995" y="360.24" type="line"/>
    </contour>
  </outline>
</glyph>
<glyph name="Y" format="2">
  <advance width="846.3999999999999"/>
  <unicode hex="0059"/>
  <anchor x="423.28999999999996" y="700.0" name="top"/>
  <anchor x="424.67" y="0.0" name="bottom"/>
  <outline>
    <contour>
      <point x="324.88" y="0.0" type="line"/>
      <point x="524.43" y="0.0" type="line"/>
      <point x="524.43" y="248.50000000000003" type="line"/>
      <point x="846.63" y="698.0500000000001" type="line"/>
      <point x="625.84" y="701.9499999999999" type="line"/>
      <point x="425.73999999999995" y="360.23999999999995" type="line"/>
      <point x="222.15999999999997" y="701.9499999999999" type="line"/>
      <point x="-0.589999999999999" y="698.0500000000001" type="line"/>
      <point x="324.88" y="248.50000000000003" type="line"/>
    </contour>
  </outline>
</glyph>
<glyph name="Z" format="2">
  <advance width="811.5"/>
  <unicode hex="005A"/>
  <anchor x="406.5" y="350.0" name="center"/>
  <anchor x="406.5" y="0.0" name="bottom"/>
  <anchor x="408.57" y="700.0" name="top"/>
  <outline>
    <contour>
      <point x="31.209999999999997" y="0.0" type="line"/>
      <point x="782.33" y="0.0" type="line"/>
      <point x="782.33" y="145.29000000000002" type="line"/>
      <point x="304.52" y="145.29000000000002" type="line"/>
      <point x="304.52" y="147.02" type="line"/>
      <point x="750.88" y="564.3" type="line"/>
      <point x="750.88" y="700.0" type="line"/>
      <point x="52.57" y="700.0" type="line"/>
      <point x="52.57" y="555.01" type="line"/>
      <point x="484.84999999999997" y="555.01" type="line"/>
      <point x="484.84999999999997" y="552.98" type="line"/>
      <point x="31.209999999999997" y="136.00000000000003" type="line"/>
    </contour>
  </outline>
</glyph>
<glyph name="bracketleft" format="2">
  <advance width="408.44000000000005"/>
  <unicode hex="005B"/>
  <outline>
    <contour>
      <point x="203.98" y="-95.5" type="line"/>
      <point x="203.98" y="625.5" type="line"/>
      <point x="377.94" y="625.5" type="line"/>
      <point x="377.94" y="740.0" type="line"/>
      <point x="57.35" y="740.0" type="line"/>
      <point x="57.35" y="-210.0" type="line"/>
      <point x="377.94" y="-210.0" type="line"/>
      <point x="377.94" y="-95.5" type="line"/>
    </contour>
  </outline>
</glyph>
<glyph name="backslash" format="2">
  <advance width="507.87"/>
  <unicode hex="005C"/>
  <outline>
    <contour>
      <point x="153.16" y="740.0" type="line"/>
      <point x="5.08" y="740.0" type="line"/>
      <point x="354.92" y="-210.0" type="line"/>
      <point x="502.7899999999999" y="-210.0" type="line"/>
    </contour>
  </outline>
</glyph>
<glyph name="bracketright" format="2">
  <advance width="408.44000000000005"/>
  <unicode hex="005D"/>
  <outline>
    <contour>
      <point x="30.5" y="-95.5" type="line"/>
      <point x="30.5" y="-210.0" type="line"/>
      <point x="351.09" y="-210.0" type="line"/>
      <point x="351.09" y="740.0" type="line"/>
      <point x="30.5" y="740.0" type="line"/>
      <point x="30.5" y="625.5" type="line"/>
      <point x="204.45999999999998" y="625.5" type="line"/>
      <point x="204.45999999999998" y="-95.5" type="line"/>
    </contour>
  </outline>
</glyph>
<glyph name="asciicircum" format="2">
  <advance width="622.28"/>
  <unicode hex="005E"/>
  <outline>
    <contour>
      <point x="46.65" y="232.87" type="line"/>
      <point x="194.76999999999998" y="232.87" type="line"/>
      <point x="311.14" y="513.7700000000001" type="line"/>
      <point x="428.21" y="232.87" type="line"/>
      <point x="575.63" y="232.87" type="line"/>
      <point x="391.63" y="703.0" type="line"/>
      <point x="230.64999999999998" y="703.0" type="line"/>
    </contour>
  </outline>
</glyph>
<glyph name="underscore" format="2">
  <advance width="905.78"/>
  <unicode hex="005F"/>
  <outline>
    <contour>
      <point x="14.0" y="-187.59" type="line"/>
      <point x="891.78" y="-187.59" type="line"/>
      <point x="891.78" y="-63.99" type="line"/>
      <point x="14.0" y="-63.99" type="line"/>
    </contour>
  </outline>
</glyph>
<glyph name="a" format="2">
  <advance width="712.3999999999999"/>
  <unicode hex="0061"/>
  <anchor x="685.4" y="9.5" name="ogonek"/>
  <anchor x="355.6" y="0.0" name="bottom"/>
  <anchor x="353.0999999999999" y="544.0" name="top"/>
  <outline>
    <contour>
      <point x="35.7" y="151.6" type="curve" smooth="yes"/>
      <point x="35.7" y="41.199999999999996"/>
      <point x="115.39999999999998" y="-10.0"/>
      <point x="216.8" y="-10.0" type="curve" smooth="yes"/>
      <point x="321.1" y="-10.0"/>
      <point x="396.99999999999994" y="20.299999999999997"/>
      <point x="466.00000000000006" y="68.49999999999999" type="curve"/>
      <point x="484.99999999999994" y="10.3"/>
      <point x="530.4000000000001" y="-10.0"/>
      <point x="597.4000000000001" y="-10.0" type="curve" smooth="yes"/>
      <point x="639.7" y="-10.0"/>
      <point x="677.3999999999999" y="0.6999999999999987"/>
      <point x="706.4" y="19.4" type="curve"/>
      <point x="691.8000000000001" y="137.49999999999997" type="line"/>
      <point x="683.5" y="134.1"/>
      <point x="673.0999999999999" y="133.29999999999998"/>
      <point x="665.1999999999998" y="133.29999999999998" type="curve" smooth="yes"/>
      <point x="643.1" y="133.29999999999998"/>
      <point x="628.0" y="146.1"/>
      <point x="628.0" y="193.2" type="curve" smooth="yes"/>
      <point x="628.0" y="351.3" type="line" smooth="yes"/>
      <point x="628.0" y="488.4"/>
      <point x="532.7" y="554.0"/>
      <point x="323.99999999999994" y="554.0" type="curve" smooth="yes"/>
      <point x="241.99999999999997" y="554.0"/>
      <point x="149.10000000000002" y="539.4000000000001"/>
      <point x="72.29999999999998" y="519.1" type="curve"/>
      <point x="97.4" y="389.20000000000005" type="line"/>
      <point x="168.69999999999996" y="408.1"/>
      <point x="252.89999999999995" y="418.5"/>
      <point x="311.9" y="418.5" type="curve" smooth="yes"/>
      <point x="402.0999999999999" y="418.5"/>
      <point x="450.6" y="396.1"/>
      <point x="450.6" y="348.79999999999995" type="curve" smooth="yes"/>
      <point x="450.6" y="329.2" type="line"/>
      <point x="158.3" y="318.5"/>
      <point x="35.7" y="293.0"/>
    </contour>
    <contour>
      <point x="218.69999999999996" y="160.7" type="curve" smooth="yes"/>
      <point x="218.69999999999996" y="225.70000000000005"/>
      <point x="291.5" y="235.70000000000002"/>
      <point x="450.6000000000001" y="239.7" type="curve"/>
      <point x="450.6" y="155.00000000000003" type="line"/>
      <point x="405.5" y="119.10000000000001"/>
      <point x="331.59999999999997" y="98.80000000000001"/>
      <point x="287.79999999999995" y="98.80000000000001" type="curve" smooth="yes"/>
      <point x="244.99999999999997" y="98.80000000000001"/>
      <point x="218.69999999999996" y="117.89999999999999"/>
    </contour>
  </outline>
</glyph>
<glyph name="b" format="2">
  <advance width="746.2099999999999"/>
  <unicode hex="0062"/>
  <outline>
    <contour>
      <point x="60.45" y="20.03" type="line"/>
      <point x="177.25" y="0.3699999999999992"/>
      <point x="278.15" y="-10.0"/>
      <point x="362.04" y="-10.0" type="curve" smooth="yes"/>
      <point x="605.36" y="-10.0"/>
      <point x="711.75" y="77.57"/>
      <point x="711.75" y="283.14000000000004" type="curve" smooth="yes"/>
      <point x="711.75" y="457.28999999999996"/>
      <point x="626.95" y="554.0"/>
      <point x="477.79999999999995" y="554.0" type="curve" smooth="yes"/>
      <point x="400.34" y="554.0"/>
      <point x="330.03999999999996" y="532.82"/>
      <point x="250.2" y="484.65" type="curve"/>
      <point x="250.2" y="740.0" type="line"/>
      <point x="60.45" y="740.0" type="line"/>
    </contour>
    <contour>
      <point x="250.2" y="129.45" type="curve"/>
      <point x="250.2" y="364.20000000000005" type="line"/>
      <point x="309.01" y="395.34"/>
      <point x="355.78999999999996" y="408.6"/>
      <point x="401.75" y="408.6" type="curve" smooth="yes"/>
      <point x="476.0799999999999" y="408.6"/>
      <point x="517.73" y="364.37"/>
      <point x="517.73" y="271.87" type="curve" smooth="yes"/>
      <point x="517.73" y="160.59"/>
      <point x="467.46000000000004" y="114.87"/>
      <point x="366.41999999999996" y="114.87" type="curve" smooth="yes"/>
      <point x="331.31999999999994" y="114.87"/>
      <point x="291.44999999999993" y="119.6"/>
    </contour>
  </outline>
</glyph>
<glyph name="c" format="2">
  <advance width="676.79"/>
  <unicode hex="0063"/>
  <anchor x="379.65000000000003" y="544.0" name="top"/>
  <anchor x="379.73999999999995" y="0.0" name="bottom"/>
  <outline>
    <contour>
      <point x="34.760000000000005" y="258.62" type="curve" smooth="yes"/>
      <point x="34.760000000000005" y="77.78"/>
      <point x="147.23" y="-10.0"/>
      <point x="375.78999999999996" y="-10.0" type="curve" smooth="yes"/>
      <point x="466.83" y="-10.0"/>
      <point x="568.62" y="2.1500000000000012"/>
      <point x="651.7599999999999" y="21.970000000000006" type="curve"/>
      <point x="627.79" y="147.66" type="line"/>
      <point x="549.99" y="133.33999999999997"/>
      <point x="484.03999999999996" y="125.81"/>
      <point x="414.12999999999994" y="125.81" type="curve" smooth="yes"/>
      <point x="296.48999999999995" y="125.81"/>
      <point x="227.57999999999998" y="161.47"/>
      <point x="227.57999999999998" y="265.12999999999994" type="curve" smooth="yes"/>
      <point x="227.57999999999998" y="374.61"/>
      <point x="289.17" y="415.83000000000004"/>
      <point x="404.64000000000004" y="415.83000000000004" type="curve" smooth="yes"/>
      <point x="465.7499999999999" y="415.83000000000004"/>
      <point x="541.24" y="407.95000000000005"/>
      <point x="615.3900000000001" y="394.1" type="curve"/>
      <point x="637.5" y="527.33" type="line"/>
      <point x="568.9000000000001" y="543.9"/>
      <point x="476.18" y="554.0"/>
      <point x="393.85" y="554.0" type="curve" smooth="yes"/>
      <point x="164.29" y="554.0"/>
      <point x="34.760000000000005" y="451.66"/>
    </contour>
  </outline>
</glyph>
<glyph name="d" format="2">
  <advance width="747.12"/>
  <unicode hex="0064"/>
  <anchor x="375.61999999999995" y="275.0" name="center"/>
  <anchor x="367.20000000000005" y="740.0" name="top"/>
  <anchor x="745.12" y="740.0" name="topright"/>
  <anchor x="375.61999999999995" y="0.0" name="bottom"/>
  <outline>
    <contour>
      <point x="523.7400000000001" y="-2.0199999999999996" type="line"/>
      <point x="686.82" y="-2.0199999999999996" type="line"/>
      <point x="686.82" y="740.0" type="line"/>
      <point x="496.5" y="740.0" type="line"/>
      <point x="496.5" y="545.66" type="line"/>
      <point x="456.46000000000004" y="551.0799999999999"/>
      <point x="413.9" y="554.0"/>
      <point x="374.96" y="554.0" type="curve" smooth="yes"/>
      <point x="141.66" y="554.0"/>
      <point x="34.519999999999996" y="461.5399999999999"/>
      <point x="34.519999999999996" y="262.78" type="curve" smooth="yes"/>
      <point x="34.519999999999996" y="89.24000000000001"/>
      <point x="120.07999999999998" y="-10.0"/>
      <point x="267.24" y="-10.0" type="curve" smooth="yes"/>
      <point x="346.61999999999995" y="-10.0"/>
      <point x="416.62" y="11.000000000000002"/>
      <point x="496.81999999999994" y="59.62000000000001" type="curve"/>
    </contour>
    <contour>
      <point x="495.92" y="178.72" type="line"/>
      <point x="437.7999999999999" y="148.65999999999997"/>
      <point x="390.48" y="135.10000000000002"/>
      <point x="345.0" y="135.10000000000002" type="curve" smooth="yes"/>
      <point x="270.64" y="135.10000000000002"/>
      <point x="229.08" y="180.20000000000002"/>
      <point x="229.08" y="275.58" type="curve" smooth="yes"/>
      <point x="229.08" y="383.56"/>
      <point x="279.14000000000004" y="428.14000000000004"/>
      <point x="379.76" y="428.14000000000004" type="curve" smooth="yes"/>
      <point x="415.73999999999995" y="428.14000000000004"/>
      <point x="454.7599999999999" y="423.62"/>
      <point x="495.92" y="413.32" type="curve"/>
    </contour>
  </outline>
</glyph>
<glyph name="e" format="2">
  <advance width="710.6600000000001"/>
  <unicode hex="0065"/>
  <anchor x="614.6199999999999" y="13.659999999999998" name="ogonek"/>
  <anchor x="362.46000000000004" y="0.0" name="bottom"/>
  <anchor x="368.52" y="544.0" name="top"/>
  <outline>
    <contour>
      <point x="373.12" y="-10.0" type="curve" smooth="yes"/>
      <point x="489.42" y="-10.0"/>
      <point x="582.7800000000001" y="2.6600000000000015"/>
      <point x="669.88" y="25.939999999999994" type="curve"/>
      <point x="649.5799999999999" y="148.06" type="line"/>
      <point x="564.34" y="131.37999999999997"/>
      <point x="474.82000000000005" y="119.82"/>
      <point x="399.36" y="119.82" type="curve" smooth="yes"/>
      <point x="285.47999999999996" y="119.82"/>
      <point x="229.9" y="150.33999999999997"/>
      <point x="229.34" y="211.98000000000002" type="curve" smooth="yes"/>
      <point x="229.34" y="216.52"/>
      <point x="229.33999999999997" y="219.76000000000005"/>
      <point x="229.94" y="224.30000000000004" type="curve"/>
      <point x="428.38000000000005" y="227.26000000000002"/>
      <point x="586.76" y="239.14000000000001"/>
      <point x="670.68" y="244.08" type="curve"/>
      <point x="671.96" y="263.32"/>
      <point x="672.3800000000001" y="287.29999999999995"/>
      <point x="672.3800000000001" y="300.46000000000004" type="curve" smooth="yes"/>
      <point x="672.3800000000001" y="477.38"/>
      <point x="577.52" y="554.0"/>
      <point x="378.6" y="554.0" type="curve" smooth="yes"/>
      <point x="191.7" y="554.0"/>
      <point x="34.52" y="472.2800000000001"/>
      <point x="34.52" y="259.48" type="curve" smooth="yes"/>
      <point x="34.52" y="67.36"/>
      <point x="162.98" y="-10.0"/>
    </contour>
    <contour>
      <point x="231.12" y="327.4599999999999" type="curve"/>
      <point x="246.10000000000002" y="409.32"/>
      <point x="305.4" y="434.35999999999996"/>
      <point x="368.52" y="434.35999999999996" type="curve" smooth="yes"/>
      <point x="445.4799999999999" y="434.35999999999996"/>
      <point x="479.05999999999995" y="404.36"/>
      <point x="483.0999999999999" y="336.0" type="curve"/>
      <point x="440.3399999999999" y="333.5199999999999"/>
      <point x="338.5" y="328.61999999999995"/>
    </contour>
  </outline>
</glyph>
<glyph name="f" format="2">
  <advance width="511.02"/>
  <unicode hex="0066"/>
  <outline>
    <contour>
      <point x="113.13999999999999" y="0.0" type="line"/>
      <point x="300.09" y="0.0" type="line"/>
      <point x="300.09" y="368.33000000000004" type="line"/>
      <point x="485.70000000000005" y="368.33000000000004" type="line"/>
      <point x="485.70000000000005" y="493.45" type="line"/>
      <point x="300.3" y="493.45" type="line"/>
      <point x="300.3" y="507.0199999999999" type="line" smooth="yes"/>
      <point x="300.3" y="583.63"/>
      <point x="339.92" y="613.96"/>
      <point x="410.55" y="613.96" type="curve" smooth="yes"/>
      <point x="448.96" y="613.96"/>
      <point x="495.98" y="607.01"/>
      <point x="534.6400000000001" y="596.27" type="curve"/>
      <point x="557.4" y="720.18" type="line"/>
      <point x="496.09000000000003" y="740.5799999999999"/>
      <point x="433.48999999999995" y="750.21"/>
      <point x="369.11" y="750.21" type="curve" smooth="yes"/>
      <point x="205.54" y="750.21"/>
      <point x="113.13999999999999" y="669.6400000000001"/>
      <point x="113.13999999999999" y="510.3799999999999" type="curve" smooth="yes"/>
      <point x="113.13999999999999" y="493.45" type="line"/>
      <point x="18.35" y="480.59000000000003" type="line"/>
      <point x="18.35" y="368.33000000000004" type="line"/>
      <point x="113.13999999999999" y="368.33000000000004" type="line"/>
    </contour>
  </outline>
</glyph>
<glyph name="g" format="2">
  <advance width="734.14"/>
  <unicode hex="0067"/>
  <anchor x="350.3799999999999" y="544.0" name="top"/>
  <anchor x="342.28" y="-217.0" name="bottom"/>
  <outline>
    <contour>
      <point x="316.56" y="-220.0" type="curve" smooth="yes"/>
      <point x="588.0999999999999" y="-220.0"/>
      <point x="711.3199999999999" y="-149.16000000000003"/>
      <point x="711.3199999999999" y="-16.90000000000001" type="curve" smooth="yes"/>
      <point x="711.3199999999999" y="74.26"/>
      <point x="643.6" y="130.66"/>
      <point x="520.12" y="130.66" type="curve" smooth="yes"/>
      <point x="267.36000000000007" y="130.66" type="line" smooth="yes"/>
      <point x="220.83999999999995" y="130.66"/>
      <point x="198.04" y="143.8"/>
      <point x="198.04" y="170.6" type="curve" smooth="yes"/>
      <point x="198.04" y="193.82000000000002"/>
      <point x="213.8" y="208.36"/>
      <point x="243.34" y="222.62" type="curve"/>
      <point x="149.06" y="248.1" type="line"/>
      <point x="84.4" y="221.0"/>
      <point x="45.239999999999995" y="181.57999999999998"/>
      <point x="45.239999999999995" y="121.94000000000003" type="curve" smooth="yes"/>
      <point x="45.239999999999995" y="27.10000000000001"/>
      <point x="139.28" y="-5.479999999999996"/>
      <point x="282.5199999999999" y="-5.479999999999996" type="curve" smooth="yes"/>
      <point x="448.84" y="-5.479999999999996" type="line" smooth="yes"/>
      <point x="513.62" y="-5.479999999999996"/>
      <point x="530.4199999999998" y="-13.159999999999998"/>
      <point x="530.4199999999998" y="-40.98" type="curve" smooth="yes"/>
      <point x="530.4199999999998" y="-80.62"/>
      <point x="472.7599999999999" y="-104.78000000000002"/>
      <point x="334.68" y="-104.78000000000002" type="curve" smooth="yes"/>
      <point x="209.54000000000002" y="-104.78000000000002"/>
      <point x="167.73999999999998" y="-86.46000000000001"/>
      <point x="167.73999999999998" y="-44.28000000000001" type="curve" smooth="yes"/>
      <point x="167.73999999999998" y="-19.26"/>
      <point x="180.07999999999996" y="-2.559999999999995"/>
      <point x="219.81999999999996" y="11.000000000000002" type="curve"/>
      <point x="127.02000000000001" y="42.36000000000001" type="line"/>
      <point x="38.800000000000004" y="14.999999999999998"/>
      <point x="14.34" y="-29.419999999999998"/>
      <point x="14.34" y="-82.17999999999998" type="curve" smooth="yes"/>
      <point x="14.34" y="-174.2"/>
      <point x="114.71999999999998" y="-220.0"/>
    </contour>
    <contour>
      <point x="349.0" y="191.78" type="curve" smooth="yes"/>
      <point x="545.46" y="191.78"/>
      <point x="642.44" y="253.02"/>
      <point x="642.44" y="373.18" type="curve" smooth="yes"/>
      <point x="642.44" y="493.34"/>
      <point x="545.46" y="554.5799999999999"/>
      <point x="349.0" y="554.5799999999999" type="curve" smooth="yes"/>
      <point x="152.54" y="554.5799999999999"/>
      <point x="55.86" y="493.34"/>
      <point x="55.86" y="373.18" type="curve" smooth="yes"/>
      <point x="55.86" y="253.02"/>
      <point x="152.54" y="191.78"/>
    </contour>
    <contour>
      <point x="349.0" y="299.6" type="curve" smooth="yes"/>
      <point x="269.1" y="299.6"/>
      <point x="233.76000000000002" y="320.36000000000007"/>
      <point x="233.76000000000002" y="373.18" type="curve" smooth="yes"/>
      <point x="233.76000000000002" y="426.3"/>
      <point x="269.1" y="447.06"/>
      <point x="349.0" y="447.06" type="curve" smooth="yes"/>
      <point x="428.8999999999999" y="447.06"/>
      <point x="464.24" y="426.3"/>
      <point x="464.24" y="373.18" type="curve" smooth="yes"/>
      <point x="464.24" y="320.36000000000007"/>
      <point x="428.8999999999999" y="299.6"/>
    </contour>
    <contour>
      <point x="597.4000000000001" y="427.94" type="line"/>
      <point x="610.3" y="447.96"/>
      <point x="630.26" y="456.6000000000001"/>
      <point x="657.88" y="456.6000000000001" type="curve" smooth="yes"/>
      <point x="673.54" y="456.6000000000001"/>
      <point x="691.2800000000001" y="455.2"/>
      <point x="706.28" y="451.73999999999995" type="curve"/>
      <point x="724.1800000000001" y="578.8599999999999" type="line"/>
      <point x="705.82" y="582.88"/>
      <point x="687.6999999999999" y="584.7799999999999"/>
      <point x="665.34" y="584.7799999999999" type="curve" smooth="yes"/>
      <point x="589.8000000000001" y="584.7799999999999"/>
      <point x="541.42" y="556.2399999999999"/>
      <point x="524.4" y="499.7200000000001" type="curve"/>
    </contour>
  </outline>
</glyph>
<glyph name="h" format="2">
  <advance width="735.73"/>
  <unicode hex="0068"/>
  <anchor x="362.89000000000004" y="395.0" name="center"/>
  <anchor x="367.7900000000001" y="0.0" name="bottom"/>
  <anchor x="368.97999999999996" y="740.0" name="top"/>
  <outline>
    <contour>
      <point x="60.300000000000004" y="0.0" type="line"/>
      <point x="250.5" y="0.0" type="line"/>
      <point x="250.5" y="370.86" type="line"/>
      <point x="302.75" y="393.1"/>
      <point x="343.63" y="408.01000000000005"/>
      <point x="392.18999999999994" y="408.01000000000005" type="curve" smooth="yes"/>
      <point x="452.46" y="408.01000000000005"/>
      <point x="485.3499999999999" y="377.09"/>
      <point x="485.3499999999999" y="307.39" type="curve" smooth="yes"/>
      <point x="485.3499999999999" y="0.0" type="line"/>
      <point x="675.67" y="0.0" type="line"/>
      <point x="675.67" y="370.93" type="line" smooth="yes"/>
      <point x="675.67" y="479.42"/>
      <point x="608.7399999999999" y="554.0"/>
      <point x="470.4000000000001" y="554.0" type="curve" smooth="yes"/>
      <point x="389.84" y="554.0"/>
      <point x="328.87999999999994" y="531.67"/>
      <point x="250.5" y="490.7099999999999" type="curve"/>
      <point x="250.5" y="740.0" type="line"/>
      <point x="60.300000000000004" y="740.0" type="line"/>
    </contour>
  </outline>
</glyph>
<glyph name="i" format="2">
  <advance width="310.65"/>
  <unicode hex="0069"/>
  <anchor x="249.99" y="0.0" name="ogonek"/>
  <anchor x="155.43" y="0.0" name="bottom"/>
  <outline>
    <contour>
      <point x="155.43" y="601.89" type="curve" smooth="yes"/>
      <point x="237.19" y="601.89"/>
      <point x="269.03999999999996" y="628.58"/>
      <point x="269.03999999999996" y="683.99" type="curve" smooth="yes"/>
      <point x="269.03999999999996" y="739.8199999999999"/>
      <point x="236.76999999999998" y="766.3"/>
      <point x="155.43" y="766.3" type="curve" smooth="yes"/>
      <point x="73.88" y="766.3"/>
      <point x="41.61" y="739.8199999999999"/>
      <point x="41.61" y="683.99" type="curve" smooth="yes"/>
      <point x="41.61" y="628.37"/>
      <point x="74.17999999999999" y="601.89"/>
    </contour>
    <contour>
      <point x="60.45" y="0.0" type="line"/>
      <point x="250.2" y="0.0" type="line"/>
      <point x="250.2" y="544.0" type="line"/>
      <point x="60.45" y="544.0" type="line"/>
    </contour>
  </outline>
</glyph>
<glyph name="j" format="2">
  <advance width="324.69999999999993"/>
  <unicode hex="006A"/>
  <outline>
    <contour>
      <point x="264.46" y="544.0" type="line"/>
      <point x="74.71000000000001" y="544.0" type="line"/>
      <point x="74.71000000000001" y="50.25999999999999" type="line" smooth="yes"/>
      <point x="74.71000000000001" y="-22.610000000000007"/>
      <point x="51.65" y="-54.06"/>
      <point x="-0.4799999999999969" y="-63.66000000000002" type="curve" smooth="yes"/>
      <point x="-7.9999999999999964" y="-65.37"/>
      <point x="-15.099999999999998" y="-66.15"/>
      <point x="-23.550000000000004" y="-66.21000000000001" type="curve"/>
      <point x="-31.21" y="-209.84" type="line"/>
      <point x="-5.709999999999997" y="-212.04999999999998"/>
      <point x="32.089999999999996" y="-212.98"/>
      <point x="55.33" y="-211.17999999999998" type="curve" smooth="yes"/>
      <point x="202.32" y="-200.5"/>
      <point x="264.46" y="-113.52"/>
      <point x="264.46" y="43.47" type="curve" smooth="yes"/>
    </contour>
    <contour>
      <point x="169.26999999999998" y="601.89" type="curve" smooth="yes"/>
      <point x="250.94" y="601.89"/>
      <point x="282.88" y="628.58"/>
      <point x="282.88" y="683.99" type="curve" smooth="yes"/>
      <point x="282.88" y="739.8199999999999"/>
      <point x="250.51999999999998" y="766.3"/>
      <point x="169.26999999999998" y="766.3" type="curve" smooth="yes"/>
      <point x="87.72" y="766.3"/>
      <point x="55.449999999999996" y="739.8199999999999"/>
      <point x="55.449999999999996" y="683.99" type="curve" smooth="yes"/>
      <point x="55.449999999999996" y="628.37"/>
      <point x="88.02" y="601.89"/>
    </contour>
  </outline>
</glyph>
<glyph name="k" format="2">
  <advance width="711.3000000000001"/>
  <unicode hex="006B"/>
  <anchor x="150.39999999999998" y="740.0" name="top"/>
  <anchor x="364.4" y="0.0" name="bottom"/>
  <outline>
    <contour>
      <point x="647.8" y="-10.100000000000001" type="curve" smooth="yes"/>
      <point x="665.6" y="-10.100000000000001"/>
      <point x="676.7999999999998" y="-9.4"/>
      <point x="687.8" y="-7.699999999999998" type="curve"/>
      <point x="686.4000000000001" y="159.3" type="line"/>
      <point x="679.2" y="158.79999999999998"/>
      <point x="672.9" y="158.5"/>
      <point x="666.8" y="158.5" type="curve" smooth="yes"/>
      <point x="623.3" y="158.5"/>
      <point x="572.5999999999999" y="181.29999999999998"/>
      <point x="449.2" y="268.59999999999997" type="curve" smooth="yes"/>
      <point x="236.6" y="419.0" type="line"/>
      <point x="236.6" y="740.0" type="line"/>
      <point x="63.899999999999984" y="740.0" type="line"/>
      <point x="63.899999999999984" y="0.0" type="line"/>
      <point x="236.6" y="0.0" type="line"/>
      <point x="236.6" y="221.70000000000002" type="line"/>
      <point x="419.7" y="93.0" type="line" smooth="yes"/>
      <point x="547.0999999999999" y="3.0"/>
      <point x="594.7" y="-10.100000000000001"/>
    </contour>
    <contour>
      <point x="385.7" y="248.1" type="line"/>
      <point x="485.2" y="316.2"/>
      <point x="624.9999999999999" y="425.8"/>
      <point x="672.0999999999999" y="543.0999999999999" type="curve"/>
      <point x="484.29999999999995" y="553.5" type="line"/>
      <point x="447.79999999999995" y="463.1"/>
      <point x="359.19999999999993" y="392.0"/>
      <point x="226.69999999999996" y="297.59999999999997" type="curve"/>
    </contour>
  </outline>
</glyph>
<glyph name="l" format="2">
  <advance width="395.57"/>
  <unicode hex="006C"/>
  <anchor x="197.55" y="395.0" name="center"/>
  <anchor x="155.43" y="740.0" name="top"/>
  <anchor x="308.65" y="740.0" name="topright"/>
  <anchor x="224.14999999999998" y="0.0" name="bottom"/>
  <outline>
    <contour>
      <point x="250.2" y="740.0" type="line"/>
      <point x="60.45" y="740.0" type="line"/>
      <point x="60.45" y="196.92999999999998" type="line" smooth="yes"/>
      <point x="60.45" y="40.3"/>
      <point x="128.97" y="-10.0"/>
      <point x="255.43" y="-10.0" type="curve" smooth="yes"/>
      <point x="311.60999999999996" y="-10.0"/>
      <point x="358.19" y="1.4499999999999988"/>
      <point x="397.9799999999999" y="16.599999999999998" type="curve"/>
      <point x="378.02" y="150.19" type="line"/>
      <point x="352.03" y="143.23"/>
      <point x="330.38" y="139.01"/>
      <point x="311.98999999999995" y="139.01" type="curve" smooth="yes"/>
      <point x="275.21999999999997" y="139.01"/>
      <point x="250.2" y="150.58999999999997"/>
      <point x="250.2" y="209.46" type="curve" smooth="yes"/>
    </contour>
  </outline>
</glyph>
<glyph name="m" format="2">
  <advance width="1093.81"/>
  <unicode hex="006D"/>
  <outline>
    <contour>
      <point x="60.45" y="0.0" type="line"/>
      <point x="250.40999999999997" y="0.0" type="line"/>
      <point x="250.40999999999997" y="369.87" type="line"/>
      <point x="291.15999999999997" y="391.34000000000003"/>
      <point x="325.83" y="404.96000000000004"/>
      <point x="367.35" y="404.96000000000004" type="curve" smooth="yes"/>
      <point x="433.56999999999994" y="404.96000000000004"/>
      <point x="452.66" y="358.22"/>
      <point x="452.66" y="306.48999999999995" type="curve" smooth="yes"/>
      <point x="452.66" y="0.0" type="line"/>
      <point x="642.62" y="0.0" type="line"/>
      <point x="642.62" y="324.83" type="line" smooth="yes"/>
      <point x="642.62" y="338.88000000000005"/>
      <point x="641.93" y="355.37000000000006"/>
      <point x="638.68" y="371.09999999999997" type="curve"/>
      <point x="674.9300000000001" y="388.53999999999996"/>
      <point x="714.08" y="406.5"/>
      <point x="759.63" y="406.5" type="curve" smooth="yes"/>
      <point x="826.2" y="406.5"/>
      <point x="843.82" y="360.03999999999996"/>
      <point x="843.82" y="307.33" type="curve" smooth="yes"/>
      <point x="843.82" y="0.0" type="line"/>
      <point x="1033.7800000000002" y="0.0" type="line"/>
      <point x="1033.7800000000002" y="371.8" type="line" smooth="yes"/>
      <point x="1033.7800000000002" y="469.93999999999994"/>
      <point x="975.4" y="554.0"/>
      <point x="848.81" y="554.0" type="curve" smooth="yes"/>
      <point x="761.9499999999999" y="554.0"/>
      <point x="696.4699999999999" y="527.2"/>
      <point x="606.8100000000001" y="476.89" type="curve"/>
      <point x="579.09" y="526.31"/>
      <point x="534.1999999999999" y="552.95"/>
      <point x="451.14" y="552.95" type="curve" smooth="yes"/>
      <point x="377.34999999999997" y="552.95"/>
      <point x="309.82" y="528.69"/>
      <point x="231.65" y="482.76" type="curve"/>
      <point x="231.65" y="544.0" type="line"/>
      <point x="60.45" y="544.0" type="line"/>
    </contour>
  </outline>
</glyph>
<glyph name="n" format="2">
  <advance width="735.67"/>
  <unicode hex="006E"/>
  <anchor x="366.09999999999997" y="544.0" name="top"/>
  <anchor x="366.7" y="0.0" name="bottom"/>
  <outline>
    <contour>
      <point x="60.45" y="0.0" type="line"/>
      <point x="250.40999999999997" y="0.0" type="line"/>
      <point x="250.40999999999997" y="370.98" type="line"/>
      <point x="302.57" y="393.19"/>
      <point x="343.68999999999994" y="408.46000000000004"/>
      <point x="392.46000000000004" y="408.46000000000004" type="curve" smooth="yes"/>
      <point x="452.7299999999999" y="408.46000000000004"/>
      <point x="485.67999999999995" y="377.33"/>
      <point x="485.67999999999995" y="307.53999999999996" type="curve" smooth="yes"/>
      <point x="485.67999999999995" y="0.0" type="line"/>
      <point x="675.64" y="0.0" type="line"/>
      <point x="675.64" y="372.01" type="line" smooth="yes"/>
      <point x="675.64" y="477.28999999999996"/>
      <point x="610.33" y="554.0"/>
      <point x="470.37" y="554.0" type="curve" smooth="yes"/>
      <point x="384.29" y="554.0"/>
      <point x="320.46000000000004" y="529.79"/>
      <point x="231.65" y="483.33" type="curve"/>
      <point x="231.65" y="544.0" type="line"/>
      <point x="60.45" y="544.0" type="line"/>
    </contour>
  </outline>
</glyph>
<glyph name="o" format="2">
  <advance width="739.8999999999999"/>
  <unicode hex="006F"/>
  <anchor x="477.59" y="2.8000000000000007" name="ogonek"/>
  <anchor x="369.94999999999993" y="544.0" name="top"/>
  <anchor x="559.58" y="536.1" name="topright"/>
  <anchor x="370.22999999999996" y="0.0" name="bottom"/>
  <outline>
    <contour>
      <point x="34.669999999999995" y="273.60999999999996" type="curve" smooth="yes"/>
      <point x="34.669999999999995" y="89.71000000000001"/>
      <point x="130.71" y="-10.0"/>
      <point x="370.22999999999996" y="-10.0" type="curve" smooth="yes"/>
      <point x="609.19" y="-10.0"/>
      <point x="705.23" y="89.71000000000001"/>
      <point x="705.23" y="273.60999999999996" type="curve" smooth="yes"/>
      <point x="705.23" y="448.40999999999997"/>
      <point x="621.3700000000001" y="554.0"/>
      <point x="370.22999999999996" y="554.0" type="curve" smooth="yes"/>
      <point x="118.10999999999999" y="554.0"/>
      <point x="34.669999999999995" y="448.40999999999997"/>
    </contour>
    <contour>
      <point x="228.55" y="273.3299999999999" type="curve" smooth="yes"/>
      <point x="228.55" y="376.96999999999997"/>
      <point x="263.56999999999994" y="427.78000000000003"/>
      <point x="369.94999999999993" y="427.78000000000003" type="curve" smooth="yes"/>
      <point x="476.40000000000003" y="427.78000000000003"/>
      <point x="510.92999999999995" y="376.96999999999997"/>
      <point x="510.92999999999995" y="273.3299999999999" type="curve" smooth="yes"/>
      <point x="510.92999999999995" y="164.50999999999996"/>
      <point x="470.0999999999999" y="116.42999999999999"/>
      <point x="369.94999999999993" y="116.42999999999999" type="curve" smooth="yes"/>
      <point x="269.59" y="116.42999999999999"/>
      <point x="228.55" y="164.50999999999996"/>
    </contour>
  </outline>
</glyph>
<glyph name="p" format="2">
  <advance width="746.42"/>
  <unicode hex="0070"/>
  <outline>
    <contour>
      <point x="60.45" y="-210.0" type="line"/>
      <point x="250.89999999999998" y="-210.0" type="line"/>
      <point x="250.89999999999998" y="-1.0899999999999999" type="line"/>
      <point x="293.84000000000003" y="-7.02"/>
      <point x="333.96999999999997" y="-10.0"/>
      <point x="371.28" y="-10.0" type="curve" smooth="yes"/>
      <point x="604.73" y="-10.0"/>
      <point x="711.9599999999999" y="82.82"/>
      <point x="711.9599999999999" y="281.46000000000004" type="curve" smooth="yes"/>
      <point x="711.9599999999999" y="455.18999999999994"/>
      <point x="626.74" y="554.0"/>
      <point x="479.27" y="554.0" type="curve" smooth="yes"/>
      <point x="399.01" y="554.0"/>
      <point x="322.34" y="530.51"/>
      <point x="234.17" y="477.37" type="curve"/>
      <point x="231.65" y="544.9" type="line"/>
      <point x="60.45" y="544.9" type="line"/>
    </contour>
    <contour>
      <point x="366.63" y="115.71" type="curve" smooth="yes"/>
      <point x="331.31999999999994" y="115.71"/>
      <point x="291.44999999999993" y="120.64999999999999"/>
      <point x="250.40999999999997" y="130.92" type="curve"/>
      <point x="250.40999999999997" y="365.67" type="line"/>
      <point x="308.8" y="396.39"/>
      <point x="355.78999999999996" y="409.44"/>
      <point x="401.53999999999996" y="409.44" type="curve" smooth="yes"/>
      <point x="476.0799999999999" y="409.44"/>
      <point x="517.73" y="364.79"/>
      <point x="517.73" y="268.51" type="curve" smooth="yes"/>
      <point x="517.73" y="161.01000000000002"/>
      <point x="467.46000000000004" y="115.71"/>
    </contour>
  </outline>
</glyph>
<glyph name="q" format="2">
  <advance width="746.6300000000001"/>
  <unicode hex="0071"/>
  <outline>
    <contour>
      <point x="686.1800000000001" y="524.9" type="line"/>
      <point x="570.79" y="544.1400000000001"/>
      <point x="469.95" y="554.0"/>
      <point x="384.59" y="554.0" type="curve" smooth="yes"/>
      <point x="143.37" y="554.0"/>
      <point x="34.459999999999994" y="464.96"/>
      <point x="34.459999999999994" y="266.74" type="curve" smooth="yes"/>
      <point x="34.459999999999994" y="87.85"/>
      <point x="119.13999999999999" y="-10.0"/>
      <point x="268.83" y="-10.0" type="curve" smooth="yes"/>
      <point x="346.71000000000004" y="-10.0"/>
      <point x="417.01" y="11.179999999999998"/>
      <point x="496.43000000000006" y="59.139999999999986" type="curve"/>
      <point x="496.43000000000006" y="-210.0" type="line"/>
      <point x="686.1800000000001" y="-210.0" type="line"/>
    </contour>
    <contour>
      <point x="496.22" y="414.04" type="curve"/>
      <point x="496.22" y="179.38" type="line"/>
      <point x="437.8299999999999" y="148.45"/>
      <point x="390.84000000000003" y="134.98000000000002"/>
      <point x="344.88" y="134.98000000000002" type="curve" smooth="yes"/>
      <point x="270.64" y="134.98000000000002"/>
      <point x="228.9" y="179.39000000000001"/>
      <point x="228.9" y="271.71" type="curve" smooth="yes"/>
      <point x="228.9" y="382.99"/>
      <point x="279.17" y="428.71000000000004"/>
      <point x="380.21000000000004" y="428.71000000000004" type="curve" smooth="yes"/>
      <point x="415.5" y="428.71000000000004"/>
      <point x="455.18" y="423.98"/>
    </contour>
  </outline>
</glyph>
<glyph name="r" format="2">
  <advance width="532.22"/>
  <unicode hex="0072"/>
  <anchor x="280.66999999999996" y="544.0" name="top"/>
  <anchor x="155.22" y="0.0" name="bottom"/>
  <outline>
    <contour>
      <point x="231.44" y="544.0" type="line"/>
      <point x="60.45" y="544.0" type="line"/>
      <point x="60.45" y="0.0" type="line"/>
      <point x="249.99" y="0.0" type="line"/>
      <point x="249.99" y="346.87" type="line"/>
      <point x="307.94999999999993" y="384.5"/>
      <point x="357.12" y="397.19000000000005"/>
      <point x="402.78" y="397.19000000000005" type="curve" smooth="yes"/>
      <point x="432.77" y="397.19000000000005"/>
      <point x="465.0" y="392.39"/>
      <point x="498.15999999999997" y="384.67999999999995" type="curve"/>
      <point x="525.56" y="541.3299999999999" type="line"/>
      <point x="495.67" y="549.2700000000001"/>
      <point x="463.19" y="554.0"/>
      <point x="432.88" y="554.0" type="curve" smooth="yes"/>
      <point x="359.92999999999995" y="554.0"/>
      <point x="310.00999999999993" y="529.7199999999999"/>
      <point x="231.44" y="464.31" type="curve"/>
    </contour>
  </outline>
</glyph>
<glyph name="s" format="2">
  <advance width="607.4000000000001"/>
  <unicode hex="0073"/>
  <anchor x="300.5999999999999" y="544.0" name="top"/>
  <anchor x="302.79999999999995" y="0.0" name="bottom"/>
  <outline>
    <contour>
      <point x="27.999999999999993" y="23.39999999999999" type="line"/>
      <point x="102.79999999999998" y="2.5"/>
      <point x="195.7" y="-10.0"/>
      <point x="286.4" y="-10.0" type="curve" smooth="yes"/>
      <point x="437.4" y="-10.0"/>
      <point x="583.1999999999999" y="25.000000000000007"/>
      <point x="583.1999999999999" y="171.09999999999997" type="curve" smooth="yes"/>
      <point x="583.1999999999999" y="283.0"/>
      <point x="492.3999999999999" y="319.6"/>
      <point x="370.2" y="336.70000000000005" type="curve" smooth="yes"/>
      <point x="274.2" y="350.00000000000006"/>
      <point x="219.5" y="350.80000000000007"/>
      <point x="219.5" y="388.5" type="curve" smooth="yes"/>
      <point x="219.5" y="417.70000000000005"/>
      <point x="256.2" y="429.8"/>
      <point x="319.7" y="429.8" type="curve" smooth="yes"/>
      <point x="407.6" y="429.8"/>
      <point x="478.5999999999999" y="414.0"/>
      <point x="525.3000000000001" y="400.7" type="curve"/>
      <point x="546.1999999999998" y="523.6" type="line"/>
      <point x="493.0999999999999" y="538.6999999999999"/>
      <point x="415.49999999999994" y="554.0"/>
      <point x="321.79999999999995" y="554.0" type="curve" smooth="yes"/>
      <point x="134.1" y="554.0"/>
      <point x="42.1" y="496.5"/>
      <point x="42.1" y="369.09999999999997" type="curve" smooth="yes"/>
      <point x="42.1" y="275.09999999999997"/>
      <point x="105.70000000000002" y="231.29999999999998"/>
      <point x="215.79999999999998" y="213.1" type="curve" smooth="yes"/>
      <point x="315.80000000000007" y="196.5"/>
      <point x="401.5" y="192.50000000000003"/>
      <point x="401.5" y="154.6" type="curve" smooth="yes"/>
      <point x="401.5" y="125.79999999999997"/>
      <point x="365.4" y="110.59999999999998"/>
      <point x="296.6" y="110.59999999999998" type="curve" smooth="yes"/>
      <point x="222.29999999999995" y="110.59999999999998"/>
      <point x="107.89999999999999" y="128.39999999999998"/>
      <point x="48.09999999999999" y="146.2" type="curve"/>
    </contour>
  </outline>
</glyph>
<glyph name="t" format="2">
  <advance width="529.22"/>
  <unicode hex="0074"/>
  <anchor x="257.61" y="275.0" name="center"/>
  <anchor x="216.38" y="662.6899999999999" name="top"/>
  <anchor x="393.04" y="781.3" name="topright"/>
  <anchor x="296.84" y="0.0" name="bottom"/>
  <outline>
    <contour>
      <point x="312.36" y="-10.0" type="curve" smooth="yes"/>
      <point x="378.21" y="-10.0"/>
      <point x="441.51" y="-0.09000000000000047"/>
      <point x="514.0200000000001" y="20.17" type="curve"/>
      <point x="490.28" y="157.09999999999997" type="line"/>
      <point x="445.17999999999995" y="146.5"/>
      <point x="410.9" y="139.2"/>
      <point x="377.46" y="139.2" type="curve" smooth="yes"/>
      <point x="323.90999999999997" y="139.2"/>
      <point x="300.8" y="161.48"/>
      <point x="300.8" y="218.04000000000002" type="curve" smooth="yes"/>
      <point x="300.8" y="418.88" type="line"/>
      <point x="488.36999999999995" y="418.88" type="line"/>
      <point x="488.36999999999995" y="544.0" type="line"/>
      <point x="300.8" y="544.0" type="line"/>
      <point x="300.8" y="662.6899999999999" type="line"/>
      <point x="131.86999999999998" y="662.6899999999999" type="line"/>
      <point x="111.05000000000001" y="544.0" type="line"/>
      <point x="6.25" y="531.35" type="line"/>
      <point x="6.25" y="419.09000000000003" type="line"/>
      <point x="111.05000000000001" y="419.09000000000003" type="line"/>
      <point x="111.05000000000001" y="206.56" type="line" smooth="yes"/>
      <point x="111.05000000000001" y="47.34"/>
      <point x="185.35" y="-10.0"/>
    </contour>
  </outline>
</glyph>
<glyph name="u" format="2">
  <advance width="746.6800000000001"/>
  <unicode hex="0075"/>
  <anchor x="742.87" y="20.979999999999997" name="ogonek"/>
  <anchor x="369.33" y="544.0" name="top"/>
  <anchor x="665.98" y="544.0" name="topright"/>
  <anchor x="373.97999999999996" y="0.0" name="bottom"/>
  <outline>
    <contour>
      <point x="263.83000000000004" y="-10.0" type="curve" smooth="yes"/>
      <point x="352.99" y="-10.0"/>
      <point x="420.81" y="15.68"/>
      <point x="500.02" y="58.47000000000001" type="curve"/>
      <point x="523.2499999999999" y="12.46"/>
      <point x="559.9499999999999" y="-10.0"/>
      <point x="620.86" y="-10.0" type="curve" smooth="yes"/>
      <point x="666.42" y="-10.0"/>
      <point x="715.36" y="3.619999999999999"/>
      <point x="742.87" y="20.979999999999997" type="curve"/>
      <point x="726.91" y="138.07999999999998" type="line"/>
      <point x="718.66" y="134.41"/>
      <point x="710.43" y="132.89999999999998"/>
      <point x="701.85" y="132.89999999999998" type="curve" smooth="yes"/>
      <point x="682.1299999999999" y="132.89999999999998"/>
      <point x="665.98" y="145.45"/>
      <point x="665.98" y="183.31" type="curve" smooth="yes"/>
      <point x="665.98" y="544.0" type="line"/>
      <point x="476.22999999999996" y="544.0" type="line"/>
      <point x="476.22999999999996" y="169.87" type="line"/>
      <point x="424.14" y="146.39999999999998"/>
      <point x="389.03999999999996" y="133.58"/>
      <point x="341.32" y="133.58" type="curve" smooth="yes"/>
      <point x="283.42999999999995" y="133.58"/>
      <point x="249.99" y="163.66000000000003"/>
      <point x="249.99" y="225.4" type="curve" smooth="yes"/>
      <point x="249.99" y="544.0" type="line"/>
      <point x="60.03" y="544.0" type="line"/>
      <point x="60.03" y="173.04" type="line" smooth="yes"/>
      <point x="60.03" y="55.99999999999999"/>
      <point x="138.43" y="-10.0"/>
    </contour>
  </outline>
</glyph>
<glyph name="v" format="2">
  <advance width="710.92"/>
  <unicode hex="0076"/>
  <outline>
    <contour>
      <point x="254.96999999999997" y="0.0" type="line"/>
      <point x="454.6899999999999" y="0.0" type="line"/>
      <point x="703.08" y="542.5600000000001" type="line"/>
      <point x="496.31999999999994" y="545.4399999999999" type="line"/>
      <point x="362.38999999999993" y="149.51" type="line"/>
      <point x="215.29999999999998" y="545.4399999999999" type="line"/>
      <point x="7.49" y="542.5600000000001" type="line"/>
    </contour>
  </outline>
</glyph>
<glyph name="w" format="2">
  <advance width="985.63"/>
  <unicode hex="0077"/>
  <anchor x="492.81" y="544.0" name="top"/>
  <anchor x="492.81" y="0.0" name="bottom"/>
  <outline>
    <contour>
      <point x="173.35999999999999" y="0.0" type="line"/>
      <point x="385.97" y="0.0" type="line"/>
      <point x="487.83999999999986" y="352.39" type="line"/>
      <point x="598.47" y="0.0" type="line"/>
      <point x="803.0300000000001" y="0.0" type="line"/>
      <point x="975.12" y="542.58" type="line"/>
      <point x="790.8599999999999" y="545.3399999999999" type="line"/>
      <point x="702.53" y="160.64999999999998" type="line"/>
      <point x="592.69" y="544.0" type="line"/>
      <point x="392.43999999999994" y="544.0" type="line"/>
      <point x="284.7" y="161.12" type="line"/>
      <point x="199.88" y="545.3399999999999" type="line"/>
      <point x="10.01" y="542.58" type="line"/>
    </contour>
  </outline>
</glyph>
<glyph name="x" format="2">
  <advance width="730.9399999999999"/>
  <unicode hex="0078"/>
  <outline>
    <contour>
      <point x="5.24" y="1.2799999999999998" type="line"/>
      <point x="240.85999999999999" y="-2.36" type="line"/>
      <point x="368.99999999999994" y="175.86" type="line"/>
      <point x="499.0599999999999" y="-2.36" type="line"/>
      <point x="726.02" y="1.2799999999999998" type="line"/>
      <point x="486.31999999999994" y="280.32" type="line"/>
      <point x="713.38" y="542.2800000000001" type="line"/>
      <point x="497.91999999999996" y="546.2199999999999" type="line"/>
      <point x="373.22" y="375.26" type="line"/>
      <point x="251.51999999999998" y="546.0999999999999" type="line"/>
      <point x="23.6" y="542.2" type="line"/>
      <point x="252.16000000000003" y="276.16" type="line"/>
    </contour>
  </outline>
</glyph>
<glyph name="y" format="2">
  <advance width="715.2899999999998"/>
  <unicode hex="0079"/>
  <anchor x="350.89" y="544.0" name="top"/>
  <anchor x="581.3100000000001" y="0.0" name="bottom"/>
  <outline>
    <contour>
      <point x="197.72000000000003" y="-208.98000000000002" type="line"/>
      <point x="392.58" y="-211.62000000000003" type="line"/>
      <point x="707.71" y="543.82" type="line"/>
      <point x="511.59000000000003" y="546.28" type="line"/>
      <point x="370.18000000000006" y="142.14" type="line"/>
      <point x="219.76" y="546.2800000000001" type="line"/>
      <point x="7.58" y="543.4" type="line"/>
      <point x="259.15" y="0.0" type="line"/>
      <point x="283.32" y="0.0" type="line"/>
    </contour>
  </outline>
</glyph>
<glyph name="z" format="2">
  <advance width="670.88"/>
  <unicode hex="007A"/>
  <anchor x="339.09999999999997" y="544.0" name="top"/>
  <outline>
    <contour>
      <point x="33.04" y="0.0" type="line"/>
      <point x="639.26" y="0.0" type="line"/>
      <point x="639.26" y="131.64000000000001" type="line"/>
      <point x="285.67999999999995" y="131.64000000000001" type="line"/>
      <point x="615.7399999999999" y="429.6" type="line"/>
      <point x="615.7399999999999" y="544.0" type="line"/>
      <point x="49.72" y="544.0" type="line"/>
      <point x="49.72" y="412.90000000000003" type="line"/>
      <point x="368.59999999999997" y="412.90000000000003" type="line"/>
      <point x="33.04" y="115.06" type="line"/>
    </contour>
  </outline>
</glyph>
<glyph name="braceleft" format="2">
  <advance width="410.51"/>
  <unicode hex="007B"/>
  <outline>
    <contour>
      <point x="84.53999999999999" y="-44.370000000000005" type="curve" smooth="yes"/>
      <point x="84.53999999999999" y="-156.64"/>
      <point x="161.56" y="-210.20999999999998"/>
      <point x="272.04999999999995" y="-210.20999999999998" type="curve" smooth="yes"/>
      <point x="375.84" y="-210.20999999999998" type="line"/>
      <point x="375.84" y="-95.71000000000001" type="line"/>
      <point x="322.45000000000005" y="-95.71000000000001" type="line" smooth="yes"/>
      <point x="268.45" y="-95.71000000000001"/>
      <point x="249.72" y="-64.74000000000001"/>
      <point x="249.72" y="-23.37" type="curve" smooth="yes"/>
      <point x="249.72" y="29.47"/>
      <point x="285.30999999999995" y="81.36"/>
      <point x="285.30999999999995" y="140.73999999999998" type="curve" smooth="yes"/>
      <point x="285.30999999999995" y="186.13"/>
      <point x="272.93" y="235.63"/>
      <point x="204.13" y="265.0" type="curve"/>
      <point x="272.71999999999997" y="296.01000000000005"/>
      <point x="285.30999999999995" y="343.24"/>
      <point x="285.30999999999995" y="388.63" type="curve" smooth="yes"/>
      <point x="285.30999999999995" y="448.22"/>
      <point x="249.72" y="499.06"/>
      <point x="249.72" y="552.7399999999999" type="curve" smooth="yes"/>
      <point x="249.72" y="594.11"/>
      <point x="268.45" y="625.5"/>
      <point x="322.45000000000005" y="625.5" type="curve" smooth="yes"/>
      <point x="375.84" y="625.5" type="line"/>
      <point x="375.84" y="740.0" type="line"/>
      <point x="272.04999999999995" y="740.0" type="line" smooth="yes"/>
      <point x="161.56" y="740.0"/>
      <point x="84.53999999999999" y="686.01"/>
      <point x="84.53999999999999" y="573.74" type="curve" smooth="yes"/>
      <point x="84.53999999999999" y="488.3"/>
      <point x="123.97999999999999" y="437.91"/>
      <point x="123.97999999999999" y="385.83000000000004" type="curve" smooth="yes"/>
      <point x="123.97999999999999" y="350.65"/>
      <point x="113.20999999999998" y="322.6"/>
      <point x="73.93999999999998" y="322.6" type="curve" smooth="yes"/>
      <point x="55.46" y="322.6" type="line"/>
      <point x="55.46" y="207.19" type="line"/>
      <point x="73.93999999999998" y="207.19" type="line" smooth="yes"/>
      <point x="113.20999999999998" y="207.19"/>
      <point x="123.97999999999999" y="178.81"/>
      <point x="123.97999999999999" y="143.54000000000002" type="curve" smooth="yes"/>
      <point x="123.97999999999999" y="91.61"/>
      <point x="84.53999999999999" y="40.019999999999996"/>
    </contour>
  </outline>
</glyph>
<glyph name="bar" format="2">
  <advance width="285.66"/>
  <unicode hex="007C"/>
  <outline>
    <contour>
      <point x="217.92999999999998" y="790.21" type="line"/>
      <point x="67.73" y="790.21" type="line"/>
      <point x="67.73" y="-210.0" type="line"/>
      <point x="217.92999999999998" y="-210.0" type="line"/>
    </contour>
  </outline>
</glyph>
<glyph name="braceright" format="2">
  <advance width="410.51"/>
  <unicode hex="007D"/>
  <outline>
    <contour>
      <point x="34.67" y="-95.71000000000001" type="line"/>
      <point x="34.67" y="-210.20999999999998" type="line"/>
      <point x="138.54999999999998" y="-210.20999999999998" type="line" smooth="yes"/>
      <point x="249.04" y="-210.20999999999998"/>
      <point x="326.05999999999995" y="-156.64"/>
      <point x="326.05999999999995" y="-44.370000000000005" type="curve" smooth="yes"/>
      <point x="326.05999999999995" y="40.019999999999996"/>
      <point x="286.62" y="91.61"/>
      <point x="286.62" y="143.54000000000002" type="curve" smooth="yes"/>
      <point x="286.62" y="178.81"/>
      <point x="297.39" y="207.19"/>
      <point x="336.65999999999997" y="207.19" type="curve" smooth="yes"/>
      <point x="355.04999999999995" y="207.19" type="line"/>
      <point x="355.04999999999995" y="322.6" type="line"/>
      <point x="336.65999999999997" y="322.6" type="line" smooth="yes"/>
      <point x="297.3" y="322.6"/>
      <point x="286.62" y="350.65"/>
      <point x="286.62" y="385.83000000000004" type="curve" smooth="yes"/>
      <point x="286.62" y="437.91"/>
      <point x="326.05999999999995" y="488.3"/>
      <point x="326.05999999999995" y="573.74" type="curve" smooth="yes"/>
      <point x="326.05999999999995" y="686.01"/>
      <point x="249.04" y="740.0"/>
      <point x="138.54999999999998" y="740.0" type="curve" smooth="yes"/>
      <point x="34.67" y="740.0" type="line"/>
      <point x="34.67" y="625.5" type="line"/>
      <point x="84.58" y="625.5" type="line" smooth="yes"/>
      <point x="138.49" y="625.5"/>
      <point x="157.31" y="594.11"/>
      <point x="157.31" y="552.7399999999999" type="curve" smooth="yes"/>
      <point x="157.31" y="499.06"/>
      <point x="121.72000000000001" y="448.22"/>
      <point x="121.72000000000001" y="388.63" type="curve" smooth="yes"/>
      <point x="121.72000000000001" y="343.24"/>
      <point x="134.22000000000003" y="296.01000000000005"/>
      <point x="202.9" y="265.0" type="curve"/>
      <point x="134.01" y="235.63"/>
      <point x="121.72000000000001" y="186.13"/>
      <point x="121.72000000000001" y="140.73999999999998" type="curve" smooth="yes"/>
      <point x="121.72000000000001" y="81.36"/>
      <point x="157.31" y="29.47"/>
      <point x="157.31" y="-23.37" type="curve" smooth="yes"/>
      <point x="157.31" y="-64.74000000000001"/>
      <point x="138.49" y="-95.71000000000001"/>
      <point x="84.58" y="-95.71000000000001" type="curve" smooth="yes"/>
    </contour>
  </outline>
</glyph>
<glyph name="asciitilde" format="2">
  <advance width="622.28"/>
  <unicode hex="007E"/>
  <outline>
    <contour>
      <point x="561.35" y="235.10999999999999" type="curve"/>
      <point x="561.35" y="376.09999999999997" type="line"/>
      <point x="533.22" y="350.31"/>
      <point x="498.65999999999997" y="335.59999999999997"/>
      <point x="453.37" y="335.59999999999997" type="curve" smooth="yes"/>
      <point x="333.96" y="335.59999999999997"/>
      <point x="269.42" y="422.51"/>
      <point x="172.66" y="422.51" type="curve" smooth="yes"/>
      <point x="109.46" y="422.51"/>
      <point x="75.53" y="394.68"/>
      <point x="61.510000000000005" y="383.71999999999997" type="curve"/>
      <point x="61.510000000000005" y="242.52" type="line"/>
      <point x="88.31" y="261.38"/>
      <point x="116.71" y="280.85"/>
      <point x="167.6" y="280.85" type="curve" smooth="yes"/>
      <point x="267.0799999999999" y="280.85"/>
      <point x="337.59000000000003" y="193.45"/>
      <point x="454.18999999999994" y="193.45" type="curve" smooth="yes"/>
      <point x="498.0" y="193.45"/>
      <point x="536.27" y="211.76000000000002"/>
    </contour>
  </outline>
</glyph>
<glyph name="exclamdown" format="2">
  <advance width="313.91999999999996"/>
  <unicode hex="00A1"/>
  <outline>
    <contour>
      <point x="239.33999999999997" y="283.01" type="line"/>
      <point x="78.42999999999998" y="283.01" type="line"/>
      <point x="65.27" y="-196.49" type="line"/>
      <point x="251.86999999999998" y="-196.49" type="line"/>
    </contour>
    <contour>
      <point x="261.19" y="465.47" type="curve" smooth="yes"/>
      <point x="261.19" y="523.4"/>
      <point x="233.05" y="551.0"/>
      <point x="156.95999999999998" y="551.0" type="curve" smooth="yes"/>
      <point x="81.17" y="551.0"/>
      <point x="52.73" y="523.4"/>
      <point x="52.73" y="465.47" type="curve" smooth="yes"/>
      <point x="52.73" y="406.84"/>
      <point x="80.86999999999999" y="379.24"/>
      <point x="156.95999999999998" y="379.24" type="curve" smooth="yes"/>
      <point x="233.05" y="379.24"/>
      <point x="261.19" y="406.84"/>
    </contour>
  </outline>
</glyph>
<glyph name="cent" format="2">
  <advance width="842.3399999999999"/>
  <unicode hex="00A2"/>
  <outline>
    <contour>
      <point x="437.12999999999994" y="-10.209999999999999" type="curve" smooth="yes"/>
      <point x="531.43" y="-10.209999999999999"/>
      <point x="633.71" y="1.0999999999999996"/>
      <point x="713.83" y="20.799999999999997" type="curve"/>
      <point x="690.6499999999999" y="151.2" type="line"/>
      <point x="617.2" y="137.32999999999998"/>
      <point x="548.58" y="130.30999999999997"/>
      <point x="483.18999999999994" y="130.30999999999997" type="curve" smooth="yes"/>
      <point x="371.66999999999996" y="130.30999999999997"/>
      <point x="308.27" y="174.29999999999998"/>
      <point x="308.27" y="265.97" type="curve" smooth="yes"/>
      <point x="308.27" y="362.86"/>
      <point x="369.02" y="411.03"/>
      <point x="477.15" y="411.03" type="curve" smooth="yes"/>
      <point x="544.99" y="411.03"/>
      <point x="606.9999999999999" y="404.2"/>
      <point x="678.35" y="389.09" type="curve"/>
      <point x="700.3599999999999" y="527.33" type="line"/>
      <point x="624.7299999999999" y="544.7900000000001"/>
      <point x="558.48" y="554.42"/>
      <point x="461.12" y="554.42" type="curve" smooth="yes"/>
      <point x="220.96" y="554.42"/>
      <point x="121.10999999999999" y="425.95"/>
      <point x="121.10999999999999" y="261.77" type="curve" smooth="yes"/>
      <point x="121.10999999999999" y="85.32"/>
      <point x="232.63" y="-10.209999999999999"/>
    </contour>
    <contour>
      <point x="361.28" y="-105.21000000000001" type="line"/>
      <point x="499.5799999999999" y="-105.21000000000001" type="line"/>
      <point x="499.5799999999999" y="5.5699999999999985" type="line"/>
      <point x="361.28" y="10.46" type="line"/>
    </contour>
    <contour>
      <point x="361.28" y="530.37" type="line"/>
      <point x="499.5799999999999" y="539.76" type="line"/>
      <point x="499.5799999999999" y="648.79" type="line"/>
      <point x="361.28" y="648.79" type="line"/>
    </contour>
  </outline>
</glyph>
<glyph name="sterling" format="2">
  <advance width="842.6999999999999"/>
  <unicode hex="00A3"/>
  <outline>
    <contour>
      <point x="100.19999999999999" y="0.0" type="line"/>
      <point x="758.6399999999999" y="0.0" type="line"/>
      <point x="758.6399999999999" y="139.39999999999998" type="line"/>
      <point x="323.09999999999997" y="139.39999999999998" type="line"/>
      <point x="375.64000000000004" y="177.52"/>
      <point x="404.46000000000004" y="219.34"/>
      <point x="404.46000000000004" y="266.71999999999997" type="curve" smooth="yes"/>
      <point x="404.46000000000004" y="336.94000000000005"/>
      <point x="336.30000000000007" y="397.14"/>
      <point x="336.30000000000007" y="463.79999999999995" type="curve" smooth="yes"/>
      <point x="336.30000000000007" y="532.6400000000001"/>
      <point x="400.29999999999995" y="561.1000000000001"/>
      <point x="491.0999999999999" y="561.1000000000001" type="curve" smooth="yes"/>
      <point x="571.58" y="561.1000000000001"/>
      <point x="655.96" y="550.4799999999999"/>
      <point x="721.6199999999999" y="532.2000000000003" type="curve"/>
      <point x="746.0599999999998" y="670.08" type="line"/>
      <point x="666.84" y="695.2000000000002"/>
      <point x="576.4799999999999" y="710.0"/>
      <point x="471.7" y="710.0" type="curve" smooth="yes"/>
      <point x="255.56" y="710.0"/>
      <point x="141.94" y="634.4200000000001"/>
      <point x="141.94" y="511.12000000000006" type="curve" smooth="yes"/>
      <point x="141.94" y="409.4200000000001"/>
      <point x="222.70000000000002" y="341.22"/>
      <point x="222.70000000000002" y="264.16" type="curve" smooth="yes"/>
      <point x="222.70000000000002" y="206.28000000000003"/>
      <point x="190.66" y="175.32000000000005"/>
      <point x="100.19999999999999" y="114.89999999999999" type="curve"/>
    </contour>
    <contour>
      <point x="93.53999999999998" y="301.58000000000004" type="line"/>
      <point x="640.7600000000001" y="301.58000000000004" type="line"/>
      <point x="640.7600000000001" y="399.38000000000005" type="line"/>
      <point x="93.53999999999998" y="399.38000000000005" type="line"/>
    </contour>
  </outline>
</glyph>
<glyph name="currency" format="2">
  <advance width="524.9"/>
  <unicode hex="00A4"/>
  <outline>
    <contour>
      <point x="51.67" y="430.28" type="line"/>
      <point x="111.53" y="369.42" type="line"/>
      <point x="101.98" y="350.40999999999997"/>
      <point x="96.21" y="328.81"/>
      <point x="96.21" y="305.03000000000003" type="curve" smooth="yes"/>
      <point x="96.21" y="280.55"/>
      <point x="101.98" y="258.04"/>
      <point x="112.53" y="238.82000000000002" type="curve"/>
      <point x="51.67" y="177.96" type="line"/>
      <point x="136.44" y="93.19" type="line"/>
      <point x="208.57" y="164.83" type="line"/>
      <point x="223.73000000000002" y="157.43"/>
      <point x="241.89999999999998" y="154.13"/>
      <point x="261.46" y="154.13" type="curve" smooth="yes"/>
      <point x="281.58" y="154.13"/>
      <point x="299.91" y="157.92"/>
      <point x="315.84000000000003" y="165.10999999999999" type="curve"/>
      <point x="388.46" y="93.19" type="line"/>
      <point x="473.23" y="177.96" type="line"/>
      <point x="410.76" y="240.22" type="line"/>
      <point x="420.54" y="259.37"/>
      <point x="426.52000000000004" y="281.11"/>
      <point x="426.52000000000004" y="305.03000000000003" type="curve" smooth="yes"/>
      <point x="426.52000000000004" y="328.03999999999996"/>
      <point x="421.03000000000003" y="349.08"/>
      <point x="410.96999999999997" y="368.02" type="curve"/>
      <point x="473.23" y="430.28" type="line"/>
      <point x="388.46" y="515.05" type="line"/>
      <point x="316.68" y="443.27" type="line"/>
      <point x="300.53999999999996" y="450.95"/>
      <point x="282.09000000000003" y="455.25"/>
      <point x="261.46" y="455.25" type="curve" smooth="yes"/>
      <point x="241.18" y="455.25"/>
      <point x="223.01" y="450.74"/>
      <point x="207.43" y="443.55" type="curve"/>
      <point x="136.44" y="515.05" type="line"/>
    </contour>
    <contour>
      <point x="260.96999999999997" y="247.98" type="curve" smooth="yes"/>
      <point x="228.58" y="247.98"/>
      <point x="204.13" y="271.94"/>
      <point x="204.13" y="304.82000000000005" type="curve" smooth="yes"/>
      <point x="204.13" y="336.10999999999996"/>
      <point x="228.09" y="361.19"/>
      <point x="260.96999999999997" y="361.19" type="curve" smooth="yes"/>
      <point x="294.15" y="361.19"/>
      <point x="318.59999999999997" y="336.10999999999996"/>
      <point x="318.59999999999997" y="304.82000000000005" type="curve" smooth="yes"/>
      <point x="318.59999999999997" y="271.94"/>
      <point x="293.65999999999997" y="247.98"/>
    </contour>
  </outline>
</glyph>
<glyph name="yen" format="2">
  <advance width="855.0999999999999"/>
  <unicode hex="00A5"/>
  <outline>
    <contour>
      <point x="114.9" y="312.6000000000001" type="line"/>
      <point x="334.2" y="312.6000000000001" type="line"/>
      <point x="334.2" y="259.6" type="line"/>
      <point x="114.9" y="259.6" type="line"/>
      <point x="114.9" y="179.7" type="line"/>
      <point x="334.2" y="179.7" type="line"/>
      <point x="334.2" y="0.0" type="line"/>
      <point x="525.6999999999999" y="0.0" type="line"/>
      <point x="525.6999999999999" y="179.7" type="line"/>
      <point x="750.2999999999998" y="179.7" type="line"/>
      <point x="750.2999999999998" y="259.6" type="line"/>
      <point x="525.6999999999999" y="259.6" type="line"/>
      <point x="525.6999999999999" y="312.6000000000001" type="line"/>
      <point x="750.2999999999998" y="312.6000000000001" type="line"/>
      <point x="750.2999999999998" y="392.80000000000007" type="line"/>
      <point x="525.6999999999999" y="392.80000000000007" type="line"/>
      <point x="794.6999999999998" y="697.8000000000001" type="line"/>
      <point x="599.6999999999999" y="702.5" type="line"/>
      <point x="430.8999999999999" y="490.9999999999999" type="line"/>
      <point x="257.7" y="702.5" type="line"/>
      <point x="60.99999999999999" y="697.8000000000001" type="line"/>
      <point x="334.2" y="392.80000000000007" type="line"/>
      <point x="114.9" y="392.80000000000007" type="line"/>
    </contour>
  </outline>
</glyph>
<glyph name="brokenbar" format="2">
  <advance width="285.45"/>
  <unicode hex="00A6"/>
  <outline>
    <contour>
      <point x="217.72" y="391.0" type="line"/>
      <point x="217.72" y="790.21" type="line"/>
      <point x="67.73" y="790.21" type="line"/>
      <point x="67.73" y="391.0" type="line"/>
    </contour>
    <contour>
      <point x="67.73" y="190.20999999999998" type="line"/>
      <point x="67.73" y="-210.0" type="line"/>
      <point x="217.72" y="-210.0" type="line"/>
      <point x="217.72" y="190.20999999999998" type="line"/>
    </contour>
  </outline>
</glyph>
<glyph name="section" format="2">
  <advance width="688.64"/>
  <unicode hex="00A7"/>
  <outline>
    <contour>
      <point x="283.71" y="-220.42" type="curve" smooth="yes"/>
      <point x="494.24" y="-220.42"/>
      <point x="630.83" y="-105.67"/>
      <point x="630.83" y="76.4" type="curve" smooth="yes"/>
      <point x="630.83" y="168.14999999999998"/>
      <point x="601.8699999999999" y="245.74999999999997"/>
      <point x="517.3599999999999" y="371.16" type="curve" smooth="yes"/>
      <point x="460.71" y="461.34999999999997"/>
      <point x="440.40999999999997" y="496.86999999999995"/>
      <point x="440.40999999999997" y="528.3400000000001" type="curve" smooth="yes"/>
      <point x="440.40999999999997" y="565.78"/>
      <point x="467.22999999999996" y="589.48"/>
      <point x="510.81999999999994" y="589.48" type="curve" smooth="yes"/>
      <point x="528.1800000000001" y="589.48"/>
      <point x="546.8" y="586.43"/>
      <point x="572.1600000000001" y="577.61" type="curve"/>
      <point x="597.13" y="724.76" type="line"/>
      <point x="536.48" y="742.7900000000001"/>
      <point x="477.35" y="750.0000000000001"/>
      <point x="421.24" y="750.0000000000001" type="curve" smooth="yes"/>
      <point x="187.99999999999997" y="750.0000000000001"/>
      <point x="65.14" y="639.4899999999999"/>
      <point x="66.42999999999999" y="459.3" type="curve" smooth="yes"/>
      <point x="67.09" y="365.91999999999996"/>
      <point x="96.07999999999998" y="288.68"/>
      <point x="177.06" y="160.45000000000002" type="curve" smooth="yes"/>
      <point x="229.64000000000001" y="73.76"/>
      <point x="255.07999999999996" y="37.59"/>
      <point x="255.23" y="-3.010000000000005" type="curve" smooth="yes"/>
      <point x="255.37999999999997" y="-37.410000000000004"/>
      <point x="226.61" y="-61.260000000000005"/>
      <point x="181.15999999999997" y="-61.260000000000005" type="curve" smooth="yes"/>
      <point x="149.51" y="-61.260000000000005"/>
      <point x="124.41" y="-52.800000000000004"/>
      <point x="85.13999999999999" y="-31.590000000000007" type="curve"/>
      <point x="53.679999999999986" y="-171.52" type="line"/>
      <point x="131.37" y="-205.93999999999997"/>
      <point x="199.15999999999997" y="-220.42"/>
    </contour>
    <contour>
      <point x="296.48" y="-127.01000000000003" type="curve" smooth="yes"/>
      <point x="265.52" y="-127.01000000000003"/>
      <point x="236.17999999999998" y="-123.03999999999999"/>
      <point x="211.4" y="-111.37" type="curve"/>
      <point x="240.86" y="-134.98000000000002" type="line"/>
      <point x="332.68" y="-140.76999999999998"/>
      <point x="404.83" y="-83.95"/>
      <point x="404.83" y="-3.150000000000009" type="curve" smooth="yes"/>
      <point x="404.83" y="51.79999999999999"/>
      <point x="380.58" y="108.8"/>
      <point x="311.28999999999996" y="221.29999999999998" type="curve" smooth="yes"/>
      <point x="240.04" y="337.82"/>
      <point x="213.51999999999998" y="406.62"/>
      <point x="213.51999999999998" y="478.15000000000003" type="curve" smooth="yes"/>
      <point x="213.51999999999998" y="578.0400000000001"/>
      <point x="279.03999999999996" y="640.58"/>
      <point x="373.01" y="640.58" type="curve" smooth="yes"/>
      <point x="401.17" y="640.58"/>
      <point x="419.47999999999996" y="636.65"/>
      <point x="443.5" y="625.4300000000001" type="curve"/>
      <point x="416.36999999999995" y="652.58" type="line"/>
      <point x="350.78000000000003" y="653.86"/>
      <point x="296.53000000000003" y="598.35"/>
      <point x="296.08" y="531.7199999999999" type="curve" smooth="yes"/>
      <point x="296.08" y="474.23"/>
      <point x="316.40000000000003" y="429.27"/>
      <point x="382.17" y="316.65999999999997" type="curve" smooth="yes"/>
      <point x="463.65" y="177.14000000000001"/>
      <point x="490.35" y="118.00999999999999"/>
      <point x="490.35" y="52.72" type="curve" smooth="yes"/>
      <point x="490.50000000000006" y="-35.77000000000001"/>
      <point x="433.15999999999997" y="-126.86000000000001"/>
    </contour>
  </outline>
</glyph>
<glyph name="copyright" format="2">
  <advance width="846.9799999999999"/>
  <unicode hex="00A9"/>
  <outline>
    <contour>
      <point x="423.69999999999993" y="55.71999999999999" type="curve" smooth="yes"/>
      <point x="232.95" y="55.71999999999999"/>
      <point x="125.11" y="161.45999999999998"/>
      <point x="125.11" y="349.22999999999996" type="curve" smooth="yes"/>
      <point x="125.11" y="538.07"/>
      <point x="233.65" y="641.06"/>
      <point x="423.69999999999993" y="641.06" type="curve" smooth="yes"/>
      <point x="613.9599999999999" y="641.06"/>
      <point x="721.6600000000001" y="538.07"/>
      <point x="721.6600000000001" y="349.22999999999996" type="curve" smooth="yes"/>
      <point x="721.6600000000001" y="161.45999999999998"/>
      <point x="614.66" y="55.71999999999999"/>
    </contour>
    <contour>
      <point x="423.69999999999993" y="710.0" type="curve" smooth="yes"/>
      <point x="193.26" y="710.0"/>
      <point x="49.800000000000004" y="573.88"/>
      <point x="49.800000000000004" y="349.22999999999996" type="curve" smooth="yes"/>
      <point x="49.800000000000004" y="125.44000000000001"/>
      <point x="192.00000000000003" y="-10.0"/>
      <point x="423.69999999999993" y="-10.0" type="curve" smooth="yes"/>
      <point x="654.9799999999999" y="-10.0"/>
      <point x="797.1800000000001" y="125.44000000000001"/>
      <point x="797.1800000000001" y="349.22999999999996" type="curve" smooth="yes"/>
      <point x="797.1800000000001" y="573.88"/>
      <point x="654.14" y="710.0"/>
    </contour>
    <contour>
      <point x="231.06" y="343.14000000000004" type="curve" smooth="yes"/>
      <point x="231.06" y="207.95"/>
      <point x="314.54" y="156.76"/>
      <point x="425.6699999999999" y="156.76" type="curve" smooth="yes"/>
      <point x="490.44000000000005" y="156.76"/>
      <point x="553.83" y="170.45"/>
      <point x="596.45" y="189.81" type="curve"/>
      <point x="580.0600000000001" y="272.42" type="line"/>
      <point x="549.5400000000001" y="263.14"/>
      <point x="499.28999999999996" y="251.71"/>
      <point x="449.11999999999995" y="251.71" type="curve" smooth="yes"/>
      <point x="381.94000000000005" y="251.71"/>
      <point x="349.96999999999997" y="277.22"/>
      <point x="349.96999999999997" y="344.75000000000006" type="curve" smooth="yes"/>
      <point x="349.96999999999997" y="424.48"/>
      <point x="386.64" y="449.58"/>
      <point x="456.6499999999999" y="449.58" type="curve" smooth="yes"/>
      <point x="494.12" y="449.58"/>
      <point x="537.54" y="441.04"/>
      <point x="569.36" y="432.09000000000003" type="curve"/>
      <point x="588.3399999999999" y="516.94" type="line"/>
      <point x="546.2099999999999" y="536.3199999999999"/>
      <point x="492.65" y="545.51"/>
      <point x="440.13" y="545.51" type="curve" smooth="yes"/>
      <point x="321.61999999999995" y="545.51"/>
      <point x="231.06" y="490.3200000000001"/>
    </contour>
  </outline>
</glyph>
<glyph name="ordfeminine" format="2">
  <advance width="499.65999999999997"/>
  <unicode hex="00AA"/>
  <outline>
    <contour>
      <point x="56.11" y="204.63" type="line"/>
      <point x="467.47999999999996" y="204.63" type="line"/>
      <point x="467.47999999999996" y="303.12999999999994" type="line"/>
      <point x="56.11" y="303.12999999999994" type="line"/>
    </contour>
    <component base="a.superior" xOffset="9.829999999999998"/>
  </outline>
</glyph>
<glyph name="logicalnot" format="2">
  <advance width="622.28"/>
  <unicode hex="00AC"/>
  <outline>
    <contour>
      <point x="55.32" y="313.16" type="line"/>
      <point x="427.0" y="313.16" type="line"/>
      <point x="427.0" y="165.17000000000002" type="line"/>
      <point x="567.05" y="165.17000000000002" type="line"/>
      <point x="567.05" y="453.21000000000004" type="line"/>
      <point x="55.32" y="453.21000000000004" type="line"/>
    </contour>
  </outline>
</glyph>
<glyph name="registered" format="2">
  <advance width="812.8800000000001"/>
  <unicode hex="00AE"/>
  <outline>
    <contour>
      <point x="399.38000000000005" y="206.95" type="curve" smooth="yes"/>
      <point x="627.15" y="206.95"/>
      <point x="763.0799999999997" y="332.44"/>
      <point x="763.0799999999997" y="549.86" type="curve" smooth="yes"/>
      <point x="763.0799999999997" y="763.4499999999999"/>
      <point x="627.7099999999999" y="893.4700000000001"/>
      <point x="399.38000000000005" y="893.4700000000001" type="curve" smooth="yes"/>
      <point x="180.5" y="893.4700000000001"/>
      <point x="49.800000000000004" y="763.4499999999999"/>
      <point x="49.800000000000004" y="549.86" type="curve" smooth="yes"/>
      <point x="49.800000000000004" y="337.27000000000004"/>
      <point x="178.89000000000001" y="206.95"/>
    </contour>
    <contour>
      <point x="399.38000000000005" y="269.50000000000006" type="curve" smooth="yes"/>
      <point x="218.49" y="269.50000000000006"/>
      <point x="121.32999999999997" y="371.72999999999996"/>
      <point x="121.32999999999997" y="549.86" type="curve" smooth="yes"/>
      <point x="121.32999999999997" y="729.1300000000001"/>
      <point x="218.63" y="827.7"/>
      <point x="399.38000000000005" y="827.7" type="curve" smooth="yes"/>
      <point x="589.3" y="827.7"/>
      <point x="691.2900000000001" y="728.99"/>
      <point x="691.2900000000001" y="549.86" type="curve" smooth="yes"/>
      <point x="691.2900000000001" y="370.82"/>
      <point x="588.2499999999999" y="269.50000000000006"/>
    </contour>
    <contour>
      <point x="592.37" y="384.54999999999995" type="curve" smooth="yes"/>
      <point x="595.5099999999999" y="384.54999999999995"/>
      <point x="598.5400000000001" y="384.54999999999995"/>
      <point x="601.51" y="384.64" type="curve"/>
      <point x="601.2399999999999" y="475.36999999999995" type="line"/>
      <point x="600.15" y="475.28"/>
      <point x="598.3799999999999" y="475.28"/>
      <point x="597.0799999999999" y="475.28" type="curve" smooth="yes"/>
      <point x="571.0099999999999" y="475.7699999999999"/>
      <point x="535.11" y="496.58"/>
      <point x="502.98" y="525.02" type="curve"/>
      <point x="554.81" y="532.76"/>
      <point x="589.17" y="560.48"/>
      <point x="589.17" y="621.22" type="curve" smooth="yes"/>
      <point x="589.17" y="693.7499999999999"/>
      <point x="539.83" y="724.7499999999999"/>
      <point x="402.39" y="724.7499999999999" type="curve" smooth="yes"/>
      <point x="367.86999999999995" y="724.7499999999999"/>
      <point x="312.78000000000003" y="723.3100000000001"/>
      <point x="235.10999999999996" y="719.7299999999999" type="curve"/>
      <point x="235.10999999999996" y="388.44" type="line"/>
      <point x="338.67" y="388.44" type="line"/>
      <point x="338.67" y="497.08" type="line"/>
      <point x="351.05999999999995" y="496.99"/>
      <point x="360.79" y="496.47999999999996"/>
      <point x="371.69000000000005" y="496.47999999999996" type="curve" smooth="yes"/>
      <point x="377.57999999999987" y="496.47999999999996"/>
      <point x="382.6299999999999" y="496.47999999999996"/>
      <point x="388.17" y="496.57" type="curve"/>
      <point x="454.39000000000004" y="423.6099999999999"/>
      <point x="523.89" y="384.9"/>
    </contour>
    <contour>
      <point x="391.42" y="558.79" type="curve" smooth="yes"/>
      <point x="376.48" y="558.79"/>
      <point x="363.62" y="559.35"/>
      <point x="338.67" y="559.79" type="curve"/>
      <point x="338.67" y="648.24" type="line"/>
      <point x="373.28999999999996" y="650.0999999999999"/>
      <point x="380.17" y="650.1899999999999"/>
      <point x="407.03000000000003" y="650.1899999999999" type="curve" smooth="yes"/>
      <point x="469.0199999999998" y="650.1899999999999"/>
      <point x="482.25" y="637.74"/>
      <point x="482.25" y="608.0200000000001" type="curve" smooth="yes"/>
      <point x="482.25" y="569.4"/>
      <point x="464.68" y="558.79"/>
    </contour>
  </outline>
</glyph>
<glyph name="degree" format="2">
  <advance width="388.09999999999997"/>
  <unicode hex="00B0"/>
  <outline>
    <contour>
      <point x="193.96" y="387.0" type="curve" smooth="yes"/>
      <point x="303.00999999999993" y="387.0"/>
      <point x="356.28" y="466.81"/>
      <point x="356.28" y="550.9" type="curve" smooth="yes"/>
      <point x="356.28" y="630.3"/>
      <point x="308.46999999999997" y="715.4"/>
      <point x="193.96" y="715.4" type="curve" smooth="yes"/>
      <point x="79.03" y="715.4"/>
      <point x="31.82" y="630.3"/>
      <point x="31.82" y="550.9" type="curve" smooth="yes"/>
      <point x="31.82" y="466.81"/>
      <point x="84.91" y="387.0"/>
    </contour>
    <contour>
      <point x="193.96" y="494.22" type="curve" smooth="yes"/>
      <point x="164.51000000000002" y="494.22"/>
      <point x="145.33999999999997" y="517.43"/>
      <point x="145.33999999999997" y="550.41" type="curve" smooth="yes"/>
      <point x="145.33999999999997" y="581.57"/>
      <point x="163.32" y="605.8000000000001"/>
      <point x="193.96" y="605.8000000000001" type="curve" smooth="yes"/>
      <point x="224.17999999999998" y="605.8000000000001"/>
      <point x="243.17999999999998" y="581.57"/>
      <point x="243.17999999999998" y="550.41" type="curve" smooth="yes"/>
      <point x="243.17999999999998" y="517.43"/>
      <point x="223.41000000000003" y="494.22"/>
    </contour>
  </outline>
</glyph>
<glyph name="plusminus" format="2">
  <advance width="625.1600000000001"/>
  <unicode hex="00B1"/>
  <outline>
    <contour>
      <point x="54.96" y="21.110000000000003" type="line"/>
      <point x="570.2" y="21.110000000000003" type="line"/>
      <point x="570.2" y="161.16" type="line"/>
      <point x="392.16" y="161.16" type="line"/>
      <point x="392.16" y="291.42" type="line"/>
      <point x="570.2" y="291.42" type="line"/>
      <point x="570.2" y="431.47" type="line"/>
      <point x="392.16" y="431.47" type="line"/>
      <point x="392.16" y="572.7" type="line"/>
      <point x="232.51000000000002" y="572.7" type="line"/>
      <point x="232.51000000000002" y="431.47" type="line"/>
      <point x="54.96" y="431.47" type="line"/>
      <point x="54.96" y="291.42" type="line"/>
      <point x="232.51000000000002" y="291.42" type="line"/>
      <point x="232.51000000000002" y="161.16" type="line"/>
      <point x="54.96" y="161.16" type="line"/>
    </contour>
  </outline>
</glyph>
<glyph name="uni00B2" format="2">
  <advance width="512.81"/>
  <unicode hex="00B2"/>
  <outline>
    <contour>
      <point x="46.14" y="370.0" type="line"/>
      <point x="469.97999999999996" y="370.0" type="line"/>
      <point x="469.97999999999996" y="455.15999999999997" type="line"/>
      <point x="258.41999999999996" y="455.15999999999997" type="line"/>
      <point x="388.39" y="532.7099999999999"/>
      <point x="418.72999999999996" y="576.61"/>
      <point x="418.72999999999996" y="639.6700000000001" type="curve" smooth="yes"/>
      <point x="418.72999999999996" y="722.13"/>
      <point x="347.4" y="773.06"/>
      <point x="234.45" y="773.06" type="curve" smooth="yes"/>
      <point x="171.75" y="773.06"/>
      <point x="95.08999999999997" y="755.58"/>
      <point x="47.24000000000001" y="729.55" type="curve"/>
      <point x="81.63000000000001" y="640.76" type="line"/>
      <point x="131.91" y="662.85"/>
      <point x="164.86" y="671.1"/>
      <point x="201.53000000000003" y="671.1" type="curve" smooth="yes"/>
      <point x="246.61999999999995" y="671.1"/>
      <point x="271.23" y="648.65"/>
      <point x="271.23" y="615.0400000000001" type="curve" smooth="yes"/>
      <point x="271.23" y="568.02"/>
      <point x="212.57000000000005" y="525.37"/>
      <point x="45.24000000000001" y="445.53000000000003" type="curve"/>
    </contour>
  </outline>
</glyph>
<glyph name="uni00B3" format="2">
  <advance width="511.48"/>
  <unicode hex="00B3"/>
  <outline>
    <contour>
      <point x="24.65" y="395.62" type="line"/>
      <point x="90.30999999999999" y="370.24"/>
      <point x="159.13" y="362.72999999999996"/>
      <point x="236.04999999999998" y="362.72999999999996" type="curve" smooth="yes"/>
      <point x="381.98999999999995" y="362.72999999999996"/>
      <point x="479.12999999999994" y="401.98999999999995"/>
      <point x="479.12999999999994" y="487.35" type="curve" smooth="yes"/>
      <point x="479.12999999999994" y="535.1499999999999"/>
      <point x="448.91" y="565.62"/>
      <point x="384.61" y="580.9399999999999" type="curve"/>
      <point x="429.79999999999995" y="592.03"/>
      <point x="461.66" y="623.8799999999999"/>
      <point x="461.66" y="669.2099999999999" type="curve" smooth="yes"/>
      <point x="461.66" y="733.2800000000001"/>
      <point x="392.97999999999996" y="773.72"/>
      <point x="242.82000000000002" y="773.72" type="curve" smooth="yes"/>
      <point x="152.51" y="773.72"/>
      <point x="77.34" y="762.5199999999999"/>
      <point x="37.690000000000005" y="748.4699999999999" type="curve"/>
      <point x="60.81" y="664.4599999999999" type="line"/>
      <point x="73.89000000000001" y="668.5100000000001"/>
      <point x="113.71000000000001" y="682.66"/>
      <point x="206.66000000000003" y="682.66" type="curve" smooth="yes"/>
      <point x="276.15999999999997" y="682.66"/>
      <point x="329.65" y="666.9499999999999"/>
      <point x="329.65" y="642.75" type="curve" smooth="yes"/>
      <point x="329.65" y="620.1299999999999"/>
      <point x="304.65" y="608.03"/>
      <point x="256.31999999999994" y="608.03" type="curve" smooth="yes"/>
      <point x="132.87" y="608.03" type="line"/>
      <point x="132.87" y="531.9699999999999" type="line"/>
      <point x="238.82" y="531.9699999999999" type="line" smooth="yes"/>
      <point x="319.84000000000003" y="531.9699999999999"/>
      <point x="341.34" y="519.72"/>
      <point x="341.34" y="495.75" type="curve" smooth="yes"/>
      <point x="341.34" y="466.23999999999995"/>
      <point x="302.93" y="447.98"/>
      <point x="221.89" y="447.98" type="curve" smooth="yes"/>
      <point x="131.86999999999998" y="447.98"/>
      <point x="90.82" y="456.43"/>
      <point x="51.660000000000004" y="473.35" type="curve"/>
    </contour>
  </outline>
</glyph>
<glyph name="uni00B5" format="2">
  <advance width="747.1"/>
  <unicode hex="00B5"/>
  <outline>
    <contour>
      <point x="60.45" y="-210.0" type="line"/>
      <point x="248.30999999999997" y="-210.0" type="line"/>
      <point x="248.30999999999997" y="16.110000000000014" type="line"/>
      <point x="264.76" y="-0.35999999999999943"/>
      <point x="289.94" y="-9.58"/>
      <point x="324.31" y="-9.58" type="curve" smooth="yes"/>
      <point x="394.21999999999997" y="-9.58"/>
      <point x="444.89000000000004" y="15.68"/>
      <point x="502.75" y="55.95" type="curve"/>
      <point x="525.77" y="11.41"/>
      <point x="558.6899999999999" y="-10.0"/>
      <point x="621.28" y="-10.0" type="curve" smooth="yes"/>
      <point x="666.8399999999999" y="-10.0"/>
      <point x="715.78" y="3.619999999999999"/>
      <point x="743.29" y="20.979999999999997" type="curve"/>
      <point x="727.33" y="135.76999999999998" type="line"/>
      <point x="719.0799999999999" y="132.1"/>
      <point x="710.85" y="130.58999999999997"/>
      <point x="702.27" y="130.58999999999997" type="curve" smooth="yes"/>
      <point x="682.55" y="130.58999999999997"/>
      <point x="666.4" y="143.14000000000001"/>
      <point x="666.4" y="181.0" type="curve" smooth="yes"/>
      <point x="666.4" y="544.0" type="line"/>
      <point x="476.65" y="544.0" type="line"/>
      <point x="476.65" y="168.82" type="line"/>
      <point x="424.55999999999995" y="145.34999999999997"/>
      <point x="389.46000000000004" y="132.53"/>
      <point x="341.73999999999995" y="132.53" type="curve" smooth="yes"/>
      <point x="283.84999999999997" y="132.53"/>
      <point x="250.40999999999997" y="162.61"/>
      <point x="250.40999999999997" y="224.35" type="curve" smooth="yes"/>
      <point x="250.40999999999997" y="544.0" type="line"/>
      <point x="60.45" y="544.0" type="line"/>
    </contour>
  </outline>
</glyph>
<glyph name="paragraph" format="2">
  <advance width="800.19"/>
  <unicode hex="00B6"/>
  <outline>
    <contour>
      <point x="565.53" y="-210.0" type="line"/>
      <point x="712.79" y="-210.0" type="line"/>
      <point x="712.79" y="740.0" type="line"/>
      <point x="565.53" y="740.0" type="line"/>
    </contour>
    <contour>
      <point x="313.13000000000005" y="305.10999999999996" type="line"/>
      <point x="251.32" y="315.38"/>
      <point x="218.27999999999997" y="367.47999999999996"/>
      <point x="218.27999999999997" y="455.7" type="curve" smooth="yes"/>
      <point x="218.27999999999997" y="555.43"/>
      <point x="258.95" y="598.63"/>
      <point x="350.81" y="599.71" type="curve"/>
      <point x="350.81" y="-210.0" type="line"/>
      <point x="498.07" y="-210.0" type="line"/>
      <point x="498.07" y="740.0" type="line"/>
      <point x="393.05000000000007" y="740.0" type="line" smooth="yes"/>
      <point x="146.22" y="740.0"/>
      <point x="57.51" y="645.6299999999999"/>
      <point x="57.51" y="473.41" type="curve" smooth="yes"/>
      <point x="57.51" y="316.08000000000004"/>
      <point x="132.81" y="222.5"/>
      <point x="296.45" y="205.02999999999997" type="curve"/>
    </contour>
  </outline>
</glyph>
<glyph name="periodcentered" format="2">
  <advance width="288.0"/>
  <unicode hex="00B7"/>
  <outline>
    <contour>
      <point x="39.49999999999999" y="309.94" type="curve" smooth="yes"/>
      <point x="39.49999999999999" y="251.68"/>
      <point x="68.36" y="224.07999999999998"/>
      <point x="144.0" y="224.07999999999998" type="curve" smooth="yes"/>
      <point x="220.24" y="224.07999999999998"/>
      <point x="248.49999999999994" y="251.68"/>
      <point x="248.49999999999994" y="309.94" type="curve" smooth="yes"/>
      <point x="248.49999999999994" y="368.9"/>
      <point x="220.24" y="396.50000000000006"/>
      <point x="144.0" y="396.50000000000006" type="curve" smooth="yes"/>
      <point x="67.75999999999999" y="396.50000000000006"/>
      <point x="39.49999999999999" y="368.9"/>
    </contour>
  </outline>
</glyph>
<glyph name="uni00B9" format="2">
  <advance width="482.52"/>
  <unicode hex="00B9"/>
  <outline>
    <contour>
      <point x="53.55" y="370.0" type="line"/>
      <point x="459.97999999999996" y="370.0" type="line"/>
      <point x="459.97999999999996" y="457.70000000000005" type="line"/>
      <point x="338.80999999999995" y="457.70000000000005" type="line"/>
      <point x="338.80999999999995" y="766.43" type="line"/>
      <point x="266.22999999999996" y="766.43" type="line"/>
      <point x="26.880000000000003" y="685.7399999999999" type="line"/>
      <point x="60.849999999999994" y="589.89" type="line"/>
      <point x="192.41" y="635.81" type="line"/>
      <point x="192.41" y="457.70000000000005" type="line"/>
      <point x="53.55" y="457.70000000000005" type="line"/>
    </contour>
  </outline>
</glyph>
<glyph name="ordmasculine" format="2">
  <advance width="504.88"/>
  <unicode hex="00BA"/>
  <outline>
    <contour>
      <point x="46.36999999999999" y="204.84000000000003" type="line"/>
      <point x="459.41999999999996" y="204.84000000000003" type="line"/>
      <point x="459.41999999999996" y="303.34" type="line"/>
      <point x="46.36999999999999" y="303.34" type="line"/>
    </contour>
    <component base="o.superior" xOffset="9.080000000000002"/>
  </outline>
</glyph>
<glyph name="questiondown" format="2">
  <advance width="621.6899999999999"/>
  <unicode hex="00BF"/>
  <outline>
    <contour>
      <point x="418.15" y="281.33000000000004" type="line"/>
      <point x="257.03000000000003" y="281.33000000000004" type="line"/>
      <point x="256.05" y="223.56" type="line"/>
      <point x="94.88" y="178.89"/>
      <point x="34.190000000000005" y="111.94999999999999"/>
      <point x="34.190000000000005" y="6.599999999999995" type="curve" smooth="yes"/>
      <point x="34.190000000000005" y="-148.5"/>
      <point x="172.03" y="-208.59"/>
      <point x="318.67" y="-208.59" type="curve" smooth="yes"/>
      <point x="412.0" y="-208.59"/>
      <point x="531.12" y="-179.32999999999998"/>
      <point x="605.84" y="-132.84" type="curve"/>
      <point x="556.5999999999999" y="2.519999999999989" type="line"/>
      <point x="485.39" y="-34.610000000000014"/>
      <point x="412.92" y="-55.12"/>
      <point x="349.74999999999994" y="-55.12" type="curve" smooth="yes"/>
      <point x="282.7" y="-55.12"/>
      <point x="231.38" y="-33.780000000000015"/>
      <point x="231.38" y="20.769999999999996" type="curve" smooth="yes"/>
      <point x="231.38" y="64.82"/>
      <point x="257.2" y="99.86999999999999"/>
      <point x="422.41999999999996" y="138.32999999999998" type="curve"/>
    </contour>
    <contour>
      <point x="441.07" y="463.16" type="curve" smooth="yes"/>
      <point x="441.07" y="521.09"/>
      <point x="412.65999999999997" y="548.6899999999999"/>
      <point x="336.74999999999994" y="548.6899999999999" type="curve" smooth="yes"/>
      <point x="260.96" y="548.6899999999999"/>
      <point x="232.51999999999998" y="521.09"/>
      <point x="232.51999999999998" y="463.16" type="curve" smooth="yes"/>
      <point x="232.51999999999998" y="404.53"/>
      <point x="260.96" y="376.93"/>
      <point x="336.74999999999994" y="376.93" type="curve" smooth="yes"/>
      <point x="413.04999999999995" y="376.93"/>
      <point x="441.07" y="404.53"/>
    </contour>
  </outline>
</glyph>
<glyph name="AE" format="2">
  <advance width="1312.9799999999998"/>
  <unicode hex="00C6"/>
  <anchor x="697.7599999999999" y="700.0" name="top"/>
  <outline>
    <contour>
      <point x="2.34" y="0.0" type="line"/>
      <point x="226.7" y="-0.30000000000000004" type="line"/>
      <point x="361.68" y="184.29999999999998" type="line"/>
      <point x="600.58" y="184.29999999999998" type="line"/>
      <point x="600.58" y="0.0" type="line"/>
      <point x="1277.3000000000002" y="0.0" type="line"/>
      <point x="1277.3000000000002" y="151.35999999999999" type="line"/>
      <point x="787.8199999999998" y="151.35999999999999" type="line"/>
      <point x="787.8199999999998" y="281.76000000000005" type="line"/>
      <point x="1225.5399999999997" y="281.76000000000005" type="line"/>
      <point x="1225.5399999999997" y="423.12" type="line"/>
      <point x="787.8199999999998" y="423.12" type="line"/>
      <point x="787.8199999999998" y="548.04" type="line"/>
      <point x="1254.0600000000002" y="548.04" type="line"/>
      <point x="1254.0600000000002" y="700.0" type="line"/>
      <point x="508.54" y="700.0" type="line"/>
    </contour>
    <contour>
      <point x="450.71999999999997" y="327.2" type="line"/>
      <point x="600.0400000000001" y="559.74" type="line"/>
      <point x="600.0400000000001" y="327.2" type="line"/>
    </contour>
  </outline>
</glyph>
<glyph name="multiply" format="2">
  <advance width="571.48"/>
  <unicode hex="00D7"/>
  <outline>
    <contour>
      <point x="139.06" y="81.94999999999999" type="line"/>
      <point x="285.85999999999996" y="220.59" type="line"/>
      <point x="432.21000000000004" y="82.67000000000002" type="line"/>
      <point x="523.71" y="188.54999999999998" type="line"/>
      <point x="393.47999999999996" y="313.83000000000004" type="line"/>
      <point x="524.04" y="440.2" type="line"/>
      <point x="432.53999999999996" y="546.0799999999999" type="line"/>
      <point x="285.85999999999996" y="407.15999999999997" type="line"/>
      <point x="138.85" y="546.4999999999999" type="line"/>
      <point x="47.35" y="440.62" type="line"/>
      <point x="177.84000000000003" y="313.83000000000004" type="line"/>
      <point x="47.56000000000001" y="187.82999999999998" type="line"/>
    </contour>
  </outline>
</glyph>
<glyph name="Oslash" format="2">
  <advance width="958.9999999999999"/>
  <unicode hex="00D8"/>
  <anchor x="478.75" y="700.0" name="top"/>
  <outline>
    <contour>
      <point x="185.99999999999997" y="-14.099999999999998" type="line"/>
      <point x="289.7" y="87.6" type="line"/>
      <point x="291.04999999999995" y="84.44999999999999" type="line"/>
      <point x="760.1999999999998" y="557.4499999999999" type="line"/>
      <point x="761.9499999999999" y="554.65" type="line"/>
      <point x="914.0999999999999" y="717.0" type="line"/>
      <point x="771.2499999999999" y="717.0" type="line"/>
      <point x="674.0" y="618.45" type="line"/>
      <point x="672.4499999999999" y="621.4000000000001" type="line"/>
      <point x="199.04999999999998" y="149.0" type="line"/>
      <point x="197.60000000000002" y="150.4" type="line"/>
      <point x="44.30000000000001" y="-14.099999999999998" type="line"/>
    </contour>
    <contour>
      <point x="479.09999999999997" y="120.45" type="curve" smooth="yes"/>
      <point x="344.65" y="120.45"/>
      <point x="229.8" y="172.8"/>
      <point x="229.8" y="350.5" type="curve" smooth="yes"/>
      <point x="229.8" y="530.8499999999999"/>
      <point x="344.69999999999993" y="579.55"/>
      <point x="479.09999999999997" y="579.55" type="curve" smooth="yes"/>
      <point x="612.4499999999998" y="579.55"/>
      <point x="728.2999999999998" y="531.2500000000001"/>
      <point x="728.2999999999998" y="350.90000000000003" type="curve" smooth="yes"/>
      <point x="728.2999999999998" y="170.00000000000003"/>
      <point x="612.05" y="120.45"/>
    </contour>
    <contour>
      <point x="479.0499999999999" y="-10.0" type="curve" smooth="yes"/>
      <point x="744.0999999999999" y="-10.0"/>
      <point x="914.0499999999998" y="84.04999999999998"/>
      <point x="914.0499999999998" y="353.7" type="curve" smooth="yes"/>
      <point x="914.0499999999998" y="613.5999999999999"/>
      <point x="750.2999999999998" y="710.0"/>
      <point x="479.09999999999997" y="710.0" type="curve" smooth="yes"/>
      <point x="205.70000000000005" y="710.0"/>
      <point x="44.349999999999994" y="612.1000000000001"/>
      <point x="44.349999999999994" y="351.15000000000003" type="curve" smooth="yes"/>
      <point x="44.349999999999994" y="88.49999999999999"/>
      <point x="214.9" y="-10.0"/>
    </contour>
  </outline>
</glyph>
<glyph name="Thorn" format="2">
  <advance width="895.7099999999999"/>
  <unicode hex="00DE"/>
  <outline>
    <contour>
      <point x="75.06" y="0.0" type="line"/>
      <point x="274.82" y="0.0" type="line"/>
      <point x="274.82" y="119.52000000000001" type="line"/>
      <point x="394.50999999999993" y="115.78999999999999"/>
      <point x="382.21" y="115.58000000000001"/>
      <point x="497.04999999999995" y="115.58000000000001" type="curve" smooth="yes"/>
      <point x="766.83" y="115.58000000000001"/>
      <point x="855.21" y="189.06"/>
      <point x="855.21" y="379.78000000000003" type="curve" smooth="yes"/>
      <point x="855.21" y="566.9"/>
      <point x="775.02" y="635.67"/>
      <point x="440.05999999999995" y="635.67" type="curve" smooth="yes"/>
      <point x="407.79" y="635.67"/>
      <point x="353.96" y="634.6700000000001"/>
      <point x="275.03" y="632.32" type="curve"/>
      <point x="275.03" y="700.0" type="line"/>
      <point x="75.06" y="700.0" type="line"/>
    </contour>
    <contour>
      <point x="421.12" y="260.25" type="curve" smooth="yes"/>
      <point x="372.36" y="260.25"/>
      <point x="344.0299999999999" y="261.36999999999995"/>
      <point x="275.03" y="264.46999999999997" type="curve"/>
      <point x="275.03" y="489.07" type="line"/>
      <point x="376.92" y="493.61"/>
      <point x="402.2099999999999" y="494.12"/>
      <point x="455.9" y="494.12" type="curve" smooth="yes"/>
      <point x="613.14" y="494.12"/>
      <point x="652.0200000000001" y="459.28999999999996"/>
      <point x="652.0200000000001" y="381.54" type="curve" smooth="yes"/>
      <point x="652.0200000000001" y="299.06"/>
      <point x="622.6700000000001" y="260.25"/>
    </contour>
  </outline>
</glyph>
<glyph name="germandbls" format="2">
  <advance width="888.7399999999999"/>
  <unicode hex="00DF"/>
  <outline>
    <contour>
      <point x="112.5" y="0.0" type="line"/>
      <point x="302.15999999999997" y="0.0" type="line"/>
      <point x="302.15999999999997" y="482.32000000000005" type="line" smooth="yes"/>
      <point x="302.15999999999997" y="579.12"/>
      <point x="371.56" y="620.06"/>
      <point x="493.55999999999995" y="620.06" type="curve" smooth="yes"/>
      <point x="603.9799999999999" y="620.06"/>
      <point x="631.5" y="604.5400000000001"/>
      <point x="631.5" y="571.92" type="curve" smooth="yes"/>
      <point x="631.5" y="546.8600000000001"/>
      <point x="612.3399999999999" y="536.8599999999999"/>
      <point x="545.28" y="521.4399999999999" type="curve" smooth="yes"/>
      <point x="431.12" y="502.26"/>
      <point x="384.5799999999999" y="446.66"/>
      <point x="384.5799999999999" y="370.56" type="curve" smooth="yes"/>
      <point x="384.5799999999999" y="267.65999999999997"/>
      <point x="431.48" y="223.12"/>
      <point x="604.1999999999999" y="202.34" type="curve" smooth="yes"/>
      <point x="688.6599999999999" y="190.86"/>
      <point x="712.62" y="183.1"/>
      <point x="712.62" y="153.42" type="curve" smooth="yes"/>
      <point x="712.62" y="121.5"/>
      <point x="667.4999999999999" y="109.24"/>
      <point x="612.3399999999999" y="109.24" type="curve" smooth="yes"/>
      <point x="541.16" y="109.24"/>
      <point x="441.79999999999995" y="124.25999999999998"/>
      <point x="372.55999999999995" y="143.38" type="curve"/>
      <point x="352.61999999999995" y="21.939999999999998" type="line"/>
      <point x="435.50000000000006" y="-0.7200000000000006"/>
      <point x="521.4200000000001" y="-10.22"/>
      <point x="602.7599999999999" y="-10.22" type="curve" smooth="yes"/>
      <point x="740.7799999999999" y="-10.22"/>
      <point x="887.0799999999999" y="27.000000000000004"/>
      <point x="887.0799999999999" y="167.17999999999998" type="curve" smooth="yes"/>
      <point x="887.0799999999999" y="271.71999999999997"/>
      <point x="825.6999999999999" y="315.53999999999996"/>
      <point x="672.3" y="333.78" type="curve" smooth="yes"/>
      <point x="579.7" y="344.08"/>
      <point x="554.2600000000001" y="352.26"/>
      <point x="554.2600000000001" y="379.4" type="curve" smooth="yes"/>
      <point x="554.2600000000001" y="404.17999999999995"/>
      <point x="578.3999999999999" y="408.62000000000006"/>
      <point x="634.4" y="420.64" type="curve" smooth="yes"/>
      <point x="747.26" y="445.74"/>
      <point x="806.24" y="481.70000000000005"/>
      <point x="806.24" y="572.0" type="curve" smooth="yes"/>
      <point x="806.24" y="695.42"/>
      <point x="697.7399999999999" y="750.0"/>
      <point x="487.26" y="750.0" type="curve" smooth="yes"/>
      <point x="236.65999999999994" y="750.0"/>
      <point x="112.39999999999999" y="676.22"/>
      <point x="112.5" y="511.82" type="curve" smooth="yes"/>
      <point x="112.5" y="493.23999999999995" type="line"/>
      <point x="18.759999999999998" y="480.3" type="line"/>
      <point x="18.759999999999998" y="368.24" type="line"/>
      <point x="112.5" y="368.24" type="line"/>
    </contour>
  </outline>
</glyph>
<glyph name="ae" format="2">
  <advance width="1092.5599999999997"/>
  <unicode hex="00E6"/>
  <anchor x="555.7199999999999" y="544.0" name="top"/>
  <outline>
    <contour>
      <point x="218.14000000000001" y="-10.0" type="curve" smooth="yes"/>
      <point x="335.3399999999999" y="-10.0"/>
      <point x="405.71999999999997" y="23.100000000000005"/>
      <point x="487.61999999999995" y="78.35999999999999" type="curve"/>
      <point x="489.19999999999993" y="78.35999999999999" type="line"/>
      <point x="548.3199999999999" y="15.420000000000003"/>
      <point x="629.98" y="-10.0"/>
      <point x="768.2799999999999" y="-10.0" type="curve" smooth="yes"/>
      <point x="881.8799999999999" y="-10.0"/>
      <point x="964.68" y="1.599999999999999"/>
      <point x="1052.96" y="23.44" type="curve"/>
      <point x="1031.3199999999997" y="152.32" type="line"/>
      <point x="953.4399999999999" y="136.46"/>
      <point x="864.0199999999999" y="124.66000000000001"/>
      <point x="784.6800000000001" y="124.66000000000001" type="curve" smooth="yes"/>
      <point x="672.56" y="124.66000000000001"/>
      <point x="629.5999999999999" y="146.06"/>
      <point x="624.6399999999999" y="214.8" type="curve" smooth="yes"/>
      <point x="623.7599999999999" y="218.96"/>
      <point x="623.7599999999999" y="223.82"/>
      <point x="624.3999999999999" y="227.26" type="curve"/>
      <point x="825.3999999999999" y="231.06"/>
      <point x="971.1199999999999" y="243.04000000000002"/>
      <point x="1052.1" y="247.9" type="curve"/>
      <point x="1052.7199999999998" y="262.47999999999996"/>
      <point x="1053.8" y="281.38"/>
      <point x="1053.8" y="299.26" type="curve" smooth="yes"/>
      <point x="1053.8" y="476.32"/>
      <point x="957.0999999999997" y="554.0"/>
      <point x="759.06" y="554.0" type="curve" smooth="yes"/>
      <point x="659.24" y="554.0"/>
      <point x="595.6600000000001" y="528.96"/>
      <point x="548.36" y="474.62" type="curve"/>
      <point x="547.08" y="474.62" type="line"/>
      <point x="495.64" y="530.3000000000001"/>
      <point x="438.53999999999996" y="554.0"/>
      <point x="318.02" y="554.0" type="curve" smooth="yes"/>
      <point x="242.36" y="554.0"/>
      <point x="151.49999999999997" y="541.98"/>
      <point x="68.79999999999998" y="520.6999999999999" type="curve"/>
      <point x="93.16" y="389.84" type="line"/>
      <point x="163.93999999999997" y="407.97999999999996"/>
      <point x="251.64" y="417.58"/>
      <point x="305.14" y="417.58" type="curve" smooth="yes"/>
      <point x="394.7799999999999" y="417.58"/>
      <point x="432.73999999999995" y="395.24"/>
      <point x="432.73999999999995" y="353.85999999999996" type="curve" smooth="yes"/>
      <point x="432.73999999999995" y="330.34" type="line"/>
      <point x="139.64000000000004" y="322.7"/>
      <point x="31.94" y="284.74"/>
      <point x="31.94" y="150.18" type="curve" smooth="yes"/>
      <point x="31.94" y="46.739999999999995"/>
      <point x="100.3" y="-10.0"/>
    </contour>
    <contour>
      <point x="290.94" y="101.25999999999999" type="curve" smooth="yes"/>
      <point x="250.97999999999996" y="101.25999999999999"/>
      <point x="225.85999999999999" y="118.5"/>
      <point x="225.85999999999999" y="156.8" type="curve" smooth="yes"/>
      <point x="225.85999999999999" y="219.42000000000002"/>
      <point x="284.00000000000006" y="231.96"/>
      <point x="432.79999999999995" y="238.14" type="curve"/>
      <point x="432.87999999999994" y="230.35999999999999"/>
      <point x="432.87999999999994" y="221.44"/>
      <point x="432.87999999999994" y="212.51999999999998" type="curve" smooth="yes"/>
      <point x="432.87999999999994" y="192.76000000000002"/>
      <point x="433.49999999999994" y="175.62"/>
      <point x="436.59999999999997" y="160.08" type="curve"/>
      <point x="403.5799999999999" y="128.38"/>
      <point x="341.76" y="101.25999999999999"/>
    </contour>
    <contour>
      <point x="624.9999999999999" y="325.64" type="curve"/>
      <point x="633.4399999999999" y="408.5"/>
      <point x="685.26" y="432.62"/>
      <point x="747.4" y="432.62" type="curve" smooth="yes"/>
      <point x="814.42" y="432.62"/>
      <point x="851.0999999999999" y="402.55999999999995"/>
      <point x="859.6999999999998" y="334.14000000000004" type="curve"/>
      <point x="807.8999999999999" y="331.90000000000003"/>
      <point x="726.1999999999998" y="325.91999999999996"/>
    </contour>
  </outline>
</glyph>
<glyph name="eth" format="2">
  <advance width="742.2"/>
  <unicode hex="00F0"/>
  <outline>
    <contour>
      <point x="557.6999999999999" y="373.29999999999995" type="curve"/>
      <point x="561.2" y="481.99999999999994" type="line"/>
      <point x="497.1" y="515.1"/>
      <point x="433.29999999999995" y="527.9000000000001"/>
      <point x="346.6" y="527.9000000000001" type="curve" smooth="yes"/>
      <point x="133.20000000000002" y="527.9000000000001"/>
      <point x="34.9" y="429.19999999999993"/>
      <point x="34.9" y="250.99999999999997" type="curve" smooth="yes"/>
      <point x="34.9" y="79.5"/>
      <point x="141.6" y="-10.0"/>
      <point x="349.4" y="-10.0" type="curve" smooth="yes"/>
      <point x="598.2" y="-10.0"/>
      <point x="707.6999999999999" y="96.10000000000001"/>
      <point x="707.6999999999999" y="365.3" type="curve" smooth="yes"/>
      <point x="707.6999999999999" y="634.3000000000001"/>
      <point x="553.6999999999999" y="745.5000000000001"/>
      <point x="291.1" y="745.5000000000001" type="curve" smooth="yes"/>
      <point x="212.4" y="745.5000000000001"/>
      <point x="133.20000000000005" y="736.3"/>
      <point x="43.7" y="717.2" type="curve"/>
      <point x="57.400000000000006" y="614.4" type="line"/>
      <point x="140.5" y="628.4"/>
      <point x="190.8" y="635.9"/>
      <point x="252.20000000000002" y="635.9" type="curve" smooth="yes"/>
      <point x="461.50000000000006" y="635.9"/>
      <point x="532.1999999999999" y="575.2"/>
      <point x="532.1999999999999" y="364.3" type="curve" smooth="yes"/>
      <point x="532.1999999999999" y="164.2"/>
      <point x="484.6" y="110.3"/>
      <point x="368.50000000000006" y="110.3" type="curve" smooth="yes"/>
      <point x="269.2" y="110.3"/>
      <point x="219.09999999999997" y="154.29999999999995"/>
      <point x="219.09999999999997" y="256.9" type="curve" smooth="yes"/>
      <point x="219.09999999999997" y="372.90000000000003"/>
      <point x="271.9" y="414.69999999999993"/>
      <point x="379.30000000000007" y="414.69999999999993" type="curve" smooth="yes"/>
      <point x="446.5" y="414.69999999999993"/>
      <point x="506.7" y="399.90000000000003"/>
    </contour>
    <contour>
      <point x="242.69999999999996" y="545.9" type="line"/>
      <point x="468.09999999999997" y="642.9" type="line"/>
      <point x="470.19999999999993" y="649.6" type="line"/>
      <point x="692.8000000000001" y="751.2" type="line"/>
      <point x="533.1" y="751.4000000000001" type="line"/>
      <point x="390.6" y="687.1" type="line"/>
      <point x="396.09999999999997" y="683.2" type="line"/>
      <point x="83.69999999999996" y="546.1" type="line"/>
    </contour>
  </outline>
</glyph>
<glyph name="divide" format="2">
  <advance width="622.4599999999999"/>
  <unicode hex="00F7"/>
  <outline>
    <contour>
      <point x="226.56" y="109.52000000000001" type="curve" smooth="yes"/>
      <point x="226.56" y="64.1"/>
      <point x="250.51999999999998" y="43.10000000000001"/>
      <point x="311.38" y="43.10000000000001" type="curve" smooth="yes"/>
      <point x="372.99999999999994" y="43.10000000000001"/>
      <point x="396.47999999999996" y="64.1"/>
      <point x="396.47999999999996" y="109.52000000000001" type="curve" smooth="yes"/>
      <point x="396.47999999999996" y="155.32000000000002"/>
      <point x="373.0" y="176.92000000000002"/>
      <point x="311.38" y="176.92000000000002" type="curve" smooth="yes"/>
      <point x="249.92" y="176.92000000000002"/>
      <point x="226.56" y="155.32000000000002"/>
    </contour>
    <contour>
      <point x="226.56" y="514.82" type="curve" smooth="yes"/>
      <point x="226.56" y="470.0"/>
      <point x="250.52" y="448.4"/>
      <point x="311.38" y="448.4" type="curve" smooth="yes"/>
      <point x="372.99999999999994" y="448.4"/>
      <point x="396.47999999999996" y="470.0"/>
      <point x="396.47999999999996" y="514.82" type="curve" smooth="yes"/>
      <point x="396.47999999999996" y="561.22"/>
      <point x="372.99999999999994" y="582.5200000000001"/>
      <point x="311.38" y="582.5200000000001" type="curve" smooth="yes"/>
      <point x="249.92" y="582.5200000000001"/>
      <point x="226.56" y="561.22"/>
    </contour>
    <contour>
      <point x="55.14000000000001" y="242.40000000000003" type="line"/>
      <point x="567.62" y="242.40000000000003" type="line"/>
      <point x="567.62" y="382.6000000000001" type="line"/>
      <point x="55.14000000000001" y="382.6000000000001" type="line"/>
    </contour>
  </outline>
</glyph>
<glyph name="oslash" format="2">
  <advance width="754.7999999999998"/>
  <unicode hex="00F8"/>
  <anchor x="376.8" y="544.0" name="top"/>
  <outline>
    <contour>
      <point x="377.0" y="-10.0" type="curve" smooth="yes"/>
      <point x="131.79999999999998" y="-10.0"/>
      <point x="36.30000000000001" y="95.60000000000002"/>
      <point x="36.30000000000001" y="273.7" type="curve" smooth="yes"/>
      <point x="36.30000000000001" y="442.59999999999997"/>
      <point x="118.99999999999999" y="554.0"/>
      <point x="377.0" y="554.0" type="curve" smooth="yes"/>
      <point x="634.1999999999999" y="554.0"/>
      <point x="717.7" y="442.59999999999997"/>
      <point x="717.7" y="273.7" type="curve" smooth="yes"/>
      <point x="717.7" y="95.60000000000002"/>
      <point x="621.9999999999999" y="-10.0"/>
    </contour>
    <contour>
      <point x="376.8" y="108.09999999999998" type="curve" smooth="yes"/>
      <point x="492.9999999999999" y="108.09999999999998"/>
      <point x="539.4" y="157.10000000000002"/>
      <point x="539.4" y="273.5" type="curve" smooth="yes"/>
      <point x="539.4" y="384.09999999999997"/>
      <point x="500.3999999999999" y="436.1"/>
      <point x="376.8" y="436.1" type="curve" smooth="yes"/>
      <point x="252.89999999999995" y="436.1"/>
      <point x="214.09999999999997" y="384.09999999999997"/>
      <point x="214.09999999999997" y="273.5" type="curve" smooth="yes"/>
      <point x="214.09999999999997" y="157.10000000000002"/>
      <point x="260.09999999999997" y="108.09999999999998"/>
    </contour>
    <contour>
      <point x="35.9" y="-7.1000000000000005" type="line"/>
      <point x="164.19999999999996" y="124.70000000000002" type="line"/>
      <point x="164.89999999999995" y="124.4" type="line"/>
      <point x="521.8999999999999" y="475.80000000000007" type="line"/>
      <point x="522.5999999999999" y="475.5" type="line"/>
      <point x="597.1999999999999" y="554.0" type="line"/>
      <point x="718.0999999999999" y="554.0" type="line"/>
      <point x="593.4999999999999" y="425.70000000000005" type="line"/>
      <point x="592.8000000000001" y="426.0" type="line"/>
      <point x="234.60000000000002" y="74.2" type="line"/>
      <point x="233.89999999999998" y="74.5" type="line"/>
      <point x="154.8" y="-7.1000000000000005" type="line"/>
    </contour>
  </outline>
</glyph>
<glyph name="thorn" format="2">
  <advance width="746.2099999999999"/>
  <unicode hex="00FE"/>
  <outline>
    <contour>
      <point x="60.45" y="-210.0" type="line"/>
      <point x="250.26999999999998" y="-210.0" type="line"/>
      <point x="250.26999999999998" y="-2.3499999999999988" type="line"/>
      <point x="288.38" y="-7.44"/>
      <point x="327.88" y="-10.0"/>
      <point x="364.56" y="-10.0" type="curve" smooth="yes"/>
      <point x="608.0899999999999" y="-10.0"/>
      <point x="711.75" y="74.84"/>
      <point x="711.75" y="278.94000000000005" type="curve" smooth="yes"/>
      <point x="711.75" y="457.08"/>
      <point x="621.7" y="554.0"/>
      <point x="458.68999999999994" y="554.0" type="curve" smooth="yes"/>
      <point x="392.36" y="554.0"/>
      <point x="322.05999999999995" y="538.21"/>
      <point x="250.69" y="507.67999999999995" type="curve"/>
      <point x="250.69" y="740.0" type="line"/>
      <point x="60.45" y="740.0" type="line"/>
    </contour>
    <contour>
      <point x="366.41999999999996" y="114.87" type="curve" smooth="yes"/>
      <point x="331.53" y="114.87"/>
      <point x="291.65999999999997" y="119.6"/>
      <point x="250.40999999999997" y="129.45" type="curve"/>
      <point x="250.40999999999997" y="386.46000000000004" type="line"/>
      <point x="298.93" y="401.43"/>
      <point x="343.82" y="408.81000000000006"/>
      <point x="381.16999999999996" y="408.81000000000006" type="curve" smooth="yes"/>
      <point x="471.67" y="408.81000000000006"/>
      <point x="517.73" y="365.21"/>
      <point x="517.73" y="267.67" type="curve" smooth="yes"/>
      <point x="517.73" y="157.65"/>
      <point x="469.56000000000006" y="114.87"/>
    </contour>
  </outline>
</glyph>
<glyph name="Dcroat" format="2">
  <advance width="922.0600000000001"/>
  <unicode hex="0110"/>
  <outline>
    <contour>
      <point x="10.259999999999998" y="289.14" type="line"/>
      <point x="438.0199999999999" y="289.14" type="line"/>
      <point x="438.0199999999999" y="420.2" type="line"/>
      <point x="10.259999999999998" y="420.2" type="line"/>
    </contour>
    <component base="D" xOffset="4.34"/>
  </outline>
</glyph>
<glyph name="dcroat" format="2">
  <advance width="753.76"/>
  <unicode hex="0111"/>
  <outline>
    <contour>
      <point x="303.42" y="599.1" type="line"/>
      <point x="761.6999999999999" y="599.1" type="line"/>
      <point x="761.6999999999999" y="684.2" type="line"/>
      <point x="303.42" y="684.2" type="line"/>
    </contour>
    <component base="d"/>
  </outline>
</glyph>
<glyph name="Hbar" format="2">
  <advance width="932.89"/>
  <unicode hex="0126"/>
  <outline>
    <contour>
      <point x="23.22" y="497.87" type="line"/>
      <point x="76.66999999999999" y="497.87" type="line"/>
      <point x="76.66999999999999" y="0.0" type="line"/>
      <point x="276.22" y="0.0" type="line"/>
      <point x="276.22" y="238.57000000000002" type="line"/>
      <point x="661.5699999999999" y="238.57000000000002" type="line"/>
      <point x="661.5699999999999" y="0.0" type="line"/>
      <point x="856.2199999999999" y="0.0" type="line"/>
      <point x="856.2199999999999" y="497.87" type="line"/>
      <point x="909.67" y="497.87" type="line"/>
      <point x="909.67" y="608.5300000000001" type="line"/>
      <point x="856.2199999999999" y="608.5300000000001" type="line"/>
      <point x="856.2199999999999" y="700.0" type="line"/>
      <point x="661.5699999999999" y="700.0" type="line"/>
      <point x="661.5699999999999" y="608.5300000000001" type="line"/>
      <point x="276.22" y="608.5300000000001" type="line"/>
      <point x="276.22" y="700.0" type="line"/>
      <point x="76.66999999999999" y="700.0" type="line"/>
      <point x="76.66999999999999" y="608.5300000000001" type="line"/>
      <point x="23.22" y="608.5300000000001" type="line"/>
    </contour>
    <contour>
      <point x="276.22" y="400.93" type="line"/>
      <point x="276.22" y="497.87" type="line"/>
      <point x="661.5699999999999" y="497.87" type="line"/>
      <point x="661.5699999999999" y="400.93" type="line"/>
    </contour>
  </outline>
</glyph>
<glyph name="hbar" format="2">
  <advance width="735.73"/>
  <unicode hex="0127"/>
  <outline>
    <contour>
      <point x="-7.740000000000001" y="598.95" type="line"/>
      <point x="459.24999999999994" y="598.95" type="line"/>
      <point x="459.24999999999994" y="680.45" type="line"/>
      <point x="-7.740000000000001" y="680.45" type="line"/>
    </contour>
    <component base="h"/>
  </outline>
</glyph>
<glyph name="Idotaccent" format="2">
  <advance width="349.66999999999996"/>
  <unicode hex="0130"/>
  <outline>
    <contour>
      <point x="175.14999999999998" y="752.1899999999999" type="curve" smooth="yes"/>
      <point x="256.90999999999997" y="752.1899999999999"/>
      <point x="288.75999999999993" y="778.88"/>
      <point x="288.75999999999993" y="834.29" type="curve" smooth="yes"/>
      <point x="288.75999999999993" y="890.12"/>
      <point x="256.48999999999995" y="916.5999999999999"/>
      <point x="175.14999999999998" y="916.5999999999999" type="curve" smooth="yes"/>
      <point x="93.6" y="916.5999999999999"/>
      <point x="61.329999999999984" y="890.12"/>
      <point x="61.329999999999984" y="834.29" type="curve" smooth="yes"/>
      <point x="61.329999999999984" y="778.67"/>
      <point x="93.9" y="752.1899999999999"/>
    </contour>
    <component base="I"/>
  </outline>
</glyph>
<glyph name="dotlessi" format="2">
  <advance width="311.28000000000003"/>
  <unicode hex="0131"/>
  <anchor x="235.08" y="7.0" name="ogonek"/>
  <anchor x="156.06" y="0.0" name="bottom"/>
  <anchor x="155.64000000000001" y="544.0" name="top"/>
  <outline>
    <contour>
      <point x="60.45" y="0.0" type="line"/>
      <point x="250.82999999999998" y="0.0" type="line"/>
      <point x="250.82999999999998" y="544.0" type="line"/>
      <point x="60.45" y="544.0" type="line"/>
    </contour>
  </outline>
</glyph>
<glyph name="kgreenlandic" format="2">
  <advance width="711.3000000000001"/>
  <unicode hex="0138"/>
  <anchor x="354.09999999999997" y="544.0" name="top"/>
  <anchor x="354.09999999999997" y="0.0" name="bottom"/>
  <outline>
    <contour>
      <point x="647.8" y="-10.100000000000001" type="curve" smooth="yes"/>
      <point x="665.6" y="-10.100000000000001"/>
      <point x="676.7999999999998" y="-9.4"/>
      <point x="687.8" y="-7.699999999999998" type="curve"/>
      <point x="686.4000000000001" y="159.3" type="line"/>
      <point x="679.2" y="158.79999999999998"/>
      <point x="672.9" y="158.5"/>
      <point x="666.8" y="158.5" type="curve" smooth="yes"/>
      <point x="623.3" y="158.5"/>
      <point x="572.5999999999999" y="181.29999999999998"/>
      <point x="449.2" y="268.59999999999997" type="curve" smooth="yes"/>
      <point x="236.6" y="419.0" type="line"/>
      <point x="236.6" y="544.0" type="line"/>
      <point x="63.899999999999984" y="544.0" type="line"/>
      <point x="63.899999999999984" y="0.0" type="line"/>
      <point x="236.6" y="0.0" type="line"/>
      <point x="236.6" y="221.70000000000002" type="line"/>
      <point x="419.7" y="93.0" type="line" smooth="yes"/>
      <point x="547.0999999999999" y="3.0"/>
      <point x="594.7" y="-10.100000000000001"/>
    </contour>
    <contour>
      <point x="385.7" y="248.1" type="line"/>
      <point x="485.2" y="316.2"/>
      <point x="624.9999999999999" y="420.9"/>
      <point x="672.0999999999999" y="538.1999999999998" type="curve"/>
      <point x="484.29999999999995" y="548.5999999999999" type="line"/>
      <point x="447.79999999999995" y="458.2"/>
      <point x="358.99999999999994" y="392.0"/>
      <point x="226.49999999999997" y="297.59999999999997" type="curve"/>
    </contour>
  </outline>
</glyph>
<glyph name="Ldot" format="2">
  <advance width="746.9999999999999"/>
  <unicode hex="013F"/>
  <outline>
    <contour>
      <point x="445.55999999999995" y="416.71" type="curve" smooth="yes"/>
      <point x="445.55999999999995" y="364.65999999999997"/>
      <point x="471.8999999999999" y="339.99999999999994"/>
      <point x="542.6500000000001" y="339.99999999999994" type="curve" smooth="yes"/>
      <point x="613.9100000000001" y="339.99999999999994"/>
      <point x="639.95" y="364.65999999999997"/>
      <point x="639.95" y="416.71" type="curve" smooth="yes"/>
      <point x="639.95" y="469.46"/>
      <point x="613.9100000000001" y="494.12"/>
      <point x="542.6500000000001" y="494.12" type="curve" smooth="yes"/>
      <point x="471.59999999999997" y="494.12"/>
      <point x="445.55999999999995" y="469.46"/>
    </contour>
    <component base="L"/>
  </outline>
</glyph>
<glyph name="ldot" format="2">
  <advance width="438.55"/>
  <unicode hex="0140"/>
  <outline>
    <contour>
      <point x="387.8" y="334.61" type="curve" smooth="yes"/>
      <point x="429.1" y="334.61"/>
      <point x="445.12999999999994" y="352.96999999999997"/>
      <point x="445.12999999999994" y="395.08000000000004" type="curve" smooth="yes"/>
      <point x="445.12999999999994" y="437.40000000000003"/>
      <point x="429.1" y="455.76"/>
      <point x="387.8" y="455.76" type="curve" smooth="yes"/>
      <point x="346.71" y="455.76"/>
      <point x="330.68" y="437.40000000000003"/>
      <point x="330.68" y="395.08000000000004" type="curve" smooth="yes"/>
      <point x="330.68" y="352.96999999999997"/>
      <point x="347.01" y="334.61"/>
    </contour>
    <component base="l"/>
  </outline>
</glyph>
<glyph name="Lslash" format="2">
  <advance width="752.73"/>
  <unicode hex="0141"/>
  <outline>
    <contour>
      <point x="7.900000000000001" y="168.85" type="line"/>
      <point x="80.79" y="206.55" type="line"/>
      <point x="80.79" y="0.0" type="line"/>
      <point x="727.0300000000001" y="0.0" type="line"/>
      <point x="727.0300000000001" y="160.89" type="line"/>
      <point x="280.55" y="160.89" type="line"/>
      <point x="280.55" y="296.23" type="line"/>
      <point x="526.37" y="420.85" type="line"/>
      <point x="526.37" y="576.49" type="line"/>
      <point x="280.55" y="451.96" type="line"/>
      <point x="280.55" y="700.0" type="line"/>
      <point x="80.79" y="700.0" type="line"/>
      <point x="80.79" y="362.28000000000003" type="line"/>
      <point x="7.900000000000001" y="324.58" type="line"/>
    </contour>
  </outline>
</glyph>
<glyph name="lslash" format="2">
  <advance width="417.96999999999997"/>
  <unicode hex="0142"/>
  <outline>
    <contour>
      <point x="245.55999999999997" y="-10.0" type="curve" smooth="yes"/>
      <point x="307.96999999999997" y="-10.0"/>
      <point x="370.36999999999995" y="1.6599999999999984"/>
      <point x="419.60999999999996" y="16.389999999999997" type="curve"/>
      <point x="399.65000000000003" y="157.61" type="line"/>
      <point x="366.66" y="151.07"/>
      <point x="339.27" y="146.64"/>
      <point x="316.82" y="146.64" type="curve" smooth="yes"/>
      <point x="282.43" y="146.64"/>
      <point x="257.83" y="159.96999999999997"/>
      <point x="257.83" y="216.64" type="curve" smooth="yes"/>
      <point x="257.83" y="312.95" type="line"/>
      <point x="373.79999999999995" y="389.84000000000003" type="line"/>
      <point x="373.79999999999995" y="526.3000000000001" type="line"/>
      <point x="257.83" y="449.41" type="line"/>
      <point x="257.83" y="740.0" type="line"/>
      <point x="68.08" y="740.0" type="line"/>
      <point x="68.08" y="347.21" type="line"/>
      <point x="5.669999999999998" y="305.54" type="line"/>
      <point x="5.669999999999998" y="169.17000000000002" type="line"/>
      <point x="69.06" y="211.24" type="line"/>
      <point x="70.03999999999999" y="165.12" type="line" smooth="yes"/>
      <point x="78.36999999999999" y="33.230000000000004"/>
      <point x="137.65" y="-10.0"/>
    </contour>
  </outline>
</glyph>
<glyph name="Eng" format="2">
  <advance width="893.75"/>
  <unicode hex="014A"/>
  <outline>
    <contour>
      <point x="75.04999999999998" y="0.0" type="line"/>
      <point x="254.99999999999997" y="0.0" type="line"/>
      <point x="254.99999999999997" y="427.9" type="line"/>
      <point x="634.55" y="6.6499999999999995" type="line"/>
      <point x="634.55" y="-2.1500000000000012" type="line" smooth="yes"/>
      <point x="633.3499999999999" y="-47.90000000000002"/>
      <point x="589.5500000000001" y="-69.60000000000001"/>
      <point x="521.0999999999999" y="-69.60000000000001" type="curve" smooth="yes"/>
      <point x="487.95" y="-69.60000000000001"/>
      <point x="447.19999999999993" y="-64.80000000000001"/>
      <point x="404.09999999999997" y="-55.449999999999996" type="curve"/>
      <point x="375.75000000000006" y="-191.5" type="line"/>
      <point x="427.5999999999999" y="-203.8"/>
      <point x="484.19999999999993" y="-211.75"/>
      <point x="542.8" y="-211.75" type="curve" smooth="yes"/>
      <point x="705.5" y="-211.75"/>
      <point x="818.6999999999998" y="-149.39999999999998"/>
      <point x="818.6999999999998" y="-11.4" type="curve" smooth="yes"/>
      <point x="818.6999999999998" y="700.0" type="line"/>
      <point x="639.4499999999999" y="700.0" type="line"/>
      <point x="639.4499999999999" y="257.04999999999995" type="line"/>
      <point x="252.84999999999997" y="702.1" type="line"/>
      <point x="75.04999999999998" y="702.1" type="line"/>
    </contour>
  </outline>
</glyph>
<glyph name="eng" format="2">
  <advance width="735.67"/>
  <unicode hex="014B"/>
  <outline>
    <contour>
      <point x="675.64" y="35.0" type="curve"/>
      <point x="675.64" y="373.05999999999995" type="line" smooth="yes"/>
      <point x="675.64" y="476.66"/>
      <point x="610.5399999999998" y="554.0"/>
      <point x="470.37" y="554.0" type="curve" smooth="yes"/>
      <point x="382.60999999999996" y="554.0"/>
      <point x="318.56999999999994" y="528.3199999999999"/>
      <point x="231.65" y="483.33" type="curve"/>
      <point x="231.65" y="544.0" type="line"/>
      <point x="60.45" y="544.0" type="line"/>
      <point x="60.45" y="0.0" type="line"/>
      <point x="250.40999999999997" y="0.0" type="line"/>
      <point x="250.40999999999997" y="370.98" type="line"/>
      <point x="302.35999999999996" y="392.97999999999996"/>
      <point x="343.48" y="408.46000000000004"/>
      <point x="392.46000000000004" y="408.46000000000004" type="curve" smooth="yes"/>
      <point x="453.35999999999996" y="408.46000000000004"/>
      <point x="485.67999999999995" y="376.7"/>
      <point x="485.67999999999995" y="307.53999999999996" type="curve" smooth="yes"/>
      <point x="485.67999999999995" y="34.86" type="line" smooth="yes"/>
      <point x="485.67999999999995" y="-26.46"/>
      <point x="467.65999999999997" y="-51.96000000000001"/>
      <point x="432.61" y="-61.56000000000002" type="curve" smooth="yes"/>
      <point x="423.06" y="-63.27000000000001"/>
      <point x="410.9200000000001" y="-63.490000000000016"/>
      <point x="399.32000000000005" y="-63.410000000000004" type="curve"/>
      <point x="391.24" y="-210.19000000000003" type="line"/>
      <point x="416.39000000000004" y="-212.89000000000001"/>
      <point x="440.8900000000001" y="-212.98"/>
      <point x="465.03999999999996" y="-211.17999999999998" type="curve" smooth="yes"/>
      <point x="593.6899999999999" y="-200.5"/>
      <point x="675.64" y="-110.37"/>
    </contour>
  </outline>
</glyph>
